<svg xmlns="http://www.w3.org/2000/svg" width="32" height="32" viewBox="0 0 32 32" fill="none">
    <path fill-rule="evenodd" clip-rule="evenodd"
        d="M16.388 4.1723C16.0815 4.54136 15.8347 4.83861 15.5887 5.13656C14.7389 6.16696 14.239 7.38083 13.7398 8.60038C11.851 13.2102 9.95444 17.8171 8.05785 22.4239L8.05649 22.4272C7.52787 23.7112 6.99925 24.9952 6.4708 26.2793C6.13445 27.0964 5.33302 27.6311 4.43987 27.6318C3.31418 27.6326 2.18849 27.6326 1.0628 27.6318C0.114891 27.6311 -0.219331 27.1369 0.142624 26.2452C0.642087 25.0141 1.14793 23.786 1.65391 22.5577L1.65393 22.5576C1.80205 22.198 1.95019 21.8384 2.09818 21.4786C2.67355 20.0804 3.24952 18.6824 3.8255 17.2843L3.82568 17.2839C5.41943 13.4155 7.0133 9.54681 8.59489 5.67274C8.922 4.87203 9.73622 4.13034 10.8541 4.16092C12.0298 4.19324 13.2069 4.18592 14.384 4.17859C14.8899 4.17544 15.3958 4.1723 15.9016 4.1723H16.388ZM15.5868 27.633L15.5886 27.6308H16.076H21.0887C22.2741 27.6308 22.9319 27.1971 23.3856 26.0963C24.6142 23.1156 25.8411 20.1342 27.068 17.1529L27.0696 17.1491L28.5937 13.4456C28.8398 12.8478 29.0861 12.25 29.3323 11.6522L29.3325 11.6516C30.1734 9.61031 31.0143 7.56905 31.8492 5.52524C32.1941 4.68186 31.8478 4.17484 30.9454 4.1727C29.819 4.17057 28.6933 4.17057 27.5676 4.1727C26.5834 4.17484 25.9107 4.65697 25.5082 5.53448C25.4019 5.76638 25.3074 6.00376 25.213 6.24119L25.213 6.24125C25.1673 6.35619 25.1215 6.47115 25.0745 6.5855C24.4304 8.15058 23.7858 9.71543 23.1413 11.2802L23.1399 11.2838L23.1394 11.2849C21.5517 15.1398 19.9641 18.9946 18.3829 22.8522L18.2967 23.0627L18.2967 23.0628C17.7508 24.398 17.2063 25.7296 16.251 26.8444C16.1058 27.0137 15.9624 27.1849 15.7993 27.3796L15.799 27.38C15.7326 27.4592 15.663 27.5423 15.5886 27.6308H15.5882L15.5868 27.633ZM13.5388 20.5866C13.7165 20.586 13.8942 20.5855 14.0719 20.5855C14.2537 20.5855 14.4355 20.5852 14.6173 20.585C14.9806 20.5845 15.3436 20.584 15.7067 20.5855C16.6895 20.589 17.3992 20.1296 17.7739 19.2415C18.6986 17.0519 19.5937 14.8485 20.4883 12.6463L20.5309 12.5414C20.8516 11.7506 20.4875 11.2336 19.6349 11.2322C19.5391 11.2321 19.4433 11.232 19.3475 11.2319C18.2943 11.2305 17.2415 11.2291 16.1881 11.2344C15.2772 11.2386 14.596 11.6752 14.2489 12.4902C13.2833 14.7551 12.3602 17.0377 11.4379 19.3211C11.1407 20.0578 11.5062 20.5727 12.2955 20.5833C12.7097 20.5893 13.1242 20.588 13.5388 20.5866Z"
        fill="#FF5247" />
</svg>