<svg xmlns="http://www.w3.org/2000/svg" width="16" height="16" viewBox="0 0 16 16" fill="none">
    <path fill-rule="evenodd" clip-rule="evenodd"
        d="M8.19398 2.08616C8.04073 2.2707 7.91736 2.41932 7.79433 2.5683C7.36945 3.0835 7.11949 3.69043 6.86989 4.30021C5.92551 6.60514 4.97722 8.90854 4.02892 11.212L3.2354 13.1397C3.06722 13.5482 2.66651 13.8156 2.21993 13.8159C1.65709 13.8163 1.09425 13.8163 0.531401 13.8159C0.0574454 13.8156 -0.109666 13.5685 0.0713121 13.1226C0.321014 12.5072 0.573906 11.8932 0.826863 11.2791L0.826927 11.2789L1.04909 10.7393C1.33676 10.0403 1.62472 9.34129 1.9127 8.64231C2.70962 6.708 3.5066 4.77353 4.29745 2.83638C4.461 2.43603 4.86811 2.06519 5.42705 2.08047C6.01491 2.09664 6.60347 2.09297 7.19199 2.08931C7.44495 2.08774 7.6979 2.08616 7.95078 2.08616H8.19398ZM7.79346 13.8165L7.79435 13.8154H8.03808H10.5444C11.1371 13.8154 11.466 13.5985 11.6928 13.0481C12.3075 11.5571 12.9212 10.0657 13.5349 8.57436L14.2969 6.7228L14.6662 5.82612L14.6664 5.82566C15.0868 4.80504 15.5072 3.78447 15.9247 2.76262C16.0971 2.34093 15.9239 2.08742 15.4727 2.08636C14.9095 2.08529 14.3467 2.08529 13.7839 2.08636C13.2918 2.08742 12.9554 2.32849 12.7542 2.76724C12.701 2.88319 12.6538 3.00188 12.6066 3.1206L12.6065 3.12063C12.5837 3.1781 12.5608 3.23558 12.5373 3.29276C12.2153 4.07516 11.8931 4.85745 11.5709 5.63972L11.57 5.64194L11.5697 5.64251C10.7759 7.56995 9.98208 9.4973 9.1915 11.4261L9.14842 11.5314C8.87545 12.199 8.60319 12.8648 8.12555 13.4222C8.05296 13.5069 7.98126 13.5924 7.89969 13.6898L7.89954 13.69L7.79435 13.8154H7.79417L7.79346 13.8165ZM6.76932 10.2933C6.85817 10.293 6.94703 10.2927 7.03589 10.2927C7.12682 10.2927 7.21771 10.2926 7.30857 10.2925C7.49022 10.2923 7.67177 10.292 7.85331 10.2927C8.34469 10.2945 8.69953 10.0648 8.88691 9.62073C9.34924 8.52597 9.79676 7.42432 10.244 6.32324L10.2654 6.27069C10.4258 5.87531 10.2437 5.61682 9.8174 5.61611C9.7695 5.61605 9.7216 5.61599 9.67371 5.61593C9.14708 5.61525 8.6207 5.61457 8.09402 5.61718C7.63855 5.61931 7.29793 5.83762 7.12442 6.24509C6.64158 7.37753 6.18006 8.51887 5.71891 9.66055C5.57029 10.0289 5.75304 10.2863 6.14771 10.2917C6.35478 10.2947 6.56203 10.294 6.76932 10.2933Z"
        fill="#FF5247" />
</svg>