<svg width="24" height="24" viewBox="0 0 24 24" fill="none" xmlns="http://www.w3.org/2000/svg">
<path fill-rule="evenodd" clip-rule="evenodd" d="M16.3188 8.76802L9.70863 2.8519L2.84863 8.99162V16.5688H11.2361V15.0688H4.34863V9.66215L9.70863 4.86493L15.3185 9.88574L16.3188 8.76802ZM12.7776 15.4775C12.7776 13.151 14.6438 11.25 16.9645 11.25C19.2851 11.25 21.1513 13.151 21.1513 15.4775C21.1513 16.2379 20.872 16.957 20.5127 17.5749C20.1506 18.1975 19.6786 18.7665 19.2248 19.2407C18.7687 19.7173 18.3153 20.1144 17.9771 20.3918C17.8074 20.531 17.6653 20.6412 17.5644 20.7174C17.5139 20.7556 17.4737 20.7853 17.4454 20.806L17.412 20.8302L17.4024 20.8371L17.3994 20.8392L17.3984 20.8399L16.9645 20.2282L16.5309 20.8402L16.5295 20.8392L16.5265 20.8371L16.5169 20.8302L16.4836 20.806C16.4552 20.7853 16.415 20.7556 16.3645 20.7174C16.2636 20.6412 16.1215 20.531 15.9518 20.3918C15.6136 20.1144 15.1602 19.7174 14.7042 19.2407C14.2503 18.7665 13.7784 18.1975 13.4163 17.5749C13.0569 16.957 12.7776 16.2379 12.7776 15.4775ZM16.5309 20.8402C16.531 20.8403 16.5312 20.8404 16.9645 20.2282C17.3977 20.8404 17.3983 20.84 17.3984 20.8399L16.9645 21.147L16.5309 20.8402ZM16.9645 19.282L17.0259 19.232C17.3321 18.9809 17.7379 18.6249 18.141 18.2037C18.5464 17.78 18.9337 17.3062 19.216 16.8208C19.5011 16.3306 19.6513 15.8763 19.6513 15.4775C19.6513 13.9628 18.4401 12.75 16.9645 12.75C15.4888 12.75 14.2776 13.9628 14.2776 15.4775C14.2776 15.8763 14.4279 16.3306 14.7129 16.8208C14.9953 17.3062 15.3825 17.78 15.7879 18.2037C16.191 18.6249 16.5968 18.9809 16.9031 19.232L16.9645 19.282ZM16.0234 14.4959H17.9053V16.3778H16.0234V14.4959Z" fill="#2B2A28"/>
</svg>
