<svg width="37" height="36" viewBox="0 0 37 36" fill="none" xmlns="http://www.w3.org/2000/svg">
<rect x="0.699219" y="0.5" width="35" height="35" rx="17.5" fill="#1A1A1A"/>
<rect x="0.699219" y="0.5" width="35" height="35" rx="17.5" stroke="#ACABAA"/>
<path fill-rule="evenodd" clip-rule="evenodd" d="M11.4058 25H9.18846H9.18743C8.75344 25 8.54521 24.6474 8.72458 24.2124L13.8386 11.7876C14.017 11.3526 14.5149 11 14.9499 11H18.4754C18.4754 11 17.6095 11.8505 17.1745 12.8999L12.5171 24.2124C12.3387 24.6474 11.8408 25 11.4058 25ZM27.2117 11H24.9943C24.5593 11 24.0614 11.3526 23.8831 11.7876L19.2257 23.1001C18.7917 24.1495 17.9258 25 17.9258 25H21.4513C21.8863 25 22.3842 24.6474 22.5626 24.2124L27.6745 11.7876C27.8539 11.3526 27.6457 11 27.2117 11ZM18.2451 15.2046C17.8101 15.2046 17.3132 15.5571 17.1349 15.9922L15.4886 20.0084C15.3103 20.4434 15.5185 20.7959 15.9535 20.7959H18.1565C18.5915 20.7959 19.0884 20.4434 19.2667 20.0084L20.913 15.9922C21.0913 15.5571 20.8831 15.2046 20.4481 15.2046H18.2451Z" fill="#FF3F32"/>
</svg>
