<svg width="24" height="24" viewBox="0 0 24 24" fill="none" xmlns="http://www.w3.org/2000/svg">
<path fill-rule="evenodd" clip-rule="evenodd" d="M15.25 4.75V6H16.75V4.75H19C19.6904 4.75 20.25 5.30964 20.25 6V9.25H3.75V6C3.75 5.30964 4.30964 4.75 5 4.75H7.25V6H8.75V4.75H15.25ZM3.75 10.75V20C3.75 20.6904 4.30964 21.25 5 21.25H19C19.6904 21.25 20.25 20.6904 20.25 20V10.75H3.75ZM5 3.25H7.25V2H8.75V3.25H15.25V2H16.75V3.25H19C20.5188 3.25 21.75 4.48122 21.75 6V20C21.75 21.5188 20.5188 22.75 19 22.75H5C3.48122 22.75 2.25 21.5188 2.25 20V6C2.25 4.48122 3.48122 3.25 5 3.25Z" fill="#2B2A28"/>
</svg>
