<svg width="24" height="24" viewBox="0 0 24 24" fill="none" xmlns="http://www.w3.org/2000/svg">
<path fill-rule="evenodd" clip-rule="evenodd" d="M15.6713 2.00864H3.68896V21.9914H20.3112V6.6486L15.6713 2.00864ZM5.18896 20.4914V3.50864H15.0499L18.8112 7.26992V20.4914H5.18896ZM12.1033 4.94907C11.5144 4.94907 10.9497 5.18298 10.5333 5.59935C10.117 6.01573 9.88306 6.58045 9.88306 7.16928C9.88306 7.75812 10.117 8.32284 10.5333 8.73922C10.9497 9.15559 11.5144 9.3895 12.1033 9.3895C12.6921 9.3895 13.2568 9.15559 13.6732 8.73922C14.0896 8.32284 14.3235 7.75812 14.3235 7.16928C14.3235 6.58045 14.0896 6.01573 13.6732 5.59935C13.2568 5.18298 12.6921 4.94907 12.1033 4.94907ZM11.594 6.66001C11.7291 6.52495 11.9123 6.44907 12.1033 6.44907C12.2943 6.44907 12.4775 6.52495 12.6125 6.66001C12.7476 6.79508 12.8235 6.97827 12.8235 7.16928C12.8235 7.3603 12.7476 7.54349 12.6125 7.67856C12.4775 7.81362 12.2943 7.8895 12.1033 7.8895C11.9123 7.8895 11.7291 7.81362 11.594 7.67856C11.4589 7.54349 11.3831 7.3603 11.3831 7.16928C11.3831 6.97827 11.4589 6.79508 11.594 6.66001ZM16.2006 15.6904H7.79932V14.1904H16.2006V15.6904ZM14.5203 18.6309H7.79932V17.1309H14.5203V18.6309ZM10.2297 11.5506V12.4201H8.72974V10.8235L8.98089 10.5998C8.98078 10.6 8.98167 10.601 9.04306 10.6698C9.10542 10.7398 9.23019 10.8797 9.47974 11.1599L8.98089 10.5998L8.98191 10.5989L8.98301 10.598L8.9855 10.5958L8.99157 10.5905L9.00808 10.5764C9.02103 10.5655 9.03787 10.5517 9.05856 10.5353C9.09992 10.5026 9.15678 10.4598 9.22876 10.4104C9.37257 10.3116 9.57795 10.1856 9.84174 10.0613C10.3704 9.81231 11.135 9.56976 12.1032 9.56976C13.0714 9.56976 13.836 9.81231 14.3646 10.0613C14.6284 10.1856 14.8338 10.3116 14.9776 10.4104C15.0496 10.4598 15.1065 10.5026 15.1478 10.5353C15.1685 10.5517 15.1854 10.5655 15.1983 10.5764L15.2148 10.5905L15.2209 10.5958L15.2234 10.598L15.2245 10.5989C15.2247 10.5992 15.2255 10.5998 14.7267 11.1599L15.2255 10.5998L15.4767 10.8235V12.4201H13.9767V11.5506C13.9065 11.5094 13.8226 11.4641 13.7254 11.4183C13.3623 11.2473 12.8153 11.0698 12.1032 11.0698C11.3911 11.0698 10.8441 11.2473 10.481 11.4183C10.3838 11.4641 10.2999 11.5094 10.2297 11.5506Z" fill="#2B2A28"/>
</svg>
