<svg width="24" height="24" viewBox="0 0 24 24" fill="none" xmlns="http://www.w3.org/2000/svg">
<path fill-rule="evenodd" clip-rule="evenodd" d="M2.21997 4.27634H22.2463V19.25H2.21997V18.5V15.5182V4.27634ZM11.4831 16.5431V17.75H3.71997V16.5431C4.93339 16.1148 6.23948 15.8816 7.60155 15.8816C8.96363 15.8816 10.2698 16.1148 11.4831 16.5431ZM7.60155 14.3816C6.25134 14.3816 4.94763 14.5852 3.71997 14.9636V5.77634H20.7463V17.75H12.9831V15.5182L12.5132 15.329C10.9946 14.7177 9.33642 14.3816 7.60155 14.3816ZM18.97 9.14474H14.7595V7.64474H18.97V9.14474ZM14.7595 12.5132H18.97V11.0132H14.7595V12.5132ZM6.24536 10.5009C6.24536 9.45692 7.37545 8.80447 8.27954 9.32646L8.27955 9.32646C8.69911 9.56869 8.95761 10.0164 8.95761 10.5009C8.95761 11.5448 7.8275 12.1973 6.92343 11.6753L6.92342 11.6753C6.50387 11.4331 6.24536 10.9853 6.24536 10.5009ZM4.74536 10.5009C4.74536 8.3022 7.12547 6.9281 9.02954 8.02742L9.02955 8.02742C9.91318 8.53758 10.4576 9.48042 10.4576 10.5009C10.4576 12.6994 8.07751 14.0737 6.17343 12.9743C5.28978 12.4642 4.74536 11.5212 4.74536 10.5009Z" fill="#2B2A28"/>
</svg>
