<svg width="24" height="24" viewBox="0 0 24 24" fill="none" xmlns="http://www.w3.org/2000/svg">
<path fill-rule="evenodd" clip-rule="evenodd" d="M12.7507 4.80469V13.1191L15.5165 10.3534L16.5771 11.4141L12.0008 15.9903L7.42456 11.4141L8.48522 10.3534L11.2507 13.1189V4.80469H12.7507ZM3.96167 16.1016V14.1797H2.46167V16.1016C2.46167 16.9221 2.78762 17.709 3.36781 18.2892C3.948 18.8694 4.73491 19.1953 5.55542 19.1953H18.446C19.2666 19.1953 20.0535 18.8694 20.6337 18.2892C21.2138 17.709 21.5398 16.9221 21.5398 16.1016V14.1797H20.0398V16.1016C20.0398 16.5243 19.8719 16.9296 19.573 17.2285C19.2741 17.5274 18.8687 17.6953 18.446 17.6953H5.55542C5.13273 17.6953 4.72735 17.5274 4.42847 17.2285C4.12958 16.9296 3.96167 16.5243 3.96167 16.1016Z" fill="#2B2A28"/>
</svg>
