<svg width="24" height="24" viewBox="0 0 24 24" fill="none" xmlns="http://www.w3.org/2000/svg">
<path fill-rule="evenodd" clip-rule="evenodd" d="M6.62701 6.12466C7.12852 5.62315 7.80872 5.3414 8.51797 5.3414C9.22722 5.3414 9.90741 5.62315 10.4089 6.12466C10.7563 6.47204 10.9982 6.90515 11.1142 7.37427H21.1393V8.87427H11.0506C10.92 9.25948 10.702 9.61353 10.4089 9.90658C9.90741 10.4081 9.22722 10.6898 8.51797 10.6898C7.80872 10.6898 7.12852 10.4081 6.62701 9.90658C6.33396 9.61353 6.11595 9.25948 5.98535 8.87427H2.85986V7.37427H5.92179C6.03769 6.90515 6.27963 6.47204 6.62701 6.12466ZM9.34827 7.18532C9.56595 7.40301 9.68934 7.69737 9.69214 8.00492V8.02631C9.68934 8.33387 9.56595 8.62823 9.34827 8.84592C9.12806 9.06613 8.82939 9.18984 8.51797 9.18984C8.20655 9.18984 7.90788 9.06613 7.68767 8.84592C7.46746 8.62571 7.34375 8.32704 7.34375 8.01562C7.34375 7.7042 7.46746 7.40553 7.68767 7.18532C7.90788 6.96511 8.20655 6.8414 8.51797 6.8414C8.82939 6.8414 9.12806 6.96511 9.34827 7.18532ZM12.9157 15.2295H2.85986V16.7295H12.9147C13.0394 17.1574 13.2703 17.5514 13.5911 17.8722C14.0926 18.3737 14.7728 18.6555 15.4821 18.6555C16.1913 18.6555 16.8715 18.3737 17.373 17.8722C17.6939 17.5514 17.9248 17.1574 18.0495 16.7295H21.1394V15.2295H18.0485C17.9235 14.803 17.693 14.4103 17.373 14.0903C16.8715 13.5888 16.1913 13.307 15.4821 13.307C14.7728 13.307 14.0926 13.5888 13.5911 14.0903C13.2712 14.4103 13.0406 14.803 12.9157 15.2295ZM16.6562 15.9706C16.6535 15.663 16.5301 15.3686 16.3124 15.151C16.0922 14.9307 15.7935 14.807 15.4821 14.807C15.1707 14.807 14.872 14.9307 14.6518 15.151C14.4316 15.3712 14.3079 15.6698 14.3079 15.9813C14.3079 16.2927 14.4316 16.5913 14.6518 16.8116C14.872 17.0318 15.1707 17.1555 15.4821 17.1555C15.7935 17.1555 16.0922 17.0318 16.3124 16.8116C16.5301 16.5939 16.6535 16.2995 16.6562 15.992V15.9706Z" fill="#2B2A28"/>
</svg>
