<svg width="20" height="20" viewBox="0 0 20 20" fill="none" xmlns="http://www.w3.org/2000/svg">
<g clip-path="url(#clip0_2563_63630)">
<path fill-rule="evenodd" clip-rule="evenodd" d="M5.00195 2.5L15.002 2.5L15.002 17.5H5.00195L5.00195 2.5Z" fill="#F7FCFF"/>
<path fill-rule="evenodd" clip-rule="evenodd" d="M9.98695 6.875L10.002 14.375H9.62695L9.85695 12.5188C8.1757 12.8213 7.40445 12.8963 7.54383 12.7438C7.68258 12.5913 7.79195 12.375 7.87195 12.095L5.62695 10.5969C5.8632 10.5944 6.07695 10.5356 6.26945 10.4213C6.46133 10.3069 6.36508 9.91125 5.98133 9.23375L7.11445 9.39875L7.54383 8.9325L8.39883 9.8275H8.7832L8.39883 7.7775L9.0882 8.16188L9.98695 6.875ZM9.98695 6.875L10.9157 8.1625L11.6051 7.77688L11.2207 9.8275H11.6051L12.4601 8.9325L12.8888 9.39875L14.0226 9.23375C13.6388 9.91125 13.5426 10.3069 13.7351 10.4213C13.927 10.5356 14.1413 10.5944 14.377 10.5969L12.1313 12.095C12.212 12.375 12.3213 12.5913 12.4601 12.7438C12.5995 12.8963 11.8282 12.8213 10.147 12.5188L10.3763 14.375H10.002L9.98695 6.875ZM15.002 2.5L20.002 2.5L20.002 17.5L15.002 17.5L15.002 2.5ZM0.00195312 2.5L5.00195 2.5L5.00195 17.5H0.00195312L0.00195312 2.5Z" fill="#E31D1C"/>
<g clip-path="url(#clip1_2563_63630)">
<path d="M10 17.5C14.1421 17.5 17.5 14.1421 17.5 10C17.5 5.85786 14.1421 2.5 10 2.5C5.85786 2.5 2.5 5.85786 2.5 10C2.5 14.1421 5.85786 17.5 10 17.5Z" fill="#F0F0F0"/>
<path d="M9.67188 9.9995H17.4979C17.4979 9.32257 17.4077 8.66679 17.2396 8.04297H9.67188V9.9995Z" fill="#D80027"/>
<path d="M9.67188 6.08544H16.3971C15.938 5.33626 15.351 4.67406 14.6666 4.12891H9.67188V6.08544Z" fill="#D80027"/>
<path d="M9.99871 17.4976C11.7638 17.4976 13.3862 16.8875 14.6673 15.8672H5.33008C6.61123 16.8875 8.2336 17.4976 9.99871 17.4976Z" fill="#D80027"/>
<path d="M3.60024 13.9097H16.3986C16.7672 13.3082 17.0531 12.6508 17.2411 11.9531H2.75781C2.94581 12.6508 3.23166 13.3082 3.60024 13.9097Z" fill="#D80027"/>
<path d="M5.97414 3.67123H6.65761L6.02187 4.1331L6.26471 4.88043L5.62899 4.41856L4.99328 4.88043L5.20305 4.23481C4.6433 4.70107 4.1527 5.24734 3.7484 5.85602H3.96739L3.56271 6.15001C3.49967 6.25519 3.4392 6.36203 3.38125 6.47046L3.57449 7.06522L3.21396 6.80327C3.12435 6.99314 3.04237 7.18729 2.96869 7.38549L3.18159 8.0408H3.96739L3.33165 8.50267L3.57449 9.25L2.93878 8.78814L2.55798 9.06481C2.51986 9.3712 2.5 9.68327 2.5 10H10C10 5.85789 10 5.36957 10 2.5C8.5184 2.5 7.13726 2.92979 5.97414 3.67123ZM6.26471 9.25L5.62899 8.78814L4.99328 9.25L5.23612 8.50267L4.60038 8.0408H5.38618L5.62899 7.29347L5.87181 8.0408H6.65761L6.02187 8.50267L6.26471 9.25ZM6.02187 6.31788L6.26471 7.06522L5.62899 6.60335L4.99328 7.06522L5.23612 6.31788L4.60038 5.85602H5.38618L5.62899 5.10868L5.87181 5.85602H6.65761L6.02187 6.31788ZM8.95492 9.25L8.31921 8.78814L7.6835 9.25L7.92634 8.50267L7.2906 8.0408H8.0764L8.31921 7.29347L8.56202 8.0408H9.34782L8.71208 8.50267L8.95492 9.25ZM8.71208 6.31788L8.95492 7.06522L8.31921 6.60335L7.6835 7.06522L7.92634 6.31788L7.2906 5.85602H8.0764L8.31921 5.10868L8.56202 5.85602H9.34782L8.71208 6.31788ZM8.71208 4.1331L8.95492 4.88043L8.31921 4.41856L7.6835 4.88043L7.92634 4.1331L7.2906 3.67123H8.0764L8.31921 2.9239L8.56202 3.67123H9.34782L8.71208 4.1331Z" fill="#0052B4"/>
</g>
</g>
<rect x="3.125" y="3.125" width="13.75" height="13.75" rx="6.875" stroke="#E8E5E1" stroke-width="1.25"/>
<defs>
<clipPath id="clip0_2563_63630">
<rect x="2.5" y="2.5" width="15" height="15" rx="7.5" fill="white"/>
</clipPath>
<clipPath id="clip1_2563_63630">
<rect width="15" height="15" fill="white" transform="translate(2.5 2.5)"/>
</clipPath>
</defs>
</svg>
