<svg width="24" height="24" viewBox="0 0 24 24" fill="none" xmlns="http://www.w3.org/2000/svg">
<path fill-rule="evenodd" clip-rule="evenodd" d="M8.00085 5.63948C6.07669 5.63948 4.51685 7.19932 4.51685 9.12348C4.51685 10.0474 4.88393 10.9337 5.53727 11.5871C5.53726 11.5871 5.53728 11.5871 5.53727 11.5871L12.0001 18.0498L18.4629 11.5871C19.1162 10.9337 19.4833 10.0475 19.4833 9.12356C19.4833 7.19931 17.9234 5.63948 15.9993 5.63948C15.0752 5.63948 14.1891 6.00651 13.5358 6.65984L12.0001 8.19559L10.4645 6.65991C10.4645 6.6599 10.4645 6.65992 10.4645 6.65991C9.81109 6.00652 8.92489 5.63948 8.00085 5.63948ZM3.01685 9.12348C3.01685 6.37089 5.24826 4.13948 8.00085 4.13948C9.32268 4.13948 10.5904 4.66451 11.5252 5.59925L12.0001 6.07423L12.4751 5.59918C13.4098 4.66451 14.6775 4.13948 15.9993 4.13948C18.7519 4.13948 20.9833 6.3709 20.9833 9.12356C20.9833 10.4453 20.4582 11.7131 19.5235 12.6477L12.0001 20.1712L4.47662 12.6478C3.542 11.7131 3.01685 10.4453 3.01685 9.12348Z" fill="#2B2A28"/>
</svg>
