<svg width="17" height="16" viewBox="0 0 17 16" fill="none" xmlns="http://www.w3.org/2000/svg">
<path fill-rule="evenodd" clip-rule="evenodd" d="M8.49984 3.29199C7.80364 3.29199 7.13596 3.56855 6.64368 4.06084C6.1514 4.55312 5.87484 5.2208 5.87484 5.91699L5.87484 6.45866L5.87484 6.95866L5.87484 10.5837H2.7915V6.45866H4.87484V5.91699C4.87484 4.95558 5.25676 4.03355 5.93657 3.35373C6.61639 2.67391 7.53843 2.29199 8.49984 2.29199C9.46125 2.29199 10.3833 2.67391 11.0631 3.35373C11.7429 4.03355 12.1248 4.95558 12.1248 5.91699V6.45866H14.2082V10.5837H12.076C11.9776 11.0826 11.7331 11.5455 11.3682 11.9104C11.0033 12.2752 10.5405 12.5197 10.0415 12.6182V13.4482H6.95817V10.8857H10.0415V11.586C10.2728 11.509 10.4855 11.3789 10.6611 11.2032C10.958 10.9063 11.1248 10.5036 11.1248 10.0837V6.45866V5.91699C11.1248 5.2208 10.8483 4.55312 10.356 4.06084C9.86371 3.56855 9.19603 3.29199 8.49984 3.29199ZM12.1248 9.58366V7.45866H13.2082V9.58366H12.1248ZM3.7915 9.58366V7.45866H4.87484V9.58366H3.7915ZM7.95817 12.4482V11.8857H9.0415V12.4482H7.95817Z" fill="#686765"/>
</svg>
