<svg width="24" height="24" viewBox="0 0 24 24" fill="none" xmlns="http://www.w3.org/2000/svg">
<path d="M17.4167 2H6.58333C5.36843 2.0022 4.20393 2.4858 3.34486 3.34486C2.4858 4.20393 2.0022 5.36843 2 6.58333L2 17.4167C2.0022 18.6316 2.4858 19.7961 3.34486 20.6551C4.20393 21.5142 5.36843 21.9978 6.58333 22H17.4167C18.6316 21.9978 19.7961 21.5142 20.6551 20.6551C21.5142 19.7961 21.9978 18.6316 22 17.4167V6.58333C21.9978 5.36843 21.5142 4.20393 20.6551 3.34486C19.7961 2.4858 18.6316 2.0022 17.4167 2ZM18.6667 15.3333C18.6667 16.2174 18.3155 17.0652 17.6904 17.6904C17.0652 18.3155 16.2174 18.6667 15.3333 18.6667H8.66667C7.78261 18.6667 6.93477 18.3155 6.30964 17.6904C5.68452 17.0652 5.33333 16.2174 5.33333 15.3333V8.66667C5.33333 7.78261 5.68452 6.93477 6.30964 6.30964C6.93477 5.68452 7.78261 5.33333 8.66667 5.33333H15.3333C16.2174 5.33333 17.0652 5.68452 17.6904 6.30964C18.3155 6.93477 18.6667 7.78261 18.6667 8.66667V15.3333Z" fill="#2B2A28"/>
<path d="M8.66675 12C8.66675 12.8841 9.01794 13.7319 9.64306 14.357C10.2682 14.9821 11.116 15.3333 12.0001 15.3333C12.8841 15.3333 13.732 14.9821 14.3571 14.357C14.9822 13.7319 15.3334 12.8841 15.3334 12C15.3334 11.116 14.9822 10.2681 14.3571 9.64298C13.732 9.01786 12.8841 8.66667 12.0001 8.66667C11.116 8.66667 10.2682 9.01786 9.64306 9.64298C9.01794 10.2681 8.66675 11.116 8.66675 12Z" fill="#2B2A28"/>
<path d="M15.3333 7.83333C15.3333 8.05435 15.421 8.26631 15.5773 8.42259C15.7336 8.57887 15.9456 8.66667 16.1666 8.66667C16.3876 8.66667 16.5996 8.57887 16.7558 8.42259C16.9121 8.26631 16.9999 8.05435 16.9999 7.83333C16.9999 7.61232 16.9121 7.40036 16.7558 7.24408C16.5996 7.0878 16.3876 7 16.1666 7C15.9456 7 15.7336 7.0878 15.5773 7.24408C15.421 7.40036 15.3333 7.61232 15.3333 7.83333Z" fill="#2B2A28"/>
</svg>
