<svg width="24" height="24" viewBox="0 0 24 24" fill="none" xmlns="http://www.w3.org/2000/svg">
<path fill-rule="evenodd" clip-rule="evenodd" d="M7.91592 4.24185H3.85986V8.29791H7.91592V4.24185ZM4.85986 7.29791V5.24185H6.91592V7.29791H4.85986ZM3.85986 9.97198H7.91592V20.1402H3.85986V9.97198ZM4.85986 10.972V19.1402H6.91592V10.972H4.85986ZM9.97192 9.97198H15.056C17.8639 9.97198 20.1401 12.2482 20.1401 15.0561V20.1402H16.084V15.8201C16.084 14.8303 15.2818 14.028 14.292 14.028H14.028V20.1402H9.97192V9.97198ZM10.9719 10.972V19.1402H13.028V13.028H14.292C15.834 13.028 17.084 14.2781 17.084 15.8201V19.1402H19.1401V15.0561C19.1401 12.8005 17.3116 10.972 15.056 10.972H10.9719Z" fill="#2B2A28"/>
</svg>
