<svg width="25" height="24" viewBox="0 0 25 24" fill="none" xmlns="http://www.w3.org/2000/svg">
<path fill-rule="evenodd" clip-rule="evenodd" d="M8.11465 4.2417H4.05859V8.29776H8.11465V4.2417ZM5.05859 7.29776V5.2417H7.11465V7.29776H5.05859ZM4.05859 9.97183H8.11465V20.14H4.05859V9.97183ZM5.05859 10.9718V19.14H7.11465V10.9718H5.05859ZM10.1707 9.97183H15.2547C18.0626 9.97183 20.3388 12.2481 20.3388 15.0559V20.14H16.2828V15.8199C16.2828 14.8302 15.4805 14.0279 14.4907 14.0279H14.2267V20.14H10.1707V9.97183ZM11.1707 10.9718V19.14H13.2267V13.0279H14.4907C16.0328 13.0279 17.2828 14.2779 17.2828 15.8199V19.14H19.3388V15.0559C19.3388 12.8003 17.5103 10.9718 15.2547 10.9718H11.1707Z" fill="#E8E5E1"/>
</svg>
