<svg width="24" height="24" viewBox="0 0 24 24" fill="none" xmlns="http://www.w3.org/2000/svg">
<path fill-rule="evenodd" clip-rule="evenodd" d="M8.11297 4.07413C9.71816 3.46101 11.4717 3.34972 13.1415 3.75499C14.8113 4.16027 16.3187 5.06301 17.4643 6.34375L16.3462 7.34375C15.4032 6.28944 14.1623 5.5463 12.7877 5.21268C11.4131 4.87905 9.9696 4.97066 8.6482 5.47539C7.3268 5.98012 6.1898 6.87417 5.38765 8.03925C4.5855 9.20432 4.15601 10.5855 4.15601 12C4.15601 13.4145 4.5855 14.7957 5.38765 15.9608C6.1898 17.1258 7.3268 18.0199 8.6482 18.5246C9.9696 19.0293 11.4131 19.121 12.7877 18.7873C14.1623 18.4537 15.4032 17.7106 16.3462 16.6563L17.4643 17.6563C16.3187 18.937 14.8113 19.8397 13.1415 20.245C11.4717 20.6503 9.71816 20.539 8.11297 19.9259C6.50778 19.3127 5.12659 18.2267 4.15216 16.8114C3.17774 15.3961 2.65601 13.7183 2.65601 12C2.65601 10.2817 3.17774 8.6039 4.15216 7.18861C5.12659 5.77332 6.50778 4.68726 8.11297 4.07413ZM18.7831 12.75L16.626 14.9072L17.6866 15.9678L21.6545 12L17.6866 8.03217L16.626 9.09283L18.7831 11.25H8.5625V12.75H18.7831Z" fill="#2B2A28"/>
</svg>
