<svg width="166" height="31" viewBox="0 0 166 31" fill="none" xmlns="http://www.w3.org/2000/svg">
<g clip-path="url(#clip0_998_50562)">
<path d="M48.363 10.016H49.4653V1.03432H48.363V10.0182V10.016ZM56.0392 1.00781V4.67028H50.0706V5.81453H56.0348V10.0027H57.1879V1.00781H56.0392Z" fill="#223368"/>
<path d="M67.8418 9.86578C67.8594 9.89891 67.886 9.9453 67.9191 10.0072H66.6224L65.9862 8.73478L65.3655 7.44916H60.7532C60.5544 7.86887 60.3467 8.29741 60.1325 8.73478C59.9182 9.17216 59.7172 9.58303 59.5095 10.0204H58.2615L58.3388 9.86578C58.6149 9.30028 58.8999 8.71711 59.1937 8.11848C59.4698 7.54415 59.7547 6.96098 60.0485 6.37119H64.8442C64.5924 5.84987 64.3383 5.32635 64.0777 4.80282L63.3134 3.24771C63.2626 3.14389 63.214 3.05332 63.172 2.976C63.13 2.89869 63.0881 2.80812 63.0549 2.73302C63.0461 2.75069 63.0328 2.78161 63.0152 2.82358C62.9798 2.89206 62.9445 2.96496 62.9114 3.04227C62.8871 3.10633 62.8561 3.16597 62.8186 3.2212C62.6021 3.67625 62.39 4.11804 62.1824 4.54658L61.586 5.76593H60.3423L61.4954 3.41338C61.8776 2.64024 62.273 1.83618 62.6794 1.00781H63.4702C64.2831 2.66012 65.0077 4.13129 65.6438 5.4147L67.8374 9.86578" fill="#223368"/>
<path d="M76.6577 1.00781H77.7975V10.016H77.1437L70.2937 3.30735V1.75444L76.6665 8.05221C76.6577 7.93956 76.6555 7.82911 76.6555 7.71866V1.00781H76.6577ZM68.595 1.00781H69.2555L69.684 1.40543V10.0027H68.595V1.00781Z" fill="#223368"/>
<path d="M86.6908 1.95988H83.9296V1.00781H86.6908V1.95767V1.95988ZM78.7319 1.00781H83.3288V10.016H82.158V1.95988H78.7319V1.00781Z" fill="#223368"/>
<path d="M89.6796 6.54791H92.7125V5.62235H89.6796V6.54791ZM87.897 1.00781V10.016H93.2449V9.06392H89.0655V1.95988H93.1101V1.00781H87.897Z" fill="#223368"/>
<path d="M95.635 4.11465C95.5488 4.32671 95.4803 4.54539 95.4273 4.77071C95.3831 5.01149 95.361 5.25668 95.3633 5.50188C95.361 5.9746 95.4671 6.44069 95.6725 6.86481C95.7785 7.08129 95.9089 7.28452 96.0613 7.47007C96.2225 7.67329 96.4059 7.85885 96.6069 8.02231C96.8079 8.19903 97.0244 8.35366 97.2563 8.4862C97.4861 8.61432 97.7246 8.72476 97.9676 8.81975C98.2261 8.9059 98.4889 8.96996 98.7584 9.01414C99.0412 9.05832 99.3284 9.08041 99.6133 9.0782C99.9226 9.0782 100.227 9.06495 100.521 9.03844C100.802 9.01414 101.08 8.97659 101.356 8.92136C101.394 8.91032 101.433 8.90148 101.473 8.89706V9.84692C101.447 9.84692 101.42 9.85355 101.396 9.86017C101.374 9.86017 101.352 9.86459 101.332 9.87122H101.279C101.131 9.88889 100.994 9.91098 100.864 9.93528C100.709 9.95295 100.565 9.9662 100.435 9.97504C100.305 9.98388 100.157 10.006 100.02 10.0148H99.6177C99.2577 10.0148 98.8998 9.9905 98.542 9.93749C98.2018 9.88668 97.8682 9.80716 97.5435 9.69671C97.2276 9.58847 96.9206 9.45372 96.629 9.29026C96.3352 9.12459 96.0547 8.93682 95.794 8.72476C95.54 8.52375 95.3102 8.29622 95.107 8.0444C94.9082 7.80583 94.7337 7.54517 94.5879 7.27126C94.4598 6.99956 94.3604 6.7146 94.2919 6.42081C94.2212 6.11818 94.1859 5.80672 94.1881 5.49525C94.1881 5.19262 94.2168 4.8922 94.2786 4.5962C94.3383 4.31124 94.4244 4.0307 94.5371 3.76121C94.6498 3.48951 94.8 3.23106 94.9789 2.99691C95.1622 2.75392 95.3655 2.5264 95.5864 2.31655C95.8161 2.09786 96.0701 1.90347 96.3396 1.7378C96.6069 1.57433 96.8919 1.43958 97.1879 1.33576C97.4794 1.2209 97.7843 1.14137 98.0957 1.09719C98.4227 1.0486 98.7496 1.0243 99.0809 1.0243V1C99.4741 1 99.8696 1.01988 100.261 1.06406C100.632 1.09719 101.007 1.14358 101.389 1.20543C101.414 1.21648 101.44 1.2209 101.467 1.21869V2.16854C101.427 2.16854 101.389 2.16192 101.35 2.15529C100.976 2.08681 100.605 2.03601 100.234 2.00066C99.885 1.95869 99.536 1.9366 99.1848 1.9366C98.659 1.92998 98.1377 2.01613 97.6429 2.19505C96.9648 2.45571 96.3772 2.91297 95.9575 3.50718C95.8316 3.69936 95.7233 3.90038 95.6327 4.11244" fill="#223368"/>
<path d="M89.4543 16.3111C89.3681 16.5232 89.2997 16.7441 89.2467 16.9672C89.2003 17.2102 89.1782 17.4554 89.1782 17.7028C89.1782 17.9414 89.2047 18.1777 89.2555 18.4097C89.3085 18.635 89.3858 18.8559 89.4874 19.0657C89.5913 19.2822 89.7216 19.4832 89.874 19.6688C90.0353 19.872 90.2186 20.0576 90.4196 20.221C90.6206 20.3955 90.8371 20.5524 91.0691 20.6849C91.2988 20.8108 91.5374 20.9235 91.7803 21.0185C92.0388 21.1046 92.3039 21.1687 92.5734 21.2128C92.8561 21.257 93.1411 21.2769 93.4282 21.2769C93.7375 21.2769 94.0423 21.2637 94.3361 21.2371C94.6167 21.2128 94.895 21.1731 95.1711 21.1201C95.2087 21.109 95.2484 21.1002 95.2882 21.0958V22.0456C95.2617 22.0456 95.2352 22.05 95.2109 22.0567C95.1888 22.0567 95.1667 22.0633 95.1468 22.0699H95.096C94.948 22.0876 94.811 22.1097 94.6807 22.134C94.5261 22.1517 94.3825 22.1649 94.2522 22.1737C94.1219 22.1826 93.9738 22.2047 93.8369 22.2135H93.4349C93.0748 22.2135 92.7169 22.1892 92.3591 22.1362C91.6898 22.039 91.0426 21.8225 90.4528 21.4956C90.159 21.3299 89.8784 21.1422 89.6178 20.9301C89.3637 20.7291 89.1318 20.5016 88.9286 20.2475C88.5221 19.7859 88.2416 19.2292 88.1135 18.6284C88.0428 18.3235 88.0074 18.012 88.0118 17.7006C88.0118 17.398 88.0406 17.0953 88.1024 16.7993C88.1621 16.5122 88.2482 16.2338 88.3609 15.9643C88.4735 15.6904 88.6237 15.4342 88.8027 15.1978C88.986 14.9548 89.1892 14.7273 89.4101 14.5175C89.6399 14.2988 89.8917 14.1044 90.1612 13.9387C90.4307 13.773 90.7178 13.6383 91.0183 13.5367C91.3098 13.424 91.6147 13.3423 91.9261 13.2981C92.2531 13.2517 92.58 13.2274 92.9113 13.2274V13.2031C93.3045 13.2031 93.6999 13.223 94.0909 13.2672C94.462 13.3025 94.8376 13.3489 95.2197 13.4086C95.244 13.4174 95.2705 13.4218 95.297 13.4196V14.3717C95.2573 14.3717 95.2197 14.3673 95.1799 14.3606C94.8066 14.2921 94.4355 14.2413 94.0644 14.206C93.7154 14.164 93.3642 14.1441 93.013 14.1419C92.4872 14.1331 91.9637 14.2215 91.4711 14.4004C90.7907 14.6588 90.2009 15.1161 89.779 15.7103C89.6531 15.9003 89.5449 16.1035 89.4543 16.3134" fill="#223368"/>
<path d="M66.6158 19.4927V16.5459C66.6158 16.5459 66.7262 14.686 68.8027 13.2656H65.8669" fill="#FF3F32"/>
<path d="M50.1258 17.6538H53.5188V16.7172H50.1258V17.6538ZM48.363 13.2734V22.2131H49.5117V14.2189H53.9495V13.2734H48.363Z" fill="#223368"/>
<path d="M56.2602 13.2578H55.1248V22.2086H56.2602V13.2578Z" fill="#223368"/>
<path d="M57.6892 13.2578H58.3386L58.7606 13.6532V22.1975H57.6892V13.26V13.2578ZM65.6238 13.2578H66.746V22.2063H66.1142L59.3614 15.5419V13.9978L65.6371 20.2536C65.6371 20.1432 65.6238 20.0327 65.6238 19.9201V13.2578Z" fill="#223368"/>
<path d="M76.8608 22.0639C76.8785 22.0971 76.905 22.1435 76.9381 22.2053H75.6635L75.0384 20.9418L74.4265 19.665H69.8827C69.6861 20.0803 69.4829 20.5066 69.2708 20.9418C69.0676 21.3571 68.8621 21.7834 68.6589 22.2186H67.4197L67.497 22.0639C67.7687 21.5029 68.047 20.9241 68.332 20.3277C68.6037 19.7578 68.882 19.179 69.167 18.5914H73.9008C73.6534 18.0723 73.4016 17.5532 73.1475 17.0341L72.3965 15.4878C72.3457 15.3862 72.2971 15.2979 72.2551 15.2206C72.2131 15.1432 72.1734 15.0527 72.138 14.9776C72.1292 14.9952 72.1182 15.024 72.0983 15.0659C72.0651 15.1344 72.032 15.2073 71.9967 15.2824C71.9746 15.3443 71.9436 15.4061 71.9083 15.4613C71.6962 15.912 71.4886 16.3516 71.2832 16.7779L70.6956 17.9906H69.4696L70.605 15.6513C70.9872 14.8848 71.3781 14.0896 71.7758 13.2656H72.5533C73.353 14.9069 74.0665 16.367 74.696 17.646C75.4338 19.1658 76.1539 20.6392 76.8542 22.0662" fill="#223368"/>
<path d="M77.614 13.2578H78.2635L78.6854 13.6532V22.1975H77.614V13.26V13.2578ZM85.5486 13.2578H86.6708V22.2063H86.0324L79.2862 15.5419V13.9978L85.5619 20.2536C85.553 20.1432 85.5486 20.0327 85.5486 19.9201V13.2578Z" fill="#223368"/>
<path d="M112.173 22.2113H116.421V21.2261H112.173V22.2113ZM111.555 13.2031H110.411V22.198H111.555V13.2031ZM106.892 17.61C106.249 16.3244 105.516 14.8554 104.692 13.2053H103.885C103.474 14.0359 103.072 14.8356 102.677 15.6087L101.506 17.9612H102.77L103.384 16.7375C103.594 16.3089 103.81 15.8671 104.027 15.4143C104.064 15.3591 104.095 15.2994 104.119 15.2354C104.155 15.1581 104.19 15.0852 104.225 15.0167C104.261 14.9482 104.256 14.9438 104.265 14.9261C104.301 15.0034 104.338 15.0852 104.385 15.1691C104.431 15.253 104.477 15.337 104.528 15.4408L105.301 16.9959C105.564 17.5194 105.823 18.0408 106.074 18.5643H101.212C100.914 19.1563 100.625 19.7395 100.344 20.3116L99.4718 22.0655L99.3945 22.2201H100.669C100.879 21.7805 101.091 21.352 101.301 20.9345C101.519 20.4971 101.729 20.0686 101.93 19.6489H106.609L107.241 20.9345L107.884 22.2069H109.2C109.165 22.1472 109.138 22.1009 109.123 22.0655C108.403 20.6341 107.663 19.1519 106.901 17.6189M97.011 22.2179H98.1817V13.2053H97.011V22.2179Z" fill="#223368"/>
<path d="M20.5367 9.91406C19.6045 9.91406 18.5398 10.6695 18.1576 11.6017L14.6299 20.2079C14.2478 21.14 14.694 21.8955 15.6262 21.8955H20.3467C21.2789 21.8955 22.3436 21.14 22.7258 20.2079L26.2535 11.6017C26.6357 10.6695 26.1895 9.91406 25.2573 9.91406H20.5367Z" fill="#FF3F32"/>
<path d="M39.7526 0.90625H35.0011C34.069 0.90625 33.002 1.66172 32.6199 2.5939L22.6398 26.8351C21.7098 29.0839 19.8542 30.9062 19.8542 30.9062H27.4089C28.3411 30.9062 29.408 30.1508 29.7902 29.2186L40.7445 2.5939C41.1288 1.66172 40.6826 0.90625 39.7526 0.90625Z" fill="#FF3F32"/>
<path d="M1.13061 30.9062H5.88211C6.81429 30.9062 7.88122 30.1508 8.26337 29.2186L18.2435 4.97738C19.1757 2.72865 21.0312 0.90625 21.0312 0.90625H13.4765C12.5444 0.90625 11.4774 1.66172 11.0953 2.5939L0.136578 29.2186C-0.247782 30.1508 0.198429 30.9062 1.12841 30.9062" fill="#FF3F32"/>
<path d="M51.4975 28.294C51.4975 29.1334 50.9386 29.679 50.181 29.679C49.8275 29.679 49.5249 29.5531 49.3217 29.2946V29.6437H48.7429V25.8906H49.3504V27.2712C49.558 27.0282 49.8496 26.9112 50.181 26.9112C50.9386 26.9112 51.4975 27.4524 51.4975 28.2918V28.294ZM50.8812 28.294C50.8812 27.7793 50.5521 27.4502 50.1147 27.4502C49.6773 27.4502 49.3438 27.7793 49.3438 28.294C49.3438 28.8087 49.6795 29.1378 50.1147 29.1378C50.5499 29.1378 50.8812 28.8087 50.8812 28.294Z" fill="#999999"/>
<path d="M54.4795 26.9453L53.2668 29.8634C53.0282 30.4752 52.6991 30.663 52.2661 30.663C52.0099 30.663 51.736 30.5724 51.5725 30.4156L51.8155 29.9495C51.9326 30.0666 52.096 30.1373 52.2617 30.1373C52.476 30.1373 52.6019 30.0312 52.719 29.7617L52.7631 29.6557L51.6322 26.9453H52.2639L53.079 28.9422L53.8986 26.9453H54.4817H54.4795Z" fill="#999999"/>
<path d="M58.5905 26.1016V29.6425H57.9587V28.125H56.2004V29.6425H55.5686V26.1016H56.2004V27.5639H57.9587V26.1016H58.5905Z" fill="#FF3F32"/>
<path d="M61.6655 28.0605V29.6443H61.0934V29.3152C60.9476 29.5472 60.6671 29.6797 60.2783 29.6797C59.6863 29.6797 59.313 29.3417 59.313 28.8712C59.313 28.4007 59.6046 28.0671 60.391 28.0671H61.0603V28.0274C61.0603 27.6585 60.846 27.4398 60.4153 27.4398C60.1237 27.4398 59.8233 27.5414 59.6289 27.7071L59.3903 27.2476C59.6664 27.0245 60.0707 26.9141 60.4882 26.9141C61.2348 26.9141 61.6677 27.283 61.6677 28.0627L61.6655 28.0605ZM61.0581 28.8005V28.4868H60.4307C60.0176 28.4868 59.9072 28.6481 59.9072 28.8469C59.9072 29.0744 60.0928 29.2202 60.402 29.2202C60.7113 29.2202 60.9565 29.0789 61.0581 28.8005Z" fill="#FF3F32"/>
<path d="M65.045 28.0981V29.6466H64.4376V28.1798C64.4376 27.7005 64.21 27.4663 63.8213 27.4663C63.3883 27.4663 63.0989 27.7402 63.0989 28.2814V29.6466H62.4915V26.945H63.0702V27.294C63.269 27.0466 63.5849 26.9141 63.9626 26.9141C64.5833 26.9141 65.045 27.283 65.045 28.0981Z" fill="#FF3F32"/>
<path d="M67.4241 29.5016C67.2784 29.623 67.0597 29.6827 66.841 29.6827C66.2733 29.6827 65.9485 29.369 65.9485 28.7726V27.4737H65.5222V26.9679H65.9485V26.3516H66.556V26.9679H67.2496V27.4737H66.556V28.7593C66.556 29.0222 66.6819 29.1636 66.9161 29.1636C67.042 29.1636 67.1635 29.1282 67.2563 29.0509L67.4263 29.5016H67.4241Z" fill="#FF3F32"/>
<path d="M70.3136 28.4979H68.2791C68.352 28.8933 68.6679 29.1451 69.1185 29.1451C69.4101 29.1451 69.6376 29.0479 69.8232 28.8513L70.1479 29.2401C69.9159 29.5295 69.5515 29.6797 69.103 29.6797C68.2349 29.6797 67.6716 29.0987 67.6716 28.2947C67.6716 27.4906 68.2393 26.9141 69.0125 26.9141C69.7856 26.9141 70.3224 27.4663 70.3224 28.3101C70.3224 28.3609 70.318 28.436 70.3136 28.4979ZM68.2725 28.0782H69.7436C69.695 27.6894 69.4079 27.4199 69.0103 27.4199C68.6127 27.4199 68.3299 27.6828 68.2725 28.0782Z" fill="#FF3F32"/>
<path d="M70.7397 28.2947C70.7397 27.4862 71.3229 26.9141 72.1424 26.9141C72.6483 26.9141 73.0503 27.1305 73.2491 27.5414L72.783 27.8242C72.6284 27.5657 72.3943 27.4508 72.138 27.4508C71.6918 27.4508 71.3516 27.7756 71.3516 28.2947C71.3516 28.8138 71.6918 29.1385 72.138 29.1385C72.3965 29.1385 72.6284 29.0214 72.783 28.7652L73.2491 29.0479C73.0503 29.4522 72.6461 29.6797 72.1424 29.6797C71.3229 29.6797 70.7397 29.1032 70.7397 28.2947Z" fill="#FF3F32"/>
<path d="M77.592 27.8329H78.1884V29.2444C77.8349 29.5426 77.3379 29.6951 76.8586 29.6951C75.8049 29.6951 75.0273 28.9308 75.0273 27.8749C75.0273 26.819 75.8049 26.0547 76.8674 26.0547C77.4351 26.0547 77.9123 26.2513 78.2326 26.6312L77.8349 27.0355C77.5677 26.7571 77.2628 26.6312 76.8983 26.6312C76.1738 26.6312 75.6657 27.1415 75.6657 27.8749C75.6657 28.6083 76.176 29.1185 76.8939 29.1185C77.1369 29.1185 77.3755 29.0677 77.5942 28.9374V27.8351L77.592 27.8329Z" fill="#FF3F32"/>
<path d="M80.5102 26.9141V27.5149C80.4571 27.5039 80.413 27.4994 80.3688 27.4994C79.9071 27.4994 79.6155 27.7822 79.6155 28.3344V29.6443H79.0081V26.9428H79.5868V27.3382C79.7613 27.0554 80.0772 26.9141 80.5102 26.9141Z" fill="#FF3F32"/>
<path d="M80.8347 28.2947C80.8347 27.4862 81.4179 26.9141 82.2131 26.9141C83.0083 26.9141 83.5959 27.4862 83.5959 28.2947C83.5959 29.1032 83.0172 29.6797 82.2131 29.6797C81.409 29.6797 80.8347 29.1032 80.8347 28.2947ZM82.9863 28.2947C82.9863 27.78 82.6571 27.4508 82.2153 27.4508C81.7735 27.4508 81.4488 27.78 81.4488 28.2947C81.4488 28.8094 81.7779 29.1385 82.2153 29.1385C82.6527 29.1385 82.9863 28.8094 82.9863 28.2947Z" fill="#FF3F32"/>
<path d="M86.7392 26.9453V29.6469H86.1605V29.3023C85.9661 29.5497 85.6613 29.6822 85.3255 29.6822C84.6606 29.6822 84.21 29.3023 84.21 28.4894V26.9475H84.8174V28.4032C84.8174 28.8936 85.0405 29.1256 85.4249 29.1256C85.8468 29.1256 86.134 28.8517 86.134 28.3105V26.9453H86.7414H86.7392Z" fill="#FF3F32"/>
<path d="M90.3378 28.2969C90.3378 29.1363 89.779 29.6819 89.0213 29.6819C88.6922 29.6819 88.4006 29.5648 88.1907 29.3174V30.6273H87.5833V26.945H88.162V27.2984C88.3652 27.04 88.6679 26.9141 89.0213 26.9141C89.779 26.9141 90.3378 27.4597 90.3378 28.2947V28.2969ZM89.7193 28.2969C89.7193 27.7822 89.3902 27.453 88.9528 27.453C88.5154 27.453 88.1819 27.7822 88.1819 28.2969C88.1819 28.8116 88.5176 29.1407 88.9528 29.1407C89.388 29.1407 89.7193 28.8116 89.7193 28.2969Z" fill="#FF3F32"/>
</g>
<defs>
<clipPath id="clip0_998_50562">
<rect width="116.421" height="30" fill="white" transform="translate(0 0.90625)"/>
</clipPath>
</defs>
</svg>
