<svg width="32" height="32" viewBox="0 0 32 32" fill="none" xmlns="http://www.w3.org/2000/svg">
<path fill-rule="evenodd" clip-rule="evenodd" d="M16.388 4.17245C16.0815 4.54151 15.8347 4.83876 15.5887 5.13671C14.7389 6.16711 14.239 7.38098 13.7398 8.60054C11.851 13.2104 9.95444 17.8172 8.05785 22.424L8.05649 22.4273C7.52787 23.7114 6.99925 24.9954 6.4708 26.2795C6.13445 27.0965 5.33302 27.6313 4.43987 27.632C3.31418 27.6327 2.18849 27.6327 1.0628 27.632C0.114891 27.6313 -0.219331 27.1371 0.142624 26.2453C0.642087 25.0143 1.14793 23.7862 1.65391 22.5578L1.65393 22.5578C1.80205 22.1982 1.95019 21.8385 2.09818 21.4788C2.67355 20.0805 3.24952 18.6825 3.8255 17.2845L3.82568 17.2841C5.41943 13.4157 7.0133 9.54696 8.59489 5.67289C8.922 4.87218 9.73622 4.13049 10.8541 4.16107C12.0298 4.1934 13.2069 4.18607 14.384 4.17875C14.8899 4.1756 15.3958 4.17245 15.9016 4.17245H16.388ZM15.5868 27.6331L15.5886 27.631H16.076H21.0887C22.2741 27.631 22.9319 27.1972 23.3856 26.0964C24.6142 23.1157 25.8411 20.1344 27.068 17.153L27.0696 17.1492L28.5937 13.4457C28.8398 12.8479 29.0861 12.2501 29.3323 11.6524L29.3325 11.6518C30.1734 9.61046 31.0143 7.5692 31.8492 5.52539C32.1941 4.68201 31.8478 4.17499 30.9454 4.17286C29.819 4.17072 28.6933 4.17072 27.5676 4.17286C26.5834 4.17499 25.9107 4.65712 25.5082 5.53464C25.4019 5.76653 25.3074 6.00391 25.213 6.24134L25.213 6.2414C25.1673 6.35635 25.1215 6.4713 25.0745 6.58566C24.4304 8.15074 23.7858 9.71558 23.1413 11.2804L23.1399 11.2839L23.1394 11.2851C21.5517 15.14 19.9641 18.9947 18.3829 22.8523L18.2967 23.0629L18.2967 23.0629C17.7508 24.3981 17.2063 25.7298 16.251 26.8445C16.1058 27.0139 15.9624 27.185 15.7993 27.3798L15.799 27.3801C15.7326 27.4594 15.663 27.5425 15.5886 27.631H15.5882L15.5868 27.6331ZM13.5388 20.5868C13.7165 20.5862 13.8942 20.5856 14.0719 20.5856C14.2537 20.5856 14.4355 20.5854 14.6173 20.5851C14.9806 20.5847 15.3436 20.5842 15.7067 20.5856C16.6895 20.5892 17.3992 20.1298 17.7739 19.2416C18.6986 17.052 19.5937 14.8487 20.4883 12.6465L20.5309 12.5415C20.8516 11.7508 20.4875 11.2338 19.6349 11.2324C19.5391 11.2323 19.4433 11.2321 19.3475 11.232C18.2943 11.2306 17.2415 11.2293 16.1881 11.2345C15.2772 11.2388 14.596 11.6754 14.2489 12.4903C13.2833 14.7552 12.3602 17.0379 11.4379 19.3213C11.1407 20.058 11.5062 20.5728 12.2955 20.5835C12.7097 20.5895 13.1242 20.5881 13.5388 20.5868Z" fill="#FF5247"/>
</svg>
