<svg width="24" height="24" viewBox="0 0 24 24" fill="none" xmlns="http://www.w3.org/2000/svg">
<path fill-rule="evenodd" clip-rule="evenodd" d="M8.83779 7.38975C8.83779 5.72254 10.1893 4.371 11.8565 4.371C13.5237 4.371 14.8753 5.72254 14.8753 7.38975C14.8753 9.05695 13.5237 10.4085 11.8565 10.4085C10.1893 10.4085 8.83779 9.05695 8.83779 7.38975ZM11.8565 2.771C9.30568 2.771 7.23779 4.83888 7.23779 7.38975C7.23779 9.94061 9.30568 12.0085 11.8565 12.0085C14.4074 12.0085 16.4753 9.94061 16.4753 7.38975C16.4753 4.83888 14.4074 2.771 11.8565 2.771ZM11.8565 13.0816C9.0658 13.0816 6.95412 13.6802 5.52682 14.2919C4.81416 14.5973 4.27381 14.9053 3.90571 15.1419C3.72165 15.2602 3.58056 15.3608 3.48241 15.4344C3.43333 15.4712 3.39497 15.5013 3.36732 15.5235C3.3535 15.5346 3.34235 15.5438 3.33388 15.5508L3.32317 15.5598L3.31932 15.563L3.31777 15.5643L3.31648 15.5654L3.83711 16.1729C3.32064 15.5703 3.3162 15.5658 3.31647 15.5655L3.03711 15.8049V20.4097H20.6759V15.8049L20.3965 15.5654L19.8759 16.1729C20.3965 15.5654 20.3955 15.5646 20.3952 15.5643L20.3936 15.563L20.3898 15.5598L20.3791 15.5508C20.3751 15.5475 20.3705 15.5437 20.3653 15.5394C20.3595 15.5347 20.3529 15.5294 20.3456 15.5235C20.318 15.5013 20.2796 15.4712 20.2306 15.4344C20.1324 15.3608 19.9913 15.2602 19.8073 15.1419C19.4392 14.9053 18.8988 14.5973 18.1862 14.2919C16.7588 13.6802 14.6472 13.0816 11.8565 13.0816ZM4.77093 16.4878C4.72201 16.5192 4.67741 16.5488 4.63711 16.5761V18.8097H19.0759V16.5761C19.0356 16.5488 18.991 16.5192 18.942 16.4878C18.6419 16.2948 18.1798 16.0299 17.5559 15.7625C16.3101 15.2286 14.4121 14.6816 11.8565 14.6816C9.30092 14.6816 7.40291 15.2286 6.15709 15.7625C5.53318 16.0299 5.07111 16.2948 4.77093 16.4878Z" fill="#2B2A28"/>
</svg>
