<svg width="24" height="24" viewBox="0 0 24 24" fill="none" xmlns="http://www.w3.org/2000/svg">
<path fill-rule="evenodd" clip-rule="evenodd" d="M11.25 5V5.03201V5.06396V5.09586V5.1277V5.15949V5.19123V5.22291V5.25454V5.28612V5.31764V5.34911V5.38053V5.41189V5.4432V5.47446V5.50567V5.53683V5.56794V5.59899V5.62999V5.66095V5.69185V5.7227V5.75351V5.78426V5.81496V5.84562V5.87622V5.90678V5.93728V5.96774V5.99815V6.02851V6.05883V6.08909V6.11931V6.14948V6.17961V6.20969V6.23972V6.2697V6.29964V6.32953V6.35938V6.38918V6.41894V6.44865V6.47831V6.50793V6.53751V6.56704V6.59653V6.62598V6.65538V6.68474V6.71405V6.74332V6.77255V6.80174V6.83088V6.85998V6.88905V6.91806V6.94704V6.97598V7.00487V7.03373V7.06254V7.09131V7.12004V7.14874V7.17739V7.206V7.23458V7.26311V7.29161V7.32007V7.34849V7.37687V7.40521V7.43352V7.46179V7.49002V7.51821V7.54637V7.57448V7.60257V7.63061V7.65863V7.6866V7.71454V7.74244V7.77031V7.79815V7.82594V7.85371V7.88144V7.90913V7.93679V7.96442V7.99202V8.01958V8.04711V8.0746V8.10206V8.12949V8.15689V8.18426V8.21159V8.2389V8.26617V8.29341V8.32062V8.34779V8.37494V8.40206V8.42915V8.45621V8.48323V8.51023V8.5372V8.56414V8.59105V8.61794V8.64479V8.67162V8.69842V8.72519V8.75193V8.77865V8.80534V8.832V8.85864V8.88525V8.91183V8.93839V8.96492V8.99142V9.0179V9.04436V9.07079V9.0972V9.12358V9.14993V9.17627V9.20258V9.22886V9.25512V9.28136V9.30758V9.33377V9.35994V9.38609V9.41222V9.43832V9.4644V9.49047V9.51651V9.54252V9.56852V9.5945V9.62046V9.64639V9.67231V9.69821V9.72408V9.74994V9.77578V9.8016V9.8274V9.85319V9.87895V9.9047V9.93043V9.95614V9.98183V10.0075V10.0332V10.0588V10.0844V10.11V10.1356V10.1612V10.1868V10.2123V10.2379V10.2634V10.2889V10.3144V10.3398V10.3653V10.3907V10.4162V10.4416V10.467V10.4924V10.5178V10.5431V10.5685V10.5938V10.6192V10.6445V10.6698V10.6951V10.7204V10.7456V10.7709V10.7961V10.8214V10.8466V10.8718V10.897V10.9222V10.9474V10.9726V10.9978V11.023V11.0481V11.0733V11.0984V11.1235V11.1487V11.1738V11.1989V11.224V11.2491V11.25H5V12.75H11.25V12.7509V12.776V12.8011V12.8262V12.8513V12.8765V12.9016V12.9267V12.9519V12.977V13.0022V13.0274V13.0526V13.0778V13.103V13.1282V13.1534V13.1786V13.2039V13.2291V13.2544V13.2796V13.3049V13.3302V13.3555V13.3808V13.4062V13.4315V13.4569V13.4822V13.5076V13.533V13.5584V13.5838V13.6093V13.6347V13.6602V13.6856V13.7111V13.7366V13.7621V13.7877V13.8132V13.8388V13.8644V13.89V13.9156V13.9412V13.9668V13.9925V14.0182V14.0439V14.0696V14.0953V14.121V14.1468V14.1726V14.1984V14.2242V14.2501V14.2759V14.3018V14.3277V14.3536V14.3795V14.4055V14.4315V14.4575V14.4835V14.5095V14.5356V14.5617V14.5878V14.6139V14.6401V14.6662V14.6924V14.7186V14.7449V14.7711V14.7974V14.8237V14.8501V14.8764V14.9028V14.9292V14.9556V14.9821V15.0086V15.0351V15.0616V15.0882V15.1148V15.1414V15.168V15.1947V15.2214V15.2481V15.2748V15.3016V15.3284V15.3552V15.3821V15.4089V15.4359V15.4628V15.4898V15.5168V15.5438V15.5709V15.5979V15.6251V15.6522V15.6794V15.7066V15.7338V15.7611V15.7884V15.8157V15.8431V15.8705V15.8979V15.9254V15.9529V15.9804V16.008V16.0356V16.0632V16.0909V16.1186V16.1463V16.1741V16.2019V16.2297V16.2576V16.2855V16.3134V16.3414V16.3694V16.3974V16.4255V16.4536V16.4818V16.51V16.5382V16.5665V16.5948V16.6231V16.6515V16.6799V16.7084V16.7369V16.7654V16.794V16.8226V16.8513V16.88V16.9087V16.9375V16.9663V16.9951V17.024V17.053V17.0819V17.111V17.14V17.1691V17.1983V17.2274V17.2567V17.2859V17.3153V17.3446V17.374V17.4035V17.433V17.4625V17.4921V17.5217V17.5514V17.5811V17.6108V17.6406V17.6705V17.7004V17.7303V17.7603V17.7903V17.8204V17.8505V17.8807V17.9109V17.9412V17.9715V18.0018V18.0323V18.0627V18.0932V18.1238V18.1544V18.185V18.2157V18.2465V18.2773V18.3081V18.3391V18.37V18.401V18.4321V18.4632V18.4943V18.5255V18.5568V18.5881V18.6195V18.6509V18.6824V18.7139V18.7455V18.7771V18.8088V18.8405V18.8723V18.9041V18.936V18.968V19H12.75V18.968V18.936V18.9041V18.8723V18.8405V18.8088V18.7771V18.7455V18.7139V18.6824V18.6509V18.6195V18.5881V18.5568V18.5255V18.4943V18.4632V18.4321V18.401V18.37V18.3391V18.3081V18.2773V18.2465V18.2157V18.185V18.1544V18.1238V18.0932V18.0627V18.0323V18.0018V17.9715V17.9412V17.9109V17.8807V17.8505V17.8204V17.7903V17.7603V17.7303V17.7004V17.6705V17.6406V17.6108V17.5811V17.5514V17.5217V17.4921V17.4625V17.433V17.4035V17.374V17.3446V17.3153V17.2859V17.2567V17.2274V17.1983V17.1691V17.14V17.111V17.0819V17.053V17.024V16.9951V16.9663V16.9375V16.9087V16.88V16.8513V16.8226V16.794V16.7654V16.7369V16.7084V16.6799V16.6515V16.6231V16.5948V16.5665V16.5382V16.51V16.4818V16.4536V16.4255V16.3974V16.3694V16.3414V16.3134V16.2855V16.2576V16.2297V16.2019V16.1741V16.1463V16.1186V16.0909V16.0632V16.0356V16.008V15.9804V15.9529V15.9254V15.8979V15.8705V15.8431V15.8157V15.7884V15.7611V15.7338V15.7066V15.6794V15.6522V15.6251V15.5979V15.5709V15.5438V15.5168V15.4898V15.4628V15.4359V15.4089V15.3821V15.3552V15.3284V15.3016V15.2748V15.2481V15.2214V15.1947V15.168V15.1414V15.1148V15.0882V15.0616V15.0351V15.0086V14.9821V14.9556V14.9292V14.9028V14.8764V14.8501V14.8237V14.7974V14.7711V14.7449V14.7186V14.6924V14.6662V14.6401V14.6139V14.5878V14.5617V14.5356V14.5095V14.4835V14.4575V14.4315V14.4055V14.3795V14.3536V14.3277V14.3018V14.2759V14.2501V14.2242V14.1984V14.1726V14.1468V14.121V14.0953V14.0696V14.0439V14.0182V13.9925V13.9668V13.9412V13.9156V13.89V13.8644V13.8388V13.8132V13.7877V13.7621V13.7366V13.7111V13.6856V13.6602V13.6347V13.6093V13.5838V13.5584V13.533V13.5076V13.4822V13.4569V13.4315V13.4062V13.3808V13.3555V13.3302V13.3049V13.2796V13.2544V13.2291V13.2039V13.1786V13.1534V13.1282V13.103V13.0778V13.0526V13.0274V13.0022V12.977V12.9519V12.9267V12.9016V12.8765V12.8513V12.8262V12.8011V12.776V12.7509V12.75H19V11.25H12.75V11.2491V11.224V11.1989V11.1738V11.1487V11.1235V11.0984V11.0733V11.0481V11.023V10.9978V10.9726V10.9474V10.9222V10.897V10.8718V10.8466V10.8214V10.7961V10.7709V10.7456V10.7204V10.6951V10.6698V10.6445V10.6192V10.5938V10.5685V10.5431V10.5178V10.4924V10.467V10.4416V10.4162V10.3907V10.3653V10.3398V10.3144V10.2889V10.2634V10.2379V10.2123V10.1868V10.1612V10.1356V10.11V10.0844V10.0588V10.0332V10.0075V9.98183V9.95614V9.93043V9.9047V9.87895V9.85319V9.8274V9.8016V9.77578V9.74994V9.72408V9.69821V9.67231V9.64639V9.62046V9.5945V9.56852V9.54252V9.51651V9.49047V9.4644V9.43832V9.41222V9.38609V9.35994V9.33377V9.30758V9.28136V9.25512V9.22886V9.20258V9.17627V9.14993V9.12358V9.0972V9.07079V9.04436V9.0179V8.99142V8.96492V8.93839V8.91183V8.88525V8.85864V8.832V8.80534V8.77865V8.75193V8.72519V8.69842V8.67162V8.64479V8.61794V8.59105V8.56414V8.5372V8.51023V8.48323V8.45621V8.42915V8.40206V8.37494V8.34779V8.32062V8.29341V8.26617V8.2389V8.21159V8.18426V8.15689V8.12949V8.10206V8.0746V8.04711V8.01958V7.99202V7.96442V7.93679V7.90913V7.88144V7.85371V7.82594V7.79815V7.77031V7.74244V7.71454V7.6866V7.65863V7.63061V7.60257V7.57448V7.54637V7.51821V7.49002V7.46179V7.43352V7.40521V7.37687V7.34849V7.32007V7.29161V7.26311V7.23458V7.206V7.17739V7.14874V7.12004V7.09131V7.06254V7.03373V7.00487V6.97598V6.94704V6.91806V6.88905V6.85998V6.83088V6.80174V6.77255V6.74332V6.71405V6.68474V6.65538V6.62598V6.59653V6.56704V6.53751V6.50793V6.47831V6.44865V6.41894V6.38918V6.35938V6.32953V6.29964V6.2697V6.23972V6.20969V6.17961V6.14948V6.11931V6.08909V6.05883V6.02851V5.99815V5.96774V5.93728V5.90678V5.87622V5.84562V5.81496V5.78426V5.75351V5.7227V5.69185V5.66095V5.62999V5.59899V5.56794V5.53683V5.50567V5.47446V5.4432V5.41189V5.38053V5.34911V5.31764V5.28612V5.25454V5.22291V5.19123V5.15949V5.1277V5.09586V5.06396V5.03201V5H11.25Z" fill="#2B2A28"/>
</svg>
