<svg width="33" height="32" viewBox="0 0 33 32" fill="none" xmlns="http://www.w3.org/2000/svg">
<path fill-rule="evenodd" clip-rule="evenodd" d="M16.5558 4.875C12.0233 4.875 7.61173 8.27584 5.7863 12.2921L9.16572 11.497L9.43371 12.6358L5.06335 13.6642C4.75498 13.7368 4.44489 13.5507 4.36383 13.2445L3.20801 8.87801L4.33905 8.57861L5.09286 11.4263C7.16967 7.31193 11.7407 3.875 16.5558 3.875C21.8075 3.875 26.2321 7.25799 27.9781 11.7974L28.1575 12.2641L27.2242 12.623L27.0447 12.1564C25.4369 7.97602 21.3654 4.875 16.5558 4.875ZM28.3233 18.4765C28.4382 18.5439 28.5215 18.6544 28.5547 18.7834L29.6853 23.1803L28.7168 23.4294L27.9724 20.5345C25.9855 24.7555 21.3736 28.1277 16.444 28.1277C11.1924 28.1277 6.7677 24.7447 5.02177 20.2053L4.84229 19.7387L5.77563 19.3797L5.95512 19.8464C7.56295 24.0267 11.6345 27.1277 16.444 27.1277C21.1307 27.1277 25.5761 23.7553 27.2768 19.6352L23.9141 20.5253L23.6582 19.5586L27.9425 18.4245C28.0713 18.3905 28.2083 18.4092 28.3233 18.4765ZM15.0435 18.4079V11.924H14.0435V18.9079C14.0435 19.1841 14.2673 19.4079 14.5435 19.4079H19.5151V18.4079H15.0435Z" fill="#2B2A28"/>
</svg>
