<svg width="32" height="32" viewBox="0 0 32 32" fill="none" xmlns="http://www.w3.org/2000/svg">
<path fill-rule="evenodd" clip-rule="evenodd" d="M16.0558 4.87354C11.5233 4.87354 7.11173 8.27437 5.2863 12.2907L8.66572 11.4955L8.93371 12.6344L4.56335 13.6628C4.25498 13.7353 3.94489 13.5492 3.86383 13.243L2.70801 8.87654L3.83905 8.57715L4.59286 11.4249C6.66967 7.31046 11.2407 3.87354 16.0558 3.87354C21.3075 3.87354 25.7321 7.25652 27.4781 11.7959L27.6575 12.2626L26.7242 12.6216L26.5447 12.1549C24.9369 7.97456 20.8654 4.87354 16.0558 4.87354ZM27.8233 18.4751C27.9382 18.5424 28.0215 18.6529 28.0547 18.7819L29.1853 23.1789L28.2168 23.4279L27.4724 20.533C25.4855 24.7541 20.8736 28.1262 15.944 28.1262C10.6924 28.1262 6.2677 24.7433 4.52177 20.2039L4.34229 19.7372L5.27563 19.3782L5.45512 19.8449C7.06295 24.0252 11.1345 27.1262 15.944 27.1262C20.6307 27.1262 25.0761 23.7538 26.7768 19.6337L23.4141 20.5239L23.1582 19.5572L27.4425 18.4231C27.5713 18.389 27.7083 18.4077 27.8233 18.4751ZM14.5435 18.4065V11.9225H13.5435V18.9065C13.5435 19.1826 13.7673 19.4065 14.0435 19.4065H19.0151V18.4065H14.5435Z" fill="#2B2A28"/>
</svg>
