<svg width="16" height="16" viewBox="0 0 16 16" fill="none" xmlns="http://www.w3.org/2000/svg">
<path fill-rule="evenodd" clip-rule="evenodd" d="M9.41478 6.46015L9.39566 2.29772L13.8316 2.27734L13.8362 3.27733L11.3197 3.28889C12.1844 3.96643 12.9938 4.90013 13.3839 5.89194C14.5633 8.88997 13.089 12.2764 10.091 13.4558C7.7283 14.3852 5.12565 13.6664 3.55118 11.8545L4.30601 11.1986C5.61143 12.7008 7.76858 13.2948 9.72488 12.5252C12.209 11.548 13.4305 8.74209 12.4533 6.25801C12.0974 5.3533 11.2586 4.44772 10.4028 3.85393L10.4148 6.45556L9.41478 6.46015ZM6.18614 3.52956C5.5456 3.78154 4.99005 4.15437 4.53433 4.61129L3.82629 3.90511C4.37748 3.35248 5.04889 2.90234 5.82006 2.59897L6.18614 3.52956ZM3.68738 5.7591C3.04776 6.96413 2.91961 8.42894 3.45768 9.79675L2.5271 10.1628C1.8776 8.51177 2.03336 6.74232 2.80409 5.29026L3.68738 5.7591Z" fill="#686765"/>
</svg>
