<svg width="24" height="24" viewBox="0 0 24 24" fill="none" xmlns="http://www.w3.org/2000/svg">
<path fill-rule="evenodd" clip-rule="evenodd" d="M14.1222 9.68877L14.0935 3.44513L20.7475 3.41456L20.7544 4.91454L16.9797 4.93188C18.2766 5.94819 19.4907 7.34874 20.0759 8.83645C21.845 13.3335 19.6335 18.4132 15.1365 20.1822C11.5925 21.5764 7.68853 20.4981 5.32682 17.7802L6.45907 16.7964C8.41721 19.0498 11.6529 19.9407 14.5874 18.7864C18.3135 17.3206 20.1459 13.1117 18.6801 9.38556C18.1462 8.0285 16.888 6.67012 15.6043 5.77944L15.6222 9.68188L14.1222 9.68877ZM9.27927 5.29288C8.31845 5.67085 7.48513 6.2301 6.80155 6.91548L5.7395 5.85621C6.56628 5.02726 7.57339 4.35205 8.73015 3.897L9.27927 5.29288ZM5.53112 8.6372C4.5717 10.4447 4.37947 12.642 5.18658 14.6937L3.79071 15.2428C2.81646 12.7662 3.05009 10.112 4.20619 7.93394L5.53112 8.6372Z" fill="#2B2A28"/>
</svg>
