<svg width="24" height="24" viewBox="0 0 24 24" fill="none" xmlns="http://www.w3.org/2000/svg">
<path fill-rule="evenodd" clip-rule="evenodd" d="M2.42554 18.3031C2.42554 16.9881 3.31586 15.881 4.52661 15.5518V2.75543H6.02661V15.5518C7.23733 15.881 8.12762 16.9881 8.12762 18.3031C8.12762 19.8777 6.85117 21.1542 5.27658 21.1542C3.70199 21.1542 2.42554 19.8777 2.42554 18.3031ZM12.75 2.75543V9.24941C12.8658 9.28098 12.9797 9.31989 13.091 9.36601C13.4369 9.50929 13.7512 9.7193 14.016 9.98404C14.2807 10.2488 14.4907 10.5631 14.634 10.909C14.7773 11.2549 14.851 11.6256 14.851 12C14.851 12.3744 14.7773 12.7452 14.634 13.0911C14.4907 13.437 14.2807 13.7513 14.016 14.016C13.7512 14.2808 13.4369 14.4908 13.091 14.634C12.9797 14.6802 12.8658 14.7191 12.75 14.7506V21.2446H11.25V14.7507C11.1342 14.7191 11.0203 14.6802 10.9089 14.634C10.563 14.4908 10.2487 14.2808 9.98398 14.016C9.71923 13.7513 9.50923 13.437 9.36595 13.0911C9.22267 12.7452 9.14893 12.3744 9.14893 12C9.14893 11.6256 9.22267 11.2549 9.36595 10.909C9.50923 10.5631 9.71923 10.2488 9.98398 9.98404C10.2487 9.7193 10.563 9.50929 10.9089 9.36601C11.0203 9.31988 11.1342 9.28097 11.25 9.24939V2.75543H12.75ZM12 10.649C11.8225 10.649 11.6469 10.6839 11.4829 10.7518C11.319 10.8197 11.1701 10.9192 11.0446 11.0447C10.9192 11.1702 10.8197 11.3191 10.7518 11.483C10.6839 11.6469 10.6489 11.8226 10.6489 12C10.6489 12.1775 10.6839 12.3531 10.7518 12.517C10.8197 12.681 10.9192 12.8299 11.0446 12.9554C11.1701 13.0808 11.319 13.1803 11.4829 13.2482C11.6469 13.3161 11.8225 13.3511 12 13.3511C12.1774 13.3511 12.3531 13.3161 12.517 13.2482C12.6809 13.1803 12.8298 13.0808 12.9553 12.9554C13.0808 12.8299 13.1803 12.681 13.2482 12.517C13.3161 12.3531 13.351 12.1775 13.351 12C13.351 11.8226 13.3161 11.6469 13.2482 11.483C13.1803 11.3191 13.0808 11.1702 12.9553 11.0447C12.8298 10.9192 12.6809 10.8197 12.517 10.7518C12.3531 10.6839 12.1774 10.649 12 10.649ZM5.27658 16.9521C4.53042 16.9521 3.92554 17.557 3.92554 18.3031C3.92554 19.0493 4.53042 19.6542 5.27658 19.6542C6.02274 19.6542 6.62762 19.0493 6.62762 18.3031C6.62762 17.557 6.02274 16.9521 5.27658 16.9521ZM19.4734 21.2446V8.44822C20.6841 8.11895 21.5744 7.01188 21.5744 5.69687C21.5744 4.12228 20.2979 2.84583 18.7234 2.84583C17.1488 2.84583 15.8723 4.12228 15.8723 5.69687C15.8723 7.0119 16.7626 8.11899 17.9734 8.44824V21.2446H19.4734ZM18.7234 4.34583C17.9772 4.34583 17.3723 4.95071 17.3723 5.69687C17.3723 6.44302 17.9772 7.04791 18.7234 7.04791C19.4695 7.04791 20.0744 6.44302 20.0744 5.69687C20.0744 4.95071 19.4695 4.34583 18.7234 4.34583Z" fill="#2B2A28"/>
</svg>
