<svg width="24" height="24" viewBox="0 0 24 24" fill="none" xmlns="http://www.w3.org/2000/svg">
<path d="M9 22C9.55228 22 10 21.5523 10 21C10 20.4477 9.55228 20 9 20C8.44772 20 8 20.4477 8 21C8 21.5523 8.44772 22 9 22Z" stroke="#2B2A28" stroke-width="1.5" stroke-linejoin="round"/>
<path d="M17 22C17.5523 22 18 21.5523 18 21C18 20.4477 17.5523 20 17 20C16.4477 20 16 20.4477 16 21C16 21.5523 16.4477 22 17 22Z" stroke="#2B2A28" stroke-width="1.5" stroke-linejoin="round"/>
<path d="M1 2H4L5.68 14.39C5.77144 14.8504 6.02191 15.264 6.38755 15.5583C6.75318 15.8526 7.2107 16.009 7.68 16H18.4C18.8693 16.009 19.3268 15.8526 19.6925 15.5583C20.0581 15.264 20.3086 14.8504 20.4 14.39L22 6H5" stroke="#2B2A28" stroke-width="1.5" stroke-linejoin="round"/>
</svg>
