<svg width="24" height="24" viewBox="0 0 24 24" fill="none" xmlns="http://www.w3.org/2000/svg">
<path fill-rule="evenodd" clip-rule="evenodd" d="M12.411 2.63046C12.3338 2.47403 12.1745 2.375 12 2.375C11.8256 2.375 11.6662 2.47403 11.589 2.63046L8.86306 8.15296L2.76706 9.04399C2.59447 9.06921 2.45116 9.19022 2.39736 9.35614C2.34356 9.52206 2.3886 9.70413 2.51355 9.82583L6.92419 14.1218L5.88328 20.1909C5.85378 20.3628 5.92448 20.5366 6.06564 20.6392C6.20679 20.7417 6.39393 20.7552 6.54835 20.674L12 17.807L17.4517 20.674C17.6061 20.7552 17.7932 20.7417 17.9344 20.6392C18.0756 20.5366 18.1462 20.3628 18.1168 20.1909L17.0758 14.1218L21.4865 9.82583C21.6114 9.70413 21.6565 9.52206 21.6027 9.35614C21.5489 9.19022 21.4056 9.06921 21.233 9.04399L15.137 8.15296L12.411 2.63046Z" fill="#2B2A28"/>
</svg>
