<svg width="65" height="16" viewBox="0 0 65 16" fill="none" xmlns="http://www.w3.org/2000/svg">
<path d="M0 2C0 0.895431 0.895431 0 2 0H63C64.1046 0 65 0.895431 65 2V14C65 15.1046 64.1046 16 63 16H2C0.89543 16 0 15.1046 0 14V2Z" fill="#2B2A28"/>
<path d="M5.661 4.3V8.766C5.661 10.383 6.31 11.186 7.63 11.186C8.95 11.186 9.621 10.383 9.621 8.766V4.3H10.578V8.711C10.578 9.811 10.325 10.647 9.819 11.219C9.313 11.791 8.587 12.066 7.63 12.066C6.662 12.066 5.936 11.791 5.441 11.219C4.946 10.647 4.704 9.811 4.704 8.711V4.3H5.661ZM16.7282 6.94C17.1462 7.358 17.3552 7.996 17.3552 8.876V12H16.4532V8.931C16.4532 8.359 16.3212 7.919 16.0572 7.611C15.7932 7.303 15.4192 7.149 14.9352 7.149C14.4072 7.149 13.9892 7.336 13.6922 7.699C13.3842 8.073 13.2412 8.568 13.2412 9.195V12H12.3392V6.39H13.1202L13.2412 7.149C13.6592 6.599 14.2752 6.324 15.0892 6.324C15.7712 6.324 16.3102 6.533 16.7282 6.94ZM19.0772 7.688C19.2972 7.259 19.6162 6.929 20.0232 6.687C20.4192 6.445 20.8812 6.324 21.4092 6.324C21.9152 6.324 22.3772 6.434 22.7732 6.643C23.1692 6.863 23.4772 7.171 23.7082 7.567C23.9282 7.974 24.0492 8.447 24.0712 8.986C24.0712 9.074 24.0602 9.195 24.0492 9.371H19.6932V9.448C19.7042 9.998 19.8692 10.438 20.1992 10.768C20.5182 11.098 20.9362 11.263 21.4642 11.263C21.8602 11.263 22.2012 11.164 22.4872 10.966C22.7732 10.768 22.9602 10.482 23.0592 10.119H23.9722C23.8622 10.691 23.5872 11.164 23.1472 11.527C22.7072 11.89 22.1682 12.066 21.5302 12.066C20.9692 12.066 20.4852 11.956 20.0672 11.714C19.6492 11.472 19.3192 11.142 19.0882 10.702C18.8572 10.262 18.7472 9.767 18.7472 9.195C18.7472 8.623 18.8572 8.128 19.0772 7.688ZM23.1362 8.623C23.0922 8.15 22.9052 7.776 22.5972 7.512C22.2892 7.248 21.8932 7.116 21.4202 7.116C20.9912 7.116 20.6172 7.259 20.2982 7.534C19.9682 7.82 19.7922 8.183 19.7482 8.623H23.1362ZM30.8645 4.3V12H30.0835L29.9625 11.098C29.4895 11.747 28.8515 12.066 28.0375 12.066C27.5095 12.066 27.0475 11.956 26.6405 11.725C26.2335 11.505 25.9145 11.175 25.6835 10.735C25.4525 10.306 25.3425 9.789 25.3425 9.195C25.3425 8.634 25.4525 8.139 25.6835 7.699C25.9145 7.27 26.2335 6.929 26.6515 6.687C27.0585 6.445 27.5205 6.324 28.0375 6.324C28.4885 6.324 28.8735 6.412 29.2035 6.577C29.5225 6.742 29.7755 6.962 29.9625 7.248V4.3H30.8645ZM29.0825 11.01C29.3685 10.834 29.5885 10.592 29.7425 10.284C29.8965 9.976 29.9735 9.613 29.9735 9.217C29.9735 8.821 29.8965 8.458 29.7425 8.139C29.5885 7.82 29.3685 7.567 29.0825 7.391C28.7965 7.215 28.4775 7.127 28.1255 7.127C27.5645 7.127 27.1135 7.325 26.7725 7.71C26.4315 8.095 26.2665 8.59 26.2665 9.195C26.2665 9.811 26.4315 10.306 26.7725 10.691C27.1135 11.076 27.5645 11.263 28.1255 11.263C28.4775 11.263 28.7965 11.186 29.0825 11.01ZM33.4022 4.388C33.5122 4.498 33.5672 4.641 33.5672 4.806C33.5672 4.982 33.5122 5.114 33.4022 5.224C33.2922 5.334 33.1492 5.389 32.9842 5.389C32.8082 5.389 32.6762 5.334 32.5662 5.224C32.4562 5.114 32.4012 4.982 32.4012 4.806C32.4012 4.641 32.4562 4.498 32.5662 4.388C32.6762 4.278 32.8082 4.223 32.9842 4.223C33.1492 4.223 33.2922 4.278 33.4022 4.388ZM32.5332 6.39H33.4352V12H32.5332V6.39ZM35.4849 7.215H34.4729V6.39H35.4849V4.817H36.3869V6.39H37.8059V7.215H36.3869V10.526C36.3869 10.768 36.4309 10.933 36.5189 11.032C36.6069 11.131 36.7719 11.175 37.0029 11.175H37.9819V12H36.9479C36.4199 12 36.0349 11.89 35.8149 11.648C35.5949 11.417 35.4849 11.043 35.4849 10.537V7.215ZM44.2247 11.175V12H43.7297C43.3667 12 43.1137 11.934 42.9597 11.78C42.8057 11.637 42.7177 11.417 42.7177 11.131C42.2777 11.758 41.6507 12.066 40.8367 12.066C40.2097 12.066 39.7037 11.923 39.3297 11.626C38.9557 11.34 38.7687 10.933 38.7687 10.427C38.7687 9.866 38.9557 9.437 39.3407 9.129C39.7257 8.832 40.2867 8.678 41.0237 8.678H42.6737V8.293C42.6737 7.93 42.5417 7.644 42.2997 7.435C42.0577 7.237 41.7167 7.127 41.2767 7.127C40.8807 7.127 40.5617 7.215 40.3087 7.391C40.0557 7.567 39.9017 7.787 39.8467 8.073H38.9447C39.0107 7.523 39.2527 7.094 39.6707 6.786C40.0887 6.478 40.6387 6.324 41.3207 6.324C42.0357 6.324 42.5857 6.5 42.9817 6.852C43.3777 7.204 43.5757 7.699 43.5757 8.348V10.768C43.5757 11.043 43.6967 11.175 43.9497 11.175H44.2247ZM42.6737 9.437H40.9357C40.0997 9.437 39.6817 9.756 39.6817 10.372C39.6817 10.658 39.7917 10.878 40.0117 11.043C40.2317 11.219 40.5287 11.296 40.9027 11.296C41.4527 11.296 41.8817 11.153 42.2007 10.867C42.5087 10.581 42.6737 10.196 42.6737 9.712V9.437ZM49.5711 6.665C49.9781 6.896 50.2971 7.226 50.5281 7.655C50.7591 8.095 50.8801 8.601 50.8801 9.195C50.8801 9.767 50.7591 10.262 50.5281 10.691C50.2971 11.131 49.9781 11.461 49.5711 11.703C49.1531 11.945 48.6911 12.066 48.1851 12.066C47.7231 12.066 47.3381 11.989 47.0191 11.824C46.6891 11.659 46.4361 11.428 46.2601 11.142L46.1391 12H45.3581V4.3H46.2601V7.292C46.7221 6.654 47.3711 6.324 48.1851 6.324C48.7021 6.324 49.1641 6.445 49.5711 6.665ZM49.4391 10.691C49.7801 10.306 49.9561 9.811 49.9561 9.195C49.9561 8.59 49.7801 8.095 49.4391 7.71C49.0981 7.325 48.6471 7.127 48.0971 7.127C47.7341 7.127 47.4151 7.215 47.1291 7.391C46.8431 7.567 46.6341 7.809 46.4801 8.117C46.3261 8.425 46.2491 8.777 46.2491 9.173C46.2491 9.58 46.3261 9.943 46.4801 10.262C46.6341 10.581 46.8431 10.823 47.1291 10.999C47.4151 11.175 47.7341 11.263 48.0971 11.263C48.6471 11.263 49.0981 11.076 49.4391 10.691ZM52.3508 4.3H53.2528V12H52.3508V4.3ZM55.0605 7.688C55.2805 7.259 55.5995 6.929 56.0065 6.687C56.4025 6.445 56.8645 6.324 57.3925 6.324C57.8985 6.324 58.3605 6.434 58.7565 6.643C59.1525 6.863 59.4605 7.171 59.6915 7.567C59.9115 7.974 60.0325 8.447 60.0545 8.986C60.0545 9.074 60.0435 9.195 60.0325 9.371H55.6765V9.448C55.6875 9.998 55.8525 10.438 56.1825 10.768C56.5015 11.098 56.9195 11.263 57.4475 11.263C57.8435 11.263 58.1845 11.164 58.4705 10.966C58.7565 10.768 58.9435 10.482 59.0425 10.119H59.9555C59.8455 10.691 59.5705 11.164 59.1305 11.527C58.6905 11.89 58.1515 12.066 57.5135 12.066C56.9525 12.066 56.4685 11.956 56.0505 11.714C55.6325 11.472 55.3025 11.142 55.0715 10.702C54.8405 10.262 54.7305 9.767 54.7305 9.195C54.7305 8.623 54.8405 8.128 55.0605 7.688ZM59.1195 8.623C59.0755 8.15 58.8885 7.776 58.5805 7.512C58.2725 7.248 57.8765 7.116 57.4035 7.116C56.9745 7.116 56.6005 7.259 56.2815 7.534C55.9515 7.82 55.7755 8.183 55.7315 8.623H59.1195Z" fill="white"/>
</svg>
