<svg width="24" height="24" viewBox="0 0 24 24" fill="none" xmlns="http://www.w3.org/2000/svg">
<path d="M12 2C10.0222 2 8.08879 2.58649 6.4443 3.6853C4.79981 4.78412 3.51809 6.3459 2.76121 8.17317C2.00433 10.0004 1.8063 12.0111 2.19215 13.9509C2.578 15.8907 3.53041 17.6725 4.92894 19.0711C6.32746 20.4696 8.10929 21.422 10.0491 21.8079C11.9889 22.1937 13.9996 21.9957 15.8268 21.2388C17.6541 20.4819 19.2159 19.2002 20.3147 17.5557C21.4135 15.9112 22 13.9778 22 12C22 9.34784 20.9464 6.8043 19.0711 4.92893C17.1957 3.05357 14.6522 2 12 2ZM17.8833 10.625C17.1429 10.6204 16.4115 10.4617 15.7357 10.159C15.06 9.85629 14.4547 9.41616 13.9583 8.86667V14.7C13.96 15.477 13.731 16.237 13.3003 16.8837C12.8697 17.5305 12.2568 18.0348 11.5392 18.333C10.8217 18.6311 10.0318 18.7095 9.26966 18.5583C8.50751 18.4071 7.80737 18.0331 7.25795 17.4837C6.70853 16.9343 6.33454 16.2342 6.18336 15.472C6.03218 14.7099 6.11061 13.92 6.40871 13.2024C6.70682 12.4849 7.21119 11.872 7.85793 11.4413C8.50467 11.0107 9.26467 10.7817 10.0417 10.7833C10.173 10.789 10.3038 10.8029 10.4333 10.825V12.8333C10.3045 12.8067 10.1733 12.7927 10.0417 12.7917C9.65164 12.79 9.26994 12.9044 8.94507 13.1202C8.62021 13.3361 8.36686 13.6436 8.21722 14.0038C8.06759 14.364 8.02844 14.7606 8.10474 15.1431C8.18104 15.5255 8.36935 15.8767 8.64573 16.1519C8.92211 16.4271 9.27408 16.6139 9.6569 16.6886C10.0397 16.7633 10.4361 16.7224 10.7956 16.5713C11.1552 16.4201 11.4617 16.1654 11.6761 15.8397C11.8906 15.5139 12.0033 15.1317 12 14.7417V5.33333H14.35L14.475 5.80833C14.6648 6.56834 15.1035 7.24297 15.7212 7.72473C16.3388 8.20649 17.1 8.46768 17.8833 8.46667V10.625Z" fill="#2B2A28"/>
</svg>
