<svg width="16" height="16" viewBox="0 0 16 16" fill="none" xmlns="http://www.w3.org/2000/svg">
<path fill-rule="evenodd" clip-rule="evenodd" d="M4.19824 2.16699V3.54085H4.72741C5.00355 3.54085 5.22741 3.76471 5.22741 4.04085V12.2632C5.22741 12.5394 5.00355 12.7632 4.72741 12.7632H4.19824V14.1371H3.19824V12.7632H2.66699C2.39085 12.7632 2.16699 12.5394 2.16699 12.2632V4.04085C2.16699 3.76471 2.39085 3.54085 2.66699 3.54085H3.19824V2.16699H4.19824ZM4.19824 11.7632V11.7631H3.19824V11.7632H3.16699V4.54085H3.19824V4.54095H4.19824V4.54085H4.22741V11.7632H4.19824ZM11.2218 4.87402C11.2218 4.59788 11.4457 4.37402 11.7218 4.37402H12.2521V3.00033H13.2521V4.37402H13.7823C14.0584 4.37402 14.2823 4.59788 14.2823 4.87402V7.97767C14.2823 8.25381 14.0584 8.47767 13.7823 8.47767H13.2847V9.78047H12.2847V8.47767H11.7218C11.4457 8.47767 11.2218 8.25381 11.2218 7.97767V4.87402ZM12.2521 5.37402V5.37428H13.2521V5.37402H13.2823V7.47767H12.2218V5.37402H12.2521ZM7.1945 6.61646C6.91836 6.61646 6.6945 6.84031 6.6945 7.11646V10.479C6.6945 10.7551 6.91836 10.979 7.1945 10.979H7.72477V12.3529H8.72477V10.979H9.25492C9.53106 10.979 9.75492 10.7551 9.75492 10.479V7.11646C9.75492 6.84031 9.53106 6.61646 9.25492 6.61646H8.72477V5.12354H7.72477V6.61646H7.1945ZM7.6945 9.97896V7.61646H8.75492V9.97896H7.6945Z" fill="white"/>
</svg>
