<svg width="17" height="16" viewBox="0 0 17 16" fill="none" xmlns="http://www.w3.org/2000/svg">
<path fill-rule="evenodd" clip-rule="evenodd" d="M4.698 2.16699V3.54085H5.22716C5.50331 3.54085 5.72716 3.76471 5.72716 4.04085V12.2632C5.72716 12.5394 5.50331 12.7632 5.22716 12.7632H4.698V14.1371H3.698V12.7632H3.16675C2.89061 12.7632 2.66675 12.5394 2.66675 12.2632V4.04085C2.66675 3.76471 2.89061 3.54085 3.16675 3.54085H3.698V2.16699H4.698ZM4.698 11.7632V11.7631H3.698V11.7632H3.66675V4.54085H3.698V4.54095H4.698V4.54085H4.72716V11.7632H4.698ZM11.7216 4.87402C11.7216 4.59788 11.9455 4.37402 12.2216 4.37402H12.7519V3.00033H13.7519V4.37402H14.282C14.5582 4.37402 14.782 4.59788 14.782 4.87402V7.97767C14.782 8.25381 14.5582 8.47767 14.282 8.47767H13.7844V9.78047H12.7844V8.47767H12.2216C11.9455 8.47767 11.7216 8.25381 11.7216 7.97767V4.87402ZM12.7519 5.37402V5.37428H13.7519V5.37402H13.782V7.47767H12.7216V5.37402H12.7519ZM7.69425 6.61646C7.41811 6.61646 7.19425 6.84031 7.19425 7.11646V10.479C7.19425 10.7551 7.41811 10.979 7.69425 10.979H8.22453V12.3529H9.22453V10.979H9.75467C10.0308 10.979 10.2547 10.7551 10.2547 10.479V7.11646C10.2547 6.84031 10.0308 6.61646 9.75467 6.61646H9.22453V5.12354H8.22453V6.61646H7.69425ZM8.19425 9.97896V7.61646H9.25467V9.97896H8.19425Z" fill="#2B2A28"/>
</svg>
