<svg width="24" height="24" viewBox="0 0 24 24" fill="none" xmlns="http://www.w3.org/2000/svg">
<path fill-rule="evenodd" clip-rule="evenodd" d="M6.29712 3.25012V5.31091H7.09087C7.50508 5.31091 7.84087 5.6467 7.84087 6.06091V18.3945C7.84087 18.8087 7.50508 19.1445 7.09087 19.1445H6.29712V21.2052H4.79712V19.1445H4.00024C3.58603 19.1445 3.25024 18.8087 3.25024 18.3945V6.06091C3.25024 5.6467 3.58603 5.31091 4.00024 5.31091H4.79712V3.25012H6.29712ZM6.29712 17.6445V17.6443H4.79712V17.6445H4.75024V6.81091H4.79712V6.81106H6.29712V6.81091H6.34087V17.6445H6.29712ZM16.8325 7.31067C16.8325 6.89646 17.1683 6.56067 17.5825 6.56067H18.3779V4.50012H19.8779V6.56067H20.6731C21.0874 6.56067 21.4231 6.89646 21.4231 7.31067V11.9661C21.4231 12.3804 21.0874 12.7161 20.6731 12.7161H19.9268V14.6703H18.4268V12.7161H17.5825C17.1683 12.7161 16.8325 12.3804 16.8325 11.9661V7.31067ZM18.3779 8.06067V8.06106H19.8779V8.06067H19.9231V11.2161H18.3325V8.06067H18.3779ZM10.7915 9.92432C10.3773 9.92432 10.0415 10.2601 10.0415 10.6743V15.7181C10.0415 16.1323 10.3773 16.4681 10.7915 16.4681H11.5869V18.529H13.0869V16.4681H13.8821C14.2963 16.4681 14.6321 16.1323 14.6321 15.7181V10.6743C14.6321 10.2601 14.2963 9.92432 13.8821 9.92432H13.0869V7.68494H11.5869V9.92432H10.7915ZM11.5415 14.9681V11.4243H13.1321V14.9681H11.5415Z" fill="#2B2A28"/>
</svg>
