<svg width="24" height="24" viewBox="0 0 24 24" fill="none" xmlns="http://www.w3.org/2000/svg">
<path fill-rule="evenodd" clip-rule="evenodd" d="M9.55127 6.24396C9.55127 4.97094 10.5833 3.93896 11.8563 3.93896C13.1293 3.93896 14.1613 4.97095 14.1613 6.24396V6.25772H9.55127V6.24396ZM8.05127 6.25772V6.24396C8.05127 4.14252 9.75483 2.43896 11.8563 2.43896C13.9577 2.43896 15.6613 4.14251 15.6613 6.24396V6.25772H19.4799H21.0212V7.75772H19.4799V20.7415H4.23242V7.75772H2.69116V6.25772H4.23242H8.05127ZM5.73242 7.75772H17.9799V19.2415H5.73242V7.75772ZM8.81494 10.8265V16.1727H10.3149V10.8265H8.81494ZM13.3975 16.1727V10.8265H14.8975V16.1727H13.3975Z" fill="#2B2A28"/>
</svg>
