<svg width="24" height="24" viewBox="0 0 24 24" fill="none" xmlns="http://www.w3.org/2000/svg">
<path fill-rule="evenodd" clip-rule="evenodd" d="M12.7507 5.25V15.6797H11.2507V5.25H12.7507Z" fill="#2B2A28"/>
<path fill-rule="evenodd" clip-rule="evenodd" d="M12.0008 4.49402L16.5771 9.0703L15.5165 10.131L12.0008 6.61534L8.48522 10.131L7.42456 9.0703L12.0008 4.49402Z" fill="#2B2A28"/>
<path fill-rule="evenodd" clip-rule="evenodd" d="M3.96167 14.1797V16.1016C3.96167 16.5243 4.12958 16.9296 4.42847 17.2285C4.72735 17.5274 5.13273 17.6953 5.55542 17.6953H18.446C18.8687 17.6953 19.2741 17.5274 19.573 17.2285C19.8719 16.9296 20.0398 16.5243 20.0398 16.1016V14.1797H21.5398V16.1016C21.5398 16.9221 21.2138 17.709 20.6337 18.2892C20.0535 18.8694 19.2666 19.1953 18.446 19.1953H5.55542C4.73491 19.1953 3.948 18.8694 3.36781 18.2892C2.78762 17.709 2.46167 16.9221 2.46167 16.1016V14.1797H3.96167Z" fill="#2B2A28"/>
</svg>
