<svg width="24" height="24" viewBox="0 0 24 24" fill="none" xmlns="http://www.w3.org/2000/svg">
<path fill-rule="evenodd" clip-rule="evenodd" d="M8.83755 7.38959C8.83755 5.72239 10.1891 4.37084 11.8563 4.37084C13.5235 4.37084 14.875 5.72239 14.875 7.38959C14.875 9.0568 13.5235 10.4083 11.8563 10.4083C10.1891 10.4083 8.83755 9.0568 8.83755 7.38959ZM11.8563 2.77084C9.30544 2.77084 7.23755 4.83873 7.23755 7.38959C7.23755 9.94046 9.30544 12.0083 11.8563 12.0083C14.4071 12.0083 16.475 9.94046 16.475 7.38959C16.475 4.83873 14.4071 2.77084 11.8563 2.77084ZM11.8562 13.0815C9.06556 13.0815 6.95388 13.6801 5.52657 14.2918C4.81392 14.5972 4.27357 14.9051 3.90547 15.1418C3.72141 15.2601 3.58032 15.3606 3.48217 15.4342C3.43309 15.4711 3.39473 15.5011 3.36708 15.5234C3.35325 15.5345 3.3421 15.5436 3.33363 15.5507L3.32293 15.5596L3.31908 15.5629L3.31753 15.5642L3.31623 15.5653L3.83687 16.1727C3.3204 15.5702 3.31596 15.5656 3.31622 15.5653L3.03687 15.8048V20.4096H20.6756V15.8048L20.3962 15.5653L19.8756 16.1727C20.3962 15.5653 20.3953 15.5645 20.395 15.5642L20.3934 15.5629L20.3896 15.5596L20.3789 15.5507C20.3748 15.5473 20.3702 15.5435 20.3651 15.5393C20.3592 15.5345 20.3527 15.5292 20.3454 15.5234C20.3178 15.5011 20.2794 15.4711 20.2303 15.4342C20.1322 15.3606 19.9911 15.2601 19.807 15.1418C19.4389 14.9051 18.8986 14.5972 18.1859 14.2918C16.7586 13.6801 14.6469 13.0815 11.8562 13.0815ZM4.77068 16.4876C4.72177 16.5191 4.67716 16.5486 4.63687 16.5759V18.8096H19.0756V16.5759C19.0353 16.5486 18.9907 16.5191 18.9418 16.4876C18.6416 16.2947 18.1795 16.0298 17.5556 15.7624C16.3098 15.2285 14.4118 14.6815 11.8562 14.6815C9.30067 14.6815 7.40266 15.2285 6.15684 15.7624C5.53294 16.0298 5.07087 16.2947 4.77068 16.4876Z" fill="#2B2A28"/>
</svg>
