<svg width="24" height="24" viewBox="0 0 24 24" fill="none" xmlns="http://www.w3.org/2000/svg">
<path d="M4.65178 6.85432C5.86929 6.85432 6.85628 5.86734 6.85628 4.64983C6.85628 3.4323 5.86929 2.44531 4.65178 2.44531C3.43425 2.44531 2.44727 3.4323 2.44727 4.64983C2.44727 5.86734 3.43425 6.85432 4.65178 6.85432Z" stroke="#2B2A28" stroke-width="1.5" stroke-linecap="round" stroke-linejoin="round"/>
<path d="M11.9994 6.85432C13.2169 6.85432 14.2039 5.86734 14.2039 4.64983C14.2039 3.4323 13.2169 2.44531 11.9994 2.44531C10.7819 2.44531 9.79492 3.4323 9.79492 4.64983C9.79492 5.86734 10.7819 6.85432 11.9994 6.85432Z" stroke="#2B2A28" stroke-width="1.5" stroke-linecap="round" stroke-linejoin="round"/>
<path d="M19.349 6.85432C20.5665 6.85432 21.5535 5.86734 21.5535 4.64983C21.5535 3.4323 20.5665 2.44531 19.349 2.44531C18.1315 2.44531 17.1445 3.4323 17.1445 4.64983C17.1445 5.86734 18.1315 6.85432 19.349 6.85432Z" stroke="#2B2A28" stroke-width="1.5" stroke-linecap="round" stroke-linejoin="round"/>
<path d="M4.65178 14.202C5.86929 14.202 6.85628 13.215 6.85628 11.9975C6.85628 10.78 5.86929 9.79297 4.65178 9.79297C3.43425 9.79297 2.44727 10.78 2.44727 11.9975C2.44727 13.215 3.43425 14.202 4.65178 14.202Z" stroke="#2B2A28" stroke-width="1.5" stroke-linecap="round" stroke-linejoin="round"/>
<path d="M11.9994 14.202C13.2169 14.202 14.2039 13.215 14.2039 11.9975C14.2039 10.78 13.2169 9.79297 11.9994 9.79297C10.7819 9.79297 9.79492 10.78 9.79492 11.9975C9.79492 13.215 10.7819 14.202 11.9994 14.202Z" stroke="#2B2A28" stroke-width="1.5" stroke-linecap="round" stroke-linejoin="round"/>
<path d="M19.349 14.202C20.5665 14.202 21.5535 13.215 21.5535 11.9975C21.5535 10.78 20.5665 9.79297 19.349 9.79297C18.1315 9.79297 17.1445 10.78 17.1445 11.9975C17.1445 13.215 18.1315 14.202 19.349 14.202Z" stroke="#2B2A28" stroke-width="1.5" stroke-linecap="round" stroke-linejoin="round"/>
<path d="M4.65178 21.5496C5.86929 21.5496 6.85628 20.5626 6.85628 19.3451C6.85628 18.1276 5.86929 17.1406 4.65178 17.1406C3.43425 17.1406 2.44727 18.1276 2.44727 19.3451C2.44727 20.5626 3.43425 21.5496 4.65178 21.5496Z" stroke="#2B2A28" stroke-width="1.5" stroke-linecap="round" stroke-linejoin="round"/>
<path d="M11.9994 21.5496C13.2169 21.5496 14.2039 20.5626 14.2039 19.3451C14.2039 18.1276 13.2169 17.1406 11.9994 17.1406C10.7819 17.1406 9.79492 18.1276 9.79492 19.3451C9.79492 20.5626 10.7819 21.5496 11.9994 21.5496Z" stroke="#2B2A28" stroke-width="1.5" stroke-linecap="round" stroke-linejoin="round"/>
<path d="M19.349 21.5496C20.5665 21.5496 21.5535 20.5626 21.5535 19.3451C21.5535 18.1276 20.5665 17.1406 19.349 17.1406C18.1315 17.1406 17.1445 18.1276 17.1445 19.3451C17.1445 20.5626 18.1315 21.5496 19.349 21.5496Z" stroke="#2B2A28" stroke-width="1.5" stroke-linecap="round" stroke-linejoin="round"/>
<path d="M6.20996 6.20703L10.4426 10.4397" stroke="#2B2A28" stroke-width="1.5" stroke-linecap="round" stroke-linejoin="round"/>
<path d="M6.20996 17.7874L10.4426 13.5547" stroke="#2B2A28" stroke-width="1.5" stroke-linecap="round" stroke-linejoin="round"/>
<path d="M13.5576 10.4397L17.7903 6.20703" stroke="#2B2A28" stroke-width="1.5" stroke-linecap="round" stroke-linejoin="round"/>
</svg>
