<svg width="24" height="24" viewBox="0 0 24 24" fill="none" xmlns="http://www.w3.org/2000/svg">
<g clip-path="url(#clip0_2821_67410)">
<path d="M22.3491 12.0012C22.3491 6.28569 17.7158 1.65234 12.0002 1.65234C6.28471 1.65234 1.65137 6.28569 1.65137 12.0012" stroke="#2B2A28" stroke-width="1.5" stroke-linecap="round" stroke-linejoin="round"/>
<path d="M12.9033 6.12891V10.6451H16.9679L11.0968 17.871V13.3548H7.03223L12.9033 6.12891Z" stroke="#2B2A28" stroke-width="1.5" stroke-linecap="round" stroke-linejoin="round"/>
<path d="M2.52637 16.1562C2.84312 16.8933 3.24953 17.5884 3.7364 18.2261C4.19759 18.8647 4.73193 19.4471 5.32854 19.9615" stroke="#2B2A28" stroke-width="1.5" stroke-linecap="round" stroke-linejoin="round"/>
<path d="M21.5531 16.1562C21.2365 16.8933 20.83 17.5884 20.3431 18.2261C19.882 18.8647 19.3477 19.4471 18.751 19.9615" stroke="#2B2A28" stroke-width="1.5" stroke-linecap="round" stroke-linejoin="round"/>
<path d="M9.6123 22.0781C11.184 22.4391 12.8171 22.4391 14.3887 22.0781" stroke="#2B2A28" stroke-width="1.5" stroke-linecap="round" stroke-linejoin="round"/>
</g>
<defs>
<clipPath id="clip0_2821_67410">
<rect width="24" height="24" fill="white"/>
</clipPath>
</defs>
</svg>
