<svg width="24" height="24" viewBox="0 0 24 24" fill="none" xmlns="http://www.w3.org/2000/svg">
<path fill-rule="evenodd" clip-rule="evenodd" d="M6.29688 3.25V5.31079H7.09062C7.50484 5.31079 7.84062 5.64658 7.84062 6.06079V18.3944C7.84062 18.8086 7.50484 19.1444 7.09062 19.1444H6.29688V21.2051H4.79688V19.1444H4C3.58579 19.1444 3.25 18.8086 3.25 18.3944V6.06079C3.25 5.64658 3.58579 5.31079 4 5.31079H4.79688V3.25H6.29688ZM6.29688 17.6444V17.6442H4.79688V17.6444H4.75V6.81079H4.79688V6.81094H6.29688V6.81079H6.34062V17.6444H6.29688ZM16.8323 7.31055C16.8323 6.89633 17.1681 6.56055 17.5823 6.56055H18.3777V4.5H19.8777V6.56055H20.6729C21.0871 6.56055 21.4229 6.89633 21.4229 7.31055V11.966C21.4229 12.3802 21.0871 12.716 20.6729 12.716H19.9265V14.6702H18.4265V12.716H17.5823C17.1681 12.716 16.8323 12.3802 16.8323 11.966V7.31055ZM18.3777 8.06055V8.06094H19.8777V8.06055H19.9229V11.216H18.3323V8.06055H18.3777ZM10.7913 9.92419C10.377 9.92419 10.0413 10.26 10.0413 10.6742V15.7179C10.0413 16.1322 10.377 16.4679 10.7913 16.4679H11.5867V18.5289H13.0867V16.4679H13.8819C14.2961 16.4679 14.6319 16.1322 14.6319 15.7179V10.6742C14.6319 10.26 14.2961 9.92419 13.8819 9.92419H13.0867V7.68481H11.5867V9.92419H10.7913ZM11.5413 14.9679V11.4242H13.1319V14.9679H11.5413Z" fill="#2B2A28"/>
</svg>
