<svg width="18" height="18" viewBox="0 0 18 18" fill="none" xmlns="http://www.w3.org/2000/svg">
<g clip-path="url(#clip0_170_131)">
<path fill-rule="evenodd" clip-rule="evenodd" d="M3.0022 -0.000183105L15.0022 -0.000183105L15.0022 17.9998L3.0022 17.9998L3.0022 -0.000183105Z" fill="#F7FCFF"/>
<path fill-rule="evenodd" clip-rule="evenodd" d="M8.98371 5.24988L9.00171 14.2499H8.55171L8.82771 12.0224C6.81021 12.3854 5.88471 12.4754 6.05196 12.2924C6.21846 12.1094 6.34971 11.8499 6.44571 11.5139L3.75171 9.71613C4.03521 9.71313 4.29171 9.64263 4.52271 9.50538C4.75296 9.36813 4.63746 8.89338 4.17696 8.08038L5.53671 8.27838L6.05196 7.71888L7.07796 8.79288H7.53921L7.07796 6.33288L7.90521 6.79413L8.98371 5.24988ZM8.98371 5.24988L10.0982 6.79488L10.9255 6.33213L10.4642 8.79288H10.9255L11.9515 7.71888L12.466 8.27838L13.8265 8.08038C13.366 8.89338 13.2505 9.36813 13.4815 9.50538C13.7117 9.64263 13.969 9.71313 14.2517 9.71613L11.557 11.5139C11.6537 11.8499 11.785 12.1094 11.9515 12.2924C12.1187 12.4754 11.1932 12.3854 9.17571 12.0224L9.45096 14.2499H9.00171L8.98371 5.24988ZM15.0017 -0.00012207L21.0017 -0.00012207L21.0017 17.9999H15.0017L15.0017 -0.00012207ZM-2.99829 -0.00012207L3.00171 -0.00012207L3.00171 17.9999H-2.99829L-2.99829 -0.00012207Z" fill="#E31D1C"/>
<g clip-path="url(#clip1_170_131)">
<path d="M18 9C18 13.9705 13.9705 18 9 18C4.02947 18 0 13.9705 0 9C0 9.00211 9 0.00101953 9 0C13.9705 0 18 4.02947 18 9Z" fill="#0052B4"/>
<path d="M8.97583 8.99997H8.99991C8.99991 8.99182 8.99991 8.98401 8.99991 8.97589C8.9919 8.98394 8.98388 8.99196 8.97583 8.99997Z" fill="#F0F0F0"/>
<path d="M9 4.69564C9 3.11203 9 2.07432 9 0H8.99849C4.02863 0.000808594 0 4.02989 0 8.99996H4.69564V6.35579L7.33982 8.99996H8.97595C8.984 8.99195 8.99202 8.98393 9.00004 8.97588C9.00004 8.36954 9.00004 7.82852 9.00004 7.33985L6.35583 4.69564H9Z" fill="#F0F0F0"/>
<path d="M4.55319 1.17389C3.14557 1.97542 1.97536 3.14563 1.17383 4.55325V8.99999H3.52167V3.52176V3.52173H8.99993C8.99993 2.78123 8.99993 2.07579 8.99993 1.17389H4.55319Z" fill="#D80027"/>
<path d="M8.99988 7.89322L5.80231 4.69569H4.69556C4.69556 4.69566 4.69556 4.69569 4.69556 4.69569L8.99984 8.99998H8.99988C8.99988 8.99998 8.99988 8.23691 8.99988 7.89322Z" fill="#D80027"/>
<path d="M5.42821 10.5652L5.92216 11.5981L7.03756 11.3403L6.53806 12.3704L7.43504 13.0817L6.31823 13.3334L6.32136 14.4783L5.42821 13.762L4.5351 14.4783L4.53823 13.3334L3.42139 13.0817L4.3184 12.3704L3.81883 11.3403L4.9343 11.5981L5.42821 10.5652Z" fill="#F0F0F0"/>
<path d="M13.4751 12.5217L13.722 13.0381L14.2798 12.9092L14.03 13.4243L14.4785 13.78L13.9201 13.9058L13.9216 14.4782L13.4751 14.1201L13.0285 14.4782L13.0301 13.9058L12.4717 13.78L12.9202 13.4243L12.6704 12.9092L13.2281 13.0381L13.4751 12.5217Z" fill="#F0F0F0"/>
<path d="M11.1775 7.04346L11.4244 7.5599L11.9822 7.43095L11.7324 7.94602L12.1809 8.3017L11.6225 8.42756L11.624 8.99997L11.1775 8.64184L10.7309 8.99997L10.7325 8.42756L10.1741 8.3017L10.6226 7.94602L10.3728 7.43095L10.9305 7.5599L11.1775 7.04346Z" fill="#F0F0F0"/>
<path d="M13.4751 3.91302L13.722 4.42947L14.2798 4.30055L14.03 4.81563L14.4785 5.17127L13.9201 5.29716L13.9216 5.86958L13.4751 5.51144L13.0285 5.86958L13.0301 5.29716L12.4717 5.17127L12.9201 4.81563L12.6704 4.30055L13.2281 4.42947L13.4751 3.91302Z" fill="#F0F0F0"/>
<path d="M15.4815 6.26099L15.7284 6.77743L16.2861 6.64848L16.0364 7.16355L16.4849 7.51923L15.9264 7.64512L15.928 8.2175L15.4815 7.8594L15.0349 8.2175L15.0364 7.64512L14.478 7.51923L14.9265 7.16355L14.6768 6.64848L15.2344 6.77743L15.4815 6.26099Z" fill="#F0F0F0"/>
<path d="M14.0465 9L14.2408 9.59787H14.8694L14.3608 9.96739L14.5551 10.5652L14.0465 10.1957L13.538 10.5652L13.7322 9.96739L13.2236 9.59787H13.8523L14.0465 9Z" fill="#F0F0F0"/>
</g>
</g>
<rect x="0.75" y="0.75" width="16.5" height="16.5" rx="8.25" stroke="#E8E5E1" stroke-width="1.5"/>
<defs>
<clipPath id="clip0_170_131">
<rect width="18" height="18" rx="9" fill="white"/>
</clipPath>
<clipPath id="clip1_170_131">
<rect width="18" height="18" fill="white"/>
</clipPath>
</defs>
</svg>
