<svg width="16" height="16" viewBox="0 0 16 16" fill="none" xmlns="http://www.w3.org/2000/svg">
<g clip-path="url(#clip0_1083_70136)">
<g clip-path="url(#clip1_1083_70136)">
<path d="M8 15.875C12.3492 15.875 15.875 12.3492 15.875 8C15.875 3.65076 12.3492 0.125 8 0.125C3.65076 0.125 0.125 3.65076 0.125 8C0.125 12.3492 3.65076 15.875 8 15.875Z" fill="#D80027"/>
<path d="M4.43472 4.91797L5.11455 7.00977H7.31401L5.53599 8.30483L6.21582 10.3966L4.43472 9.10464L2.65361 10.3966L3.33652 8.30483L1.55542 7.00977H3.75488L4.43472 4.91797Z" fill="#FFDA44"/>
<path d="M9.46113 12.3244L8.94126 11.6845L8.17222 11.9829L8.61826 11.2908L8.09839 10.6479L8.89512 10.8601L9.34424 10.168L9.3873 10.9924L10.1871 11.2046L9.41499 11.5L9.46113 12.3244Z" fill="#FFDA44"/>
<path d="M10.4947 10.4469L10.7408 9.65942L10.0671 9.18262L10.8916 9.17031L11.1346 8.38281L11.4022 9.16416L12.2266 9.15493L11.5652 9.64712L11.8298 10.4285L11.1561 9.95166L10.4947 10.4469Z" fill="#FFDA44"/>
<path d="M11.8883 5.90557L11.5253 6.64692L12.116 7.22217L11.3008 7.10527L10.9378 7.84355L10.7963 7.03144L9.97803 6.91455L10.7102 6.53003L10.5687 5.71484L11.1593 6.29009L11.8883 5.90557Z" fill="#FFDA44"/>
<path d="M9.48274 3.66016L9.42122 4.48149L10.1872 4.79219L9.3843 4.98906L9.32585 5.81348L8.89211 5.11211L8.08923 5.30898L8.62141 4.67837L8.18459 3.98008L8.95056 4.29077L9.48274 3.66016Z" fill="#FFDA44"/>
</g>
</g>
<rect x="2.75" y="2.75" width="10.5" height="10.5" rx="5.25" stroke="#E8E5E1" stroke-width="1.5"/>
<defs>
<clipPath id="clip0_1083_70136">
<rect x="2" y="2" width="12" height="12" rx="6" fill="white"/>
</clipPath>
<clipPath id="clip1_1083_70136">
<rect width="15.75" height="15.75" fill="white" transform="translate(0.125 0.125)"/>
</clipPath>
</defs>
</svg>
