<svg width="18" height="18" viewBox="0 0 18 18" fill="none" xmlns="http://www.w3.org/2000/svg">
<g clip-path="url(#clip0_123_1802)">
<path fill-rule="evenodd" clip-rule="evenodd" d="M3.0022 -0.000244141L15.0022 -0.000244141L15.0022 17.9998L3.0022 17.9998L3.0022 -0.000244141Z" fill="#F7FCFF"/>
<path fill-rule="evenodd" clip-rule="evenodd" d="M8.98371 5.24988L9.00171 14.2499H8.55171L8.82771 12.0224C6.81021 12.3854 5.88471 12.4754 6.05196 12.2924C6.21846 12.1094 6.34971 11.8499 6.44571 11.5139L3.75171 9.71613C4.03521 9.71313 4.29171 9.64263 4.52271 9.50538C4.75296 9.36813 4.63746 8.89338 4.17696 8.08038L5.53671 8.27838L6.05196 7.71888L7.07796 8.79288H7.53921L7.07796 6.33288L7.90521 6.79413L8.98371 5.24988ZM8.98371 5.24988L10.0982 6.79488L10.9255 6.33213L10.4642 8.79288H10.9255L11.9515 7.71888L12.466 8.27838L13.8265 8.08038C13.366 8.89338 13.2505 9.36813 13.4815 9.50538C13.7117 9.64263 13.969 9.71313 14.2517 9.71613L11.557 11.5139C11.6537 11.8499 11.785 12.1094 11.9515 12.2924C12.1187 12.4754 11.1932 12.3854 9.17571 12.0224L9.45096 14.2499H9.00171L8.98371 5.24988ZM15.0017 -0.00012207L21.0017 -0.00012207L21.0017 17.9999H15.0017L15.0017 -0.00012207ZM-2.99829 -0.00012207L3.00171 -0.00012207L3.00171 17.9999H-2.99829L-2.99829 -0.00012207Z" fill="#E31D1C"/>
<g clip-path="url(#clip1_123_1802)">
<path d="M8.99993 16.7143C13.2604 16.7143 16.7142 13.2605 16.7142 9.00005C16.7142 4.73957 13.2604 1.28577 8.99993 1.28577C4.73945 1.28577 1.28564 4.73957 1.28564 9.00005C1.28564 13.2605 4.73945 16.7143 8.99993 16.7143Z" fill="#D80027"/>
<path d="M13.0243 7.65859H10.3411V4.97534H7.65782V7.65859H4.97461V10.3418H7.65782V13.025H10.3411V10.3418H13.0243V7.65859Z" fill="#F0F0F0"/>
</g>
</g>
<rect x="0.75" y="0.75" width="16.5" height="16.5" rx="8.25" stroke="#F1EEEA" stroke-width="1.5"/>
<defs>
<clipPath id="clip0_123_1802">
<rect width="18" height="18" rx="9" fill="white"/>
</clipPath>
<clipPath id="clip1_123_1802">
<rect width="15.4286" height="15.4286" fill="white" transform="translate(1.28564 1.28577)"/>
</clipPath>
</defs>
</svg>
