<svg width="18" height="18" viewBox="0 0 18 18" fill="none" xmlns="http://www.w3.org/2000/svg">
<rect x="0.75" y="0.75" width="16.5" height="16.5" rx="8.25" stroke="#E8E5E1" stroke-width="1.5"/>
<g clip-path="url(#clip0_170_217)">
<path d="M9 16.875C13.3492 16.875 16.875 13.3492 16.875 9C16.875 4.65076 13.3492 1.125 9 1.125C4.65076 1.125 1.125 4.65076 1.125 9C1.125 13.3492 4.65076 16.875 9 16.875Z" fill="#D80027"/>
<path d="M5.43472 5.91772L6.11455 8.00952H8.31401L6.53599 9.30459L7.21582 11.3964L5.43472 10.1044L3.65361 11.3964L4.33652 9.30459L2.55542 8.00952H4.75488L5.43472 5.91772Z" fill="#FFDA44"/>
<path d="M10.4611 13.322L9.94126 12.6822L9.17222 12.9806L9.61826 12.2885L9.09839 11.6455L9.89512 11.8578L10.3442 11.1656L10.3873 11.9901L11.1871 12.2023L10.415 12.4976L10.4611 13.322Z" fill="#FFDA44"/>
<path d="M11.4947 11.4456L11.7408 10.6581L11.0671 10.1813L11.8916 10.169L12.1346 9.38147L12.4022 10.1628L13.2266 10.1536L12.5652 10.6458L12.8298 11.4271L12.1561 10.9503L11.4947 11.4456Z" fill="#FFDA44"/>
<path d="M12.8883 6.90514L12.5253 7.6465L13.116 8.22174L12.3008 8.10485L11.9378 8.84313L11.7963 8.03102L10.978 7.91412L11.7102 7.5296L11.5687 6.71442L12.1593 7.28966L12.8883 6.90514Z" fill="#FFDA44"/>
<path d="M10.4826 4.65955L10.4211 5.48088L11.1871 5.79158L10.3842 5.98845L10.3257 6.81287L9.89199 6.1115L9.08911 6.30837L9.62129 5.67776L9.18447 4.97947L9.95044 5.29016L10.4826 4.65955Z" fill="#FFDA44"/>
</g>
<defs>
<clipPath id="clip0_170_217">
<rect width="15.75" height="15.75" fill="white" transform="translate(1.125 1.125)"/>
</clipPath>
</defs>
</svg>
