<svg width="16" height="16" viewBox="0 0 16 16" fill="none" xmlns="http://www.w3.org/2000/svg">
<g clip-path="url(#clip0_1083_70270)">
<g clip-path="url(#clip1_1083_70270)">
<path d="M8.00004 13.2091C10.8774 13.2091 13.21 10.8765 13.21 7.99906C13.21 5.12166 10.8774 2.78906 8.00004 2.78906C5.12264 2.78906 2.79004 5.12166 2.79004 7.99906C2.79004 10.8765 5.12264 13.2091 8.00004 13.2091Z" fill="#F0F0F0"/>
<path d="M13.1659 7.3195H8.67964H8.67962V2.83316C8.45716 2.8042 8.23036 2.78906 8.00004 2.78906C7.76972 2.78906 7.54292 2.8042 7.32048 2.83316V7.31946V7.31948H2.83414C2.80518 7.54195 2.79004 7.7687 2.79004 7.99906C2.79004 8.22942 2.80518 8.45618 2.83414 8.67862H7.32044H7.32046V13.165C7.54292 13.1939 7.76972 13.2091 8.00004 13.2091C8.23036 13.2091 8.45716 13.1939 8.6796 13.165V8.67866V8.67864H13.1659C13.1949 8.45618 13.21 8.22942 13.21 7.99906C13.21 7.7687 13.1949 7.54195 13.1659 7.3195Z" fill="#D80027"/>
</g>
</g>
<rect x="2.75" y="2.75" width="10.5" height="10.5" rx="5.25" stroke="#E8E5E1" stroke-width="1.5"/>
<defs>
<clipPath id="clip0_1083_70270">
<rect x="2" y="2" width="12" height="12" rx="6" fill="white"/>
</clipPath>
<clipPath id="clip1_1083_70270">
<rect width="10.42" height="10.42" fill="white" transform="translate(2.79004 2.78906)"/>
</clipPath>
</defs>
</svg>
