<svg xmlns="http://www.w3.org/2000/svg" width="18" height="18" viewBox="0 0 18 18" fill="none">
    <g clip-path="url(#clip0_1172_1473)">
        <path
            d="M9 18C13.9706 18 18 13.9706 18 9C18 4.02944 13.9706 0 9 0C4.02944 0 0 4.02944 0 9C0 13.9706 4.02944 18 9 18Z"
            fill="#F0F0F0" />
        <path
            d="M18.0003 8.9999C18.0003 5.43176 14.9238 2.34869 11.9133 0.892944V17.1068C14.9238 15.6511 18.0003 12.5681 18.0003 8.9999Z"
            fill="#C01D20" />
        <path
            d="M0 8.99997C0 12.5681 3.0765 15.6512 6.08697 17.1069V0.893005C3.0765 2.34876 0 5.43182 0 8.99997Z"
            fill="#0B2048" />
    </g>
    <rect x="0.75" y="0.75" width="16.5" height="16.5" rx="8.25" stroke="#E8E5E1" stroke-width="1.5" />
    <defs>
        <clipPath id="clip0_1172_1473">
            <rect width="18" height="18" rx="9" fill="white" />
        </clipPath>
    </defs>
</svg>