<svg width="18" height="18" viewBox="0 0 18 18" fill="none" xmlns="http://www.w3.org/2000/svg">
<rect x="0.75" y="0.75" width="16.5" height="16.5" rx="8.25" stroke="#E8E5E1" stroke-width="1.5"/>
<g clip-path="url(#clip0_170_273)">
<path d="M9.00006 16.815C13.3162 16.815 16.8151 13.3161 16.8151 9C16.8151 4.68389 13.3162 1.185 9.00006 1.185C4.68395 1.185 1.18506 4.68389 1.18506 9C1.18506 13.3161 4.68395 16.815 9.00006 16.815Z" fill="#F0F0F0"/>
<path d="M16.7489 7.98066H10.0195H10.0194V1.25115C9.68573 1.20771 9.34554 1.185 9.00006 1.185C8.65458 1.185 8.31438 1.20771 7.98072 1.25115V7.9806V7.98063H1.25121C1.20777 8.31432 1.18506 8.65446 1.18506 9C1.18506 9.34554 1.20777 9.68567 1.25121 10.0193H7.98066H7.98069V16.7488C8.31438 16.7923 8.65458 16.815 9.00006 16.815C9.34554 16.815 9.68573 16.7923 10.0194 16.7488V10.0194V10.0194H16.7489C16.7923 9.68567 16.8151 9.34554 16.8151 9C16.8151 8.65446 16.7923 8.31432 16.7489 7.98066Z" fill="#D80027"/>
</g>
<defs>
<clipPath id="clip0_170_273">
<rect width="15.63" height="15.63" fill="white" transform="translate(1.18506 1.185)"/>
</clipPath>
</defs>
</svg>
