<svg width="18" height="18" viewBox="0 0 18 18" fill="none" xmlns="http://www.w3.org/2000/svg">
<g clip-path="url(#clip0_170_196)">
<path fill-rule="evenodd" clip-rule="evenodd" d="M3.0022 -0.000183105L15.0022 -0.000183105L15.0022 17.9998L3.0022 17.9998L3.0022 -0.000183105Z" fill="#F7FCFF"/>
<path fill-rule="evenodd" clip-rule="evenodd" d="M8.98371 5.24988L9.00171 14.2499H8.55171L8.82771 12.0224C6.81021 12.3854 5.88471 12.4754 6.05196 12.2924C6.21846 12.1094 6.34971 11.8499 6.44571 11.5139L3.75171 9.71613C4.03521 9.71313 4.29171 9.64263 4.52271 9.50538C4.75296 9.36813 4.63746 8.89338 4.17696 8.08038L5.53671 8.27838L6.05196 7.71888L7.07796 8.79288H7.53921L7.07796 6.33288L7.90521 6.79413L8.98371 5.24988ZM8.98371 5.24988L10.0982 6.79488L10.9255 6.33213L10.4642 8.79288H10.9255L11.9515 7.71888L12.466 8.27838L13.8265 8.08038C13.366 8.89338 13.2505 9.36813 13.4815 9.50538C13.7117 9.64263 13.969 9.71313 14.2517 9.71613L11.557 11.5139C11.6537 11.8499 11.785 12.1094 11.9515 12.2924C12.1187 12.4754 11.1932 12.3854 9.17571 12.0224L9.45096 14.2499H9.00171L8.98371 5.24988ZM15.0017 -0.00012207L21.0017 -0.00012207L21.0017 17.9999H15.0017L15.0017 -0.00012207ZM-2.99829 -0.00012207L3.00171 -0.00012207L3.00171 17.9999H-2.99829L-2.99829 -0.00012207Z" fill="#E31D1C"/>
<g clip-path="url(#clip1_170_196)">
<path d="M9 18C13.9706 18 18 13.9706 18 9C18 4.02944 13.9706 0 9 0C4.02944 0 0 4.02944 0 9C0 13.9706 4.02944 18 9 18Z" fill="#F0F0F0"/>
<path d="M8.99994 12.913C11.1611 12.913 12.913 11.1611 12.913 9.00001C12.913 6.8389 11.1611 5.08698 8.99994 5.08698C6.83884 5.08698 5.08691 6.8389 5.08691 9.00001C5.08691 11.1611 6.83884 12.913 8.99994 12.913Z" fill="#D80027"/>
</g>
</g>
<rect x="0.75" y="0.75" width="16.5" height="16.5" rx="8.25" stroke="#E8E5E1" stroke-width="1.5"/>
<defs>
<clipPath id="clip0_170_196">
<rect width="18" height="18" rx="9" fill="white"/>
</clipPath>
<clipPath id="clip1_170_196">
<rect width="18" height="18" fill="white"/>
</clipPath>
</defs>
</svg>
