<svg width="18" height="18" viewBox="0 0 18 18" fill="none" xmlns="http://www.w3.org/2000/svg">
<g clip-path="url(#clip0_170_114)">
<path d="M9 18C13.9706 18 18 13.9706 18 9C18 4.02944 13.9706 0 9 0C4.02944 0 0 4.02944 0 9C0 13.9706 4.02944 18 9 18Z" fill="#F0F0F0"/>
<path d="M18.0003 8.9999C18.0003 5.43176 15.9238 2.34869 12.9133 0.892944V17.1068C15.9238 15.6511 18.0003 12.5681 18.0003 8.9999Z" fill="#D80027"/>
<path d="M0 8.99997C0 12.5681 2.0765 15.6512 5.08697 17.1069V0.893005C2.0765 2.34876 0 5.43182 0 8.99997Z" fill="#6DA544"/>
<path d="M6.6521 9.00002C6.6521 10.2967 7.70327 11.3479 8.99994 11.3479C10.2966 11.3479 11.3478 10.2967 11.3478 9.00002V8.21741H6.6521V9.00002Z" fill="#6DA544"/>
<path d="M12.131 7.43484H9.78318C9.78318 7.00262 9.43278 6.65222 9.00057 6.65222C8.56836 6.65222 8.21796 7.00262 8.21796 7.43484H5.87012C5.87012 7.86708 6.24661 8.21745 6.67878 8.21745H6.65273C6.65273 8.64969 7.0031 9.00006 7.43534 9.00006C7.43534 9.43231 7.78571 9.78267 8.21796 9.78267H9.78318C10.2154 9.78267 10.5658 9.43231 10.5658 9.00006C10.998 9.00006 11.3484 8.64969 11.3484 8.21745H11.3223C11.7546 8.21745 12.131 7.86708 12.131 7.43484Z" fill="#FF9811"/>
</g>
<rect x="0.75" y="0.75" width="16.5" height="16.5" rx="8.25" stroke="#E8E5E1" stroke-width="1.5"/>
<defs>
<clipPath id="clip0_170_114">
<rect width="18" height="18" rx="9" fill="white"/>
</clipPath>
</defs>
</svg>
