<svg width="12" height="12" viewBox="0 0 12 12" fill="none" xmlns="http://www.w3.org/2000/svg">
<g clip-path="url(#clip0_1083_70124)">
<path d="M6 12C9.31371 12 12 9.31371 12 6C12 2.68629 9.31371 0 6 0C2.68629 0 0 2.68629 0 6C0 9.31371 2.68629 12 6 12Z" fill="#F0F0F0"/>
<path d="M5.73853 5.99882H11.9994C11.9994 5.45727 11.9272 4.93265 11.7927 4.43359H5.73853V5.99882Z" fill="#D80027"/>
<path d="M5.73853 2.86991H11.1187C10.7515 2.27057 10.2818 1.74081 9.73429 1.30469H5.73853V2.86991Z" fill="#D80027"/>
<path d="M5.99968 11.9997C7.41176 11.9997 8.70966 11.5116 9.73458 10.6953H2.26477C3.28969 11.5116 4.58759 11.9997 5.99968 11.9997Z" fill="#D80027"/>
<path d="M0.880366 9.13163H11.1191C11.414 8.65048 11.6426 8.12455 11.793 7.56641H0.206421C0.356819 8.12455 0.585499 8.65048 0.880366 9.13163Z" fill="#D80027"/>
<path d="M2.77931 0.936984H3.32609L2.81749 1.30648L3.01177 1.90434L2.5032 1.53485L1.99462 1.90434L2.16244 1.38785C1.71464 1.76086 1.32216 2.19788 0.998719 2.68481H1.17391L0.850172 2.92001C0.799734 3.00415 0.751359 3.08962 0.705 3.17637L0.859594 3.65217L0.571172 3.44262C0.499477 3.59452 0.433898 3.74984 0.374953 3.90839L0.545273 4.43264H1.17391L0.66532 4.80213L0.859594 5.4L0.351023 5.03051L0.0463828 5.25185C0.0158906 5.49696 0 5.74662 0 6H6C6 2.68631 6 2.29566 6 0C4.81472 0 3.7098 0.343828 2.77931 0.936984ZM3.01177 5.4L2.5032 5.03051L1.99462 5.4L2.1889 4.80213L1.6803 4.43264H2.30895L2.5032 3.83477L2.69745 4.43264H3.32609L2.81749 4.80213L3.01177 5.4ZM2.81749 3.0543L3.01177 3.65217L2.5032 3.28268L1.99462 3.65217L2.1889 3.0543L1.6803 2.68481H2.30895L2.5032 2.08695L2.69745 2.68481H3.32609L2.81749 3.0543ZM5.16394 5.4L4.65537 5.03051L4.1468 5.4L4.34107 4.80213L3.83248 4.43264H4.46112L4.65537 3.83477L4.84962 4.43264H5.47826L4.96966 4.80213L5.16394 5.4ZM4.96966 3.0543L5.16394 3.65217L4.65537 3.28268L4.1468 3.65217L4.34107 3.0543L3.83248 2.68481H4.46112L4.65537 2.08695L4.84962 2.68481H5.47826L4.96966 3.0543ZM4.96966 1.30648L5.16394 1.90434L4.65537 1.53485L4.1468 1.90434L4.34107 1.30648L3.83248 0.936984H4.46112L4.65537 0.339117L4.84962 0.936984H5.47826L4.96966 1.30648Z" fill="#0052B4"/>
</g>
<defs>
<clipPath id="clip0_1083_70124">
<rect width="12" height="12" fill="white"/>
</clipPath>
</defs>
</svg>
