<svg width="16" height="16" viewBox="0 0 16 16" fill="none" xmlns="http://www.w3.org/2000/svg">
<g clip-path="url(#clip0_1083_70119)">
<path fill-rule="evenodd" clip-rule="evenodd" d="M4.00098 2L12.001 2L12.001 14L4.00098 14L4.00098 2Z" fill="#F7FCFF"/>
<path fill-rule="evenodd" clip-rule="evenodd" d="M7.98922 5.5L8.00122 11.5H7.70122L7.88522 10.015C6.54022 10.257 5.92322 10.317 6.03472 10.195C6.14572 10.073 6.23322 9.9 6.29722 9.676L4.50122 8.4775C4.69022 8.4755 4.86122 8.4285 5.01522 8.337C5.16872 8.2455 5.09172 7.929 4.78472 7.387L5.69122 7.519L6.03472 7.146L6.71872 7.862H7.02622L6.71872 6.222L7.27022 6.5295L7.98922 5.5ZM7.98922 5.5L8.73222 6.53L9.28372 6.2215L8.97622 7.862H9.28372L9.96772 7.146L10.3107 7.519L11.2177 7.387C10.9107 7.929 10.8337 8.2455 10.9877 8.337C11.1412 8.4285 11.3127 8.4755 11.5012 8.4775L9.70472 9.676C9.76922 9.9 9.85672 10.073 9.96772 10.195C10.0792 10.317 9.46222 10.257 8.11722 10.015L8.30072 11.5H8.00122L7.98922 5.5ZM12.0012 2L16.0012 2V14H12.0012L12.0012 2ZM0.0012207 2L4.00122 2L4.00122 14H0.0012207L0.0012207 2Z" fill="#E31D1C"/>
<g clip-path="url(#clip1_1083_70119)">
<path d="M8 14C11.3137 14 14 11.3137 14 8C14 4.68629 11.3137 2 8 2C4.68629 2 2 4.68629 2 8C2 11.3137 4.68629 14 8 14Z" fill="#F0F0F0"/>
<path d="M7.73853 7.99882H13.9994C13.9994 7.45727 13.9272 6.93265 13.7927 6.43359H7.73853V7.99882Z" fill="#D80027"/>
<path d="M7.73853 4.86991H13.1187C12.7515 4.27057 12.2818 3.74081 11.7343 3.30469H7.73853V4.86991Z" fill="#D80027"/>
<path d="M7.99968 13.9997C9.41176 13.9997 10.7097 13.5116 11.7346 12.6953H4.26477C5.28969 13.5116 6.58759 13.9997 7.99968 13.9997Z" fill="#D80027"/>
<path d="M2.88037 11.1316H13.1191C13.414 10.6505 13.6426 10.1245 13.793 9.56641H2.20642C2.35682 10.1245 2.5855 10.6505 2.88037 11.1316Z" fill="#D80027"/>
<path d="M4.77931 2.93698H5.32609L4.81749 3.30648L5.01177 3.90434L4.5032 3.53485L3.99462 3.90434L4.16244 3.38785C3.71464 3.76086 3.32216 4.19788 2.99872 4.68481H3.17391L2.85017 4.92001C2.79973 5.00415 2.75136 5.08962 2.705 5.17637L2.85959 5.65217L2.57117 5.44262C2.49948 5.59452 2.4339 5.74984 2.37495 5.90839L2.54527 6.43264H3.17391L2.66532 6.80213L2.85959 7.4L2.35102 7.03051L2.04638 7.25185C2.01589 7.49696 2 7.74662 2 8H8C8 4.68631 8 4.29566 8 2C6.81472 2 5.7098 2.34383 4.77931 2.93698ZM5.01177 7.4L4.5032 7.03051L3.99462 7.4L4.1889 6.80213L3.6803 6.43264H4.30895L4.5032 5.83477L4.69745 6.43264H5.32609L4.81749 6.80213L5.01177 7.4ZM4.81749 5.0543L5.01177 5.65217L4.5032 5.28268L3.99462 5.65217L4.1889 5.0543L3.6803 4.68481H4.30895L4.5032 4.08695L4.69745 4.68481H5.32609L4.81749 5.0543ZM7.16394 7.4L6.65537 7.03051L6.1468 7.4L6.34107 6.80213L5.83248 6.43264H6.46112L6.65537 5.83477L6.84962 6.43264H7.47826L6.96966 6.80213L7.16394 7.4ZM6.96966 5.0543L7.16394 5.65217L6.65537 5.28268L6.1468 5.65217L6.34107 5.0543L5.83248 4.68481H6.46112L6.65537 4.08695L6.84962 4.68481H7.47826L6.96966 5.0543ZM6.96966 3.30648L7.16394 3.90434L6.65537 3.53485L6.1468 3.90434L6.34107 3.30648L5.83248 2.93698H6.46112L6.65537 2.33912L6.84962 2.93698H7.47826L6.96966 3.30648Z" fill="#0052B4"/>
</g>
</g>
<rect x="2.5" y="2.5" width="11" height="11" rx="5.5" stroke="#E8E5E1"/>
<defs>
<clipPath id="clip0_1083_70119">
<rect x="2" y="2" width="12" height="12" rx="6" fill="white"/>
</clipPath>
<clipPath id="clip1_1083_70119">
<rect width="12" height="12" fill="white" transform="translate(2 2)"/>
</clipPath>
</defs>
</svg>
