<svg width="18" height="18" viewBox="0 0 18 18" fill="none" xmlns="http://www.w3.org/2000/svg">
<g clip-path="url(#clip0_44_3266)">
<path fill-rule="evenodd" clip-rule="evenodd" d="M3.00122 -0.000183105L15.0012 -0.000183105L15.0012 17.9998L3.00122 17.9998L3.00122 -0.000183105Z" fill="#F7FCFF"/>
<path fill-rule="evenodd" clip-rule="evenodd" d="M8.98371 5.24988L9.00171 14.2499H8.55171L8.82771 12.0224C6.81021 12.3854 5.88471 12.4754 6.05196 12.2924C6.21846 12.1094 6.34971 11.8499 6.44571 11.5139L3.75171 9.71613C4.03521 9.71313 4.29171 9.64263 4.52271 9.50538C4.75296 9.36813 4.63746 8.89338 4.17696 8.08038L5.53671 8.27838L6.05196 7.71888L7.07796 8.79288H7.53921L7.07796 6.33288L7.90521 6.79413L8.98371 5.24988ZM8.98371 5.24988L10.0982 6.79488L10.9255 6.33213L10.4642 8.79288H10.9255L11.9515 7.71888L12.466 8.27838L13.8265 8.08038C13.366 8.89338 13.2505 9.36813 13.4815 9.50538C13.7117 9.64263 13.969 9.71313 14.2517 9.71613L11.557 11.5139C11.6537 11.8499 11.785 12.1094 11.9515 12.2924C12.1187 12.4754 11.1932 12.3854 9.17571 12.0224L9.45096 14.2499H9.00171L8.98371 5.24988ZM15.0017 -0.00012207L21.0017 -0.00012207L21.0017 17.9999H15.0017L15.0017 -0.00012207ZM-2.99829 -0.00012207L3.00171 -0.00012207L3.00171 17.9999H-2.99829L-2.99829 -0.00012207Z" fill="#E31D1C"/>
<g clip-path="url(#clip1_44_3266)">
<path d="M9 18C13.9706 18 18 13.9706 18 9C18 4.02944 13.9706 0 9 0C4.02944 0 0 4.02944 0 9C0 13.9706 4.02944 18 9 18Z" fill="#F0F0F0"/>
<path d="M8.60791 8.99896H17.9992C17.9992 8.18664 17.8909 7.39971 17.6892 6.65112H8.60791V8.99896Z" fill="#D80027"/>
<path d="M8.60791 4.30341H16.6782C16.1273 3.40439 15.4229 2.60975 14.6016 1.95557H8.60791V4.30341Z" fill="#D80027"/>
<path d="M8.99958 17.999C11.1177 17.999 13.0646 17.2669 14.6019 16.0425H3.39722C4.9346 17.2669 6.88145 17.999 8.99958 17.999Z" fill="#D80027"/>
<path d="M1.32073 13.6946H16.6788C17.1211 12.9729 17.4641 12.184 17.6897 11.3468H0.309814C0.535412 12.184 0.878432 12.9729 1.32073 13.6946Z" fill="#D80027"/>
<path d="M4.16897 1.40548H4.98913L4.22624 1.95971L4.51765 2.85652L3.75479 2.30228L2.99194 2.85652L3.24366 2.08178C2.57196 2.64129 1.98323 3.29681 1.49808 4.02722H1.76087L1.27526 4.38001C1.1996 4.50622 1.12704 4.63444 1.0575 4.76455L1.28939 5.47826L0.856758 5.16393C0.749215 5.39177 0.650848 5.62475 0.56243 5.86259L0.81791 6.64896H1.76087L0.99798 7.2032L1.28939 8.1L0.526535 7.54576L0.0695742 7.87778C0.0238359 8.24544 0 8.61993 0 9H9C9 4.02947 9 3.44348 9 0C7.22208 0 5.56471 0.515742 4.16897 1.40548ZM4.51765 8.1L3.75479 7.54576L2.99194 8.1L3.28335 7.2032L2.52046 6.64896H3.46342L3.75479 5.75216L4.04617 6.64896H4.98913L4.22624 7.2032L4.51765 8.1ZM4.22624 4.58146L4.51765 5.47826L3.75479 4.92402L2.99194 5.47826L3.28335 4.58146L2.52046 4.02722H3.46342L3.75479 3.13042L4.04617 4.02722H4.98913L4.22624 4.58146ZM7.74591 8.1L6.98305 7.54576L6.22019 8.1L6.51161 7.2032L5.74871 6.64896H6.69168L6.98305 5.75216L7.27443 6.64896H8.21739L7.4545 7.2032L7.74591 8.1ZM7.4545 4.58146L7.74591 5.47826L6.98305 4.92402L6.22019 5.47826L6.51161 4.58146L5.74871 4.02722H6.69168L6.98305 3.13042L7.27443 4.02722H8.21739L7.4545 4.58146ZM7.4545 1.95971L7.74591 2.85652L6.98305 2.30228L6.22019 2.85652L6.51161 1.95971L5.74871 1.40548H6.69168L6.98305 0.508676L7.27443 1.40548H8.21739L7.4545 1.95971Z" fill="#0052B4"/>
</g>
</g>
<rect x="0.75" y="0.75" width="16.5" height="16.5" rx="8.25" stroke="#E8E5E1" stroke-width="1.5"/>
<defs>
<clipPath id="clip0_44_3266">
<rect width="18" height="18" rx="9" fill="white"/>
</clipPath>
<clipPath id="clip1_44_3266">
<rect width="18" height="18" fill="white"/>
</clipPath>
</defs>
</svg>
