<svg width="24" height="24" viewBox="0 0 24 24" fill="none" xmlns="http://www.w3.org/2000/svg">
<path fill-rule="evenodd" clip-rule="evenodd" d="M16.3178 8.76769L9.70766 2.85156L2.84766 8.99128V16.5684H11.2352V15.0684H4.34766V9.66181L9.70766 4.8646L15.3175 9.8854L16.3178 8.76769ZM12.7766 15.4772C12.7766 13.1507 14.6428 11.2497 16.9635 11.2497C19.2841 11.2497 21.1504 13.1507 21.1504 15.4772C21.1504 16.2375 20.871 16.9566 20.5117 17.5745C20.1496 18.1972 19.6776 18.7662 19.2238 19.2404C18.7677 19.717 18.3143 20.1141 17.9761 20.3915C17.8064 20.5306 17.6643 20.6408 17.5634 20.7171C17.513 20.7553 17.4727 20.785 17.4444 20.8057L17.411 20.8299L17.4014 20.8367L17.3985 20.8388L17.3975 20.8395L16.9635 20.2278L16.5299 20.8398L16.5285 20.8388L16.5256 20.8367L16.516 20.8299L16.4826 20.8057C16.4543 20.785 16.414 20.7553 16.3635 20.7171C16.2627 20.6408 16.1205 20.5306 15.9509 20.3915C15.6127 20.1141 15.1593 19.717 14.7032 19.2404C14.2494 18.7662 13.7774 18.1972 13.4153 17.5745C13.056 16.9566 12.7766 16.2375 12.7766 15.4772ZM16.5299 20.8398C16.5301 20.8399 16.5302 20.84 16.9635 20.2278C17.3968 20.84 17.3973 20.8397 17.3975 20.8395L16.9635 21.1467L16.5299 20.8398ZM16.9635 19.2817L17.0249 19.2317C17.3311 18.9805 17.7369 18.6246 18.1401 18.2033C18.5454 17.7797 18.9327 17.3059 19.215 16.8204C19.5001 16.3302 19.6504 15.8759 19.6504 15.4772C19.6504 13.9624 18.4391 12.7497 16.9635 12.7497C15.4878 12.7497 14.2766 13.9625 14.2766 15.4772C14.2766 15.8759 14.4269 16.3302 14.712 16.8204C14.9943 17.3059 15.3815 17.7797 15.7869 18.2033C16.1901 18.6246 16.5959 18.9805 16.9021 19.2317L16.9635 19.2817ZM16.0225 14.4956H17.9043V16.3775H16.0225V14.4956Z" fill="#2B2A28"/>
</svg>
