<svg width="24" height="24" viewBox="0 0 24 24" fill="none" xmlns="http://www.w3.org/2000/svg">
<path fill-rule="evenodd" clip-rule="evenodd" d="M15.6717 2.00879H3.68945V21.9915H20.3117V6.64875L15.6717 2.00879ZM5.18945 20.4915V3.50879H15.0504L18.8117 7.27007V20.4915H5.18945ZM12.1038 4.94922C11.5149 4.94922 10.9502 5.18313 10.5338 5.59951C10.1175 6.01588 9.88354 6.5806 9.88354 7.16944C9.88354 7.75828 10.1175 8.323 10.5338 8.73937C10.9502 9.15574 11.5149 9.38966 12.1038 9.38966C12.6926 9.38966 13.2573 9.15574 13.6737 8.73937C14.0901 8.323 14.324 7.75828 14.324 7.16944C14.324 6.5806 14.0901 6.01588 13.6737 5.59951C13.2573 5.18313 12.6926 4.94922 12.1038 4.94922ZM11.5945 6.66017C11.7296 6.5251 11.9128 6.44922 12.1038 6.44922C12.2948 6.44922 12.478 6.5251 12.613 6.66017C12.7481 6.79523 12.824 6.97842 12.824 7.16944C12.824 7.36045 12.7481 7.54364 12.613 7.67871C12.478 7.81378 12.2948 7.88966 12.1038 7.88966C11.9128 7.88966 11.7296 7.81378 11.5945 7.67871C11.4594 7.54364 11.3835 7.36045 11.3835 7.16944C11.3835 6.97842 11.4594 6.79523 11.5945 6.66017ZM16.2011 15.6906H7.7998V14.1906H16.2011V15.6906ZM14.5208 18.631H7.7998V17.131H14.5208V18.631ZM10.2302 11.5508V12.4202H8.73022V10.8237L8.98138 10.6C8.98127 10.6001 8.98216 10.6011 9.04355 10.67C9.10591 10.7399 9.23068 10.8799 9.48022 11.16L8.98138 10.6L8.9824 10.5991L8.9835 10.5981L8.98599 10.5959L8.99205 10.5906L9.00857 10.5765C9.02152 10.5657 9.03836 10.5518 9.05905 10.5355C9.1004 10.5028 9.15726 10.46 9.22925 10.4105C9.37306 10.3118 9.57843 10.1858 9.84223 10.0615C10.3708 9.81247 11.1355 9.56992 12.1037 9.56992C13.0719 9.56992 13.8365 9.81247 14.3651 10.0615C14.6289 10.1858 14.8343 10.3118 14.9781 10.4105C15.0501 10.46 15.107 10.5028 15.1483 10.5355C15.169 10.5518 15.1858 10.5657 15.1988 10.5765L15.2153 10.5906L15.2214 10.5959L15.2239 10.5981L15.225 10.5991C15.2252 10.5993 15.226 10.6 14.7271 11.16L15.226 10.6L15.4771 10.8237V12.4202H13.9771V11.5508C13.907 11.5096 13.8231 11.4643 13.7259 11.4185C13.3628 11.2474 12.8158 11.0699 12.1037 11.0699C11.3916 11.0699 10.8445 11.2474 10.4815 11.4185C10.3843 11.4643 10.3004 11.5096 10.2302 11.5508Z" fill="#2B2A28"/>
</svg>
