<svg width="24" height="24" viewBox="0 0 24 24" fill="none" xmlns="http://www.w3.org/2000/svg">
<path fill-rule="evenodd" clip-rule="evenodd" d="M16.3188 8.76818L9.70863 2.85205L2.84863 8.99177V16.5689H11.2361V15.0689H4.34863V9.6623L9.70863 4.86509L15.3185 9.88589L16.3188 8.76818ZM12.7776 15.4777C12.7776 13.1512 14.6438 11.2502 16.9645 11.2502C19.2851 11.2502 21.1513 13.1512 21.1513 15.4777C21.1513 16.238 20.872 16.9571 20.5127 17.575C20.1506 18.1976 19.6786 18.7666 19.2248 19.2409C18.7687 19.7175 18.3153 20.1146 17.9771 20.392C17.8074 20.5311 17.6653 20.6413 17.5644 20.7176C17.5139 20.7557 17.4737 20.7855 17.4454 20.8062L17.412 20.8303L17.4024 20.8372L17.3994 20.8393L17.3984 20.84L16.9645 20.2283L16.5309 20.8403L16.5295 20.8393L16.5265 20.8372L16.5169 20.8303L16.4836 20.8062C16.4552 20.7855 16.415 20.7557 16.3645 20.7176C16.2636 20.6413 16.1215 20.5311 15.9518 20.392C15.6136 20.1146 15.1602 19.7175 14.7042 19.2409C14.2503 18.7666 13.7784 18.1976 13.4163 17.575C13.0569 16.9571 12.7776 16.238 12.7776 15.4777ZM16.5309 20.8403C16.531 20.8404 16.5312 20.8405 16.9645 20.2283C17.3977 20.8405 17.3983 20.8401 17.3984 20.84L16.9645 21.1472L16.5309 20.8403ZM16.9645 19.2822L17.0259 19.2321C17.3321 18.981 17.7379 18.6251 18.141 18.2038C18.5464 17.7802 18.9337 17.3064 19.216 16.8209C19.5011 16.3307 19.6513 15.8764 19.6513 15.4777C19.6513 13.9629 18.4401 12.7502 16.9645 12.7502C15.4888 12.7502 14.2776 13.9629 14.2776 15.4777C14.2776 15.8764 14.4279 16.3307 14.7129 16.8209C14.9953 17.3064 15.3825 17.7802 15.7879 18.2038C16.191 18.6251 16.5968 18.981 16.9031 19.2321L16.9645 19.2822ZM16.0234 14.4961H17.9053V16.378H16.0234V14.4961Z" fill="#2B2A28"/>
</svg>
