<svg width="16" height="16" viewBox="0 0 16 16" fill="none" xmlns="http://www.w3.org/2000/svg">
<path fill-rule="evenodd" clip-rule="evenodd" d="M8.50049 3.20312V8.74609L10.3443 6.90226L11.0514 7.60937L8.00056 10.6602L4.94971 7.60937L5.65681 6.90226L7.50049 8.74594V3.20312H8.50049ZM2.64111 10.7344V9.45312H1.64111V10.7344C1.64111 11.2814 1.85841 11.806 2.24521 12.1928C2.632 12.5796 3.1566 12.7969 3.70361 12.7969H12.2974C12.8444 12.7969 13.369 12.5796 13.7558 12.1928C14.1426 11.806 14.3599 11.2814 14.3599 10.7344V9.45312H13.3599V10.7344C13.3599 11.0162 13.2479 11.2864 13.0487 11.4857C12.8494 11.6849 12.5792 11.7969 12.2974 11.7969H3.70361C3.42182 11.7969 3.15157 11.6849 2.95231 11.4857C2.75305 11.2864 2.64111 11.0162 2.64111 10.7344Z" fill="white"/>
</svg>
