<svg width="117" height="31" viewBox="0 0 117 31" fill="none" xmlns="http://www.w3.org/2000/svg">
<g clip-path="url(#clip0_4045_40866)">
<path d="M48.3633 10.0121H49.4656V1.03041H48.3633V10.0143V10.0121ZM56.0394 1.00391V4.66638H50.0708V5.81062H56.035V9.99883H57.1881V1.00391H56.0394Z" fill="#223368"/>
<path d="M67.842 9.86187C67.8597 9.89501 67.8862 9.94139 67.9193 10.0032H66.6227L65.9865 8.73088L65.3658 7.44526H60.7534C60.5546 7.86496 60.347 8.2935 60.1327 8.73088C59.9184 9.16825 59.7174 9.57912 59.5098 10.0165H58.2617L58.339 9.86187C58.6152 9.29637 58.9001 8.71321 59.1939 8.11458C59.47 7.54024 59.755 6.95708 60.0488 6.36728H64.8444C64.5926 5.84596 64.3386 5.32244 64.0779 4.79891L63.3136 3.2438C63.2628 3.13998 63.2142 3.04941 63.1723 2.9721C63.1303 2.89478 63.0883 2.80422 63.0552 2.72911C63.0463 2.74678 63.0331 2.77771 63.0154 2.81968C62.9801 2.88816 62.9447 2.96105 62.9116 3.03837C62.8873 3.10243 62.8564 3.16207 62.8188 3.21729C62.6023 3.67234 62.3903 4.11413 62.1826 4.54267L61.5862 5.76202H60.3426L61.4957 3.40947C61.8778 2.63633 62.2732 1.83227 62.6797 1.00391H63.4705C64.2834 2.65621 65.0079 4.12739 65.6441 5.4108L67.8376 9.86187" fill="#223368"/>
<path d="M76.6575 1.00391H77.7973V10.0121H77.1434L70.2934 3.30344V1.75054L76.6663 8.04831C76.6575 7.93565 76.6553 7.8252 76.6553 7.71475V1.00391H76.6575ZM68.5947 1.00391H69.2552L69.6837 1.40152V9.99883H68.5947V1.00391Z" fill="#223368"/>
<path d="M86.6913 1.95597H83.9301V1.00391H86.6913V1.95376V1.95597ZM78.7324 1.00391H83.3293V10.0121H82.1585V1.95597H78.7324V1.00391Z" fill="#223368"/>
<path d="M89.6801 6.544H92.713V5.61844H89.6801V6.544ZM87.8975 1.00391V10.0121H93.2454V9.06001H89.066V1.95597H93.1106V1.00391H87.8975Z" fill="#223368"/>
<path d="M95.6354 4.11465C95.5493 4.32671 95.4808 4.54539 95.4278 4.77071C95.3836 5.01149 95.3615 5.25668 95.3637 5.50188C95.3615 5.9746 95.4676 6.44069 95.673 6.86481C95.779 7.08129 95.9094 7.28452 96.0618 7.47007C96.223 7.67329 96.4064 7.85885 96.6074 8.02231C96.8084 8.19903 97.0249 8.35366 97.2568 8.4862C97.4866 8.61432 97.7251 8.72476 97.9681 8.81975C98.2266 8.9059 98.4894 8.96996 98.7589 9.01414C99.0417 9.05832 99.3288 9.08041 99.6138 9.0782C99.9231 9.0782 100.228 9.06495 100.522 9.03844C100.802 9.01414 101.081 8.97659 101.357 8.92136C101.394 8.91032 101.434 8.90148 101.474 8.89706V9.84692C101.447 9.84692 101.421 9.85355 101.396 9.86017C101.374 9.86017 101.352 9.86459 101.332 9.87122H101.279C101.131 9.88889 100.994 9.91098 100.864 9.93528C100.709 9.95295 100.566 9.9662 100.436 9.97504C100.305 9.98388 100.157 10.006 100.02 10.0148H99.6182C99.2582 10.0148 98.9003 9.9905 98.5424 9.93749C98.2023 9.88668 97.8687 9.80716 97.544 9.69671C97.2281 9.58847 96.9211 9.45372 96.6295 9.29026C96.3357 9.12459 96.0551 8.93682 95.7945 8.72476C95.5405 8.52375 95.3107 8.29622 95.1075 8.0444C94.9087 7.80583 94.7342 7.54517 94.5884 7.27126C94.4603 6.99956 94.3609 6.7146 94.2924 6.42081C94.2217 6.11818 94.1864 5.80672 94.1886 5.49525C94.1886 5.19262 94.2173 4.8922 94.2791 4.5962C94.3388 4.31124 94.4249 4.0307 94.5376 3.76121C94.6502 3.48951 94.8005 3.23106 94.9794 2.99691C95.1627 2.75392 95.366 2.5264 95.5868 2.31655C95.8166 2.09786 96.0706 1.90347 96.3401 1.7378C96.6074 1.57433 96.8923 1.43958 97.1884 1.33576C97.4799 1.2209 97.7848 1.14137 98.0962 1.09719C98.4232 1.0486 98.7501 1.0243 99.0814 1.0243V1C99.4746 1 99.87 1.01988 100.261 1.06406C100.632 1.09719 101.008 1.14358 101.39 1.20543C101.414 1.21648 101.441 1.2209 101.467 1.21869V2.16854C101.427 2.16854 101.39 2.16192 101.35 2.15529C100.977 2.08681 100.606 2.03601 100.235 2.00066C99.8855 1.95869 99.5365 1.9366 99.1853 1.9366C98.6595 1.92998 98.1382 2.01613 97.6434 2.19505C96.9652 2.45571 96.3777 2.91297 95.958 3.50718C95.832 3.69936 95.7238 3.90038 95.6332 4.11244" fill="#223368"/>
<path d="M89.4545 16.3111C89.3684 16.5232 89.2999 16.7441 89.2469 16.9672C89.2005 17.2102 89.1784 17.4554 89.1784 17.7028C89.1784 17.9414 89.2049 18.1777 89.2557 18.4097C89.3088 18.635 89.3861 18.8559 89.4877 19.0657C89.5915 19.2822 89.7218 19.4832 89.8742 19.6688C90.0355 19.872 90.2188 20.0576 90.4199 20.221C90.6209 20.3955 90.8374 20.5524 91.0693 20.6849C91.299 20.8108 91.5376 20.9235 91.7806 21.0185C92.039 21.1046 92.3041 21.1687 92.5736 21.2128C92.8564 21.257 93.1413 21.2769 93.4285 21.2769C93.7377 21.2769 94.0426 21.2637 94.3364 21.2371C94.6169 21.2128 94.8952 21.1731 95.1714 21.1201C95.2089 21.109 95.2487 21.1002 95.2884 21.0958V22.0456C95.2619 22.0456 95.2354 22.05 95.2111 22.0567C95.189 22.0567 95.1669 22.0633 95.1471 22.0699H95.0963C94.9483 22.0876 94.8113 22.1097 94.681 22.134C94.5263 22.1517 94.3828 22.1649 94.2524 22.1737C94.1221 22.1826 93.9741 22.2047 93.8371 22.2135H93.4351C93.075 22.2135 92.7172 22.1892 92.3593 22.1362C91.69 22.039 91.0428 21.8225 90.453 21.4956C90.1592 21.3299 89.8787 21.1422 89.618 20.9301C89.364 20.7291 89.132 20.5016 88.9288 20.2475C88.5224 19.7859 88.2418 19.2292 88.1137 18.6284C88.043 18.3235 88.0077 18.012 88.0121 17.7006C88.0121 17.398 88.0408 17.0953 88.1027 16.7993C88.1623 16.5122 88.2485 16.2338 88.3611 15.9643C88.4738 15.6904 88.624 15.4342 88.8029 15.1978C88.9862 14.9548 89.1895 14.7273 89.4104 14.5175C89.6401 14.2988 89.8919 14.1044 90.1614 13.9387C90.4309 13.773 90.7181 13.6383 91.0185 13.5367C91.3101 13.424 91.6149 13.3423 91.9264 13.2981C92.2533 13.2517 92.5802 13.2274 92.9116 13.2274V13.2031C93.3048 13.2031 93.7002 13.223 94.0912 13.2672C94.4623 13.3025 94.8378 13.3489 95.22 13.4086C95.2443 13.4174 95.2708 13.4218 95.2973 13.4196V14.3717C95.2575 14.3717 95.22 14.3673 95.1802 14.3606C94.8069 14.2921 94.4358 14.2413 94.0647 14.206C93.7156 14.164 93.3644 14.1441 93.0132 14.1419C92.4875 14.1331 91.9639 14.2215 91.4713 14.4004C90.791 14.6588 90.2012 15.1161 89.7793 15.7103C89.6534 15.9003 89.5451 16.1035 89.4545 16.3134" fill="#223368"/>
<path d="M66.616 19.4927V16.5459C66.616 16.5459 66.7265 14.686 68.8029 13.2656H65.8672" fill="#FF3F32"/>
<path d="M50.126 17.6538H53.519V16.7172H50.126V17.6538ZM48.3633 13.2734V22.2131H49.5119V14.2189H53.9498V13.2734H48.3633Z" fill="#223368"/>
<path d="M56.2604 13.2578H55.125V22.2086H56.2604V13.2578Z" fill="#223368"/>
<path d="M57.6895 13.2578H58.3389L58.7608 13.6532V22.1975H57.6895V13.26V13.2578ZM65.6241 13.2578H66.7462V22.2063H66.1145L59.3616 15.5419V13.9978L65.6373 20.2536C65.6373 20.1432 65.6241 20.0327 65.6241 19.9201V13.2578Z" fill="#223368"/>
<path d="M76.8611 22.0639C76.8787 22.0971 76.9052 22.1435 76.9384 22.2053H75.6638L75.0387 20.9418L74.4268 19.665H69.8829C69.6863 20.0803 69.4831 20.5066 69.271 20.9418C69.0678 21.3571 68.8624 21.7834 68.6592 22.2186H67.4199L67.4972 22.0639C67.7689 21.5029 68.0473 20.9241 68.3322 20.3277C68.6039 19.7578 68.8823 19.179 69.1672 18.5914H73.901C73.6536 18.0723 73.4018 17.5532 73.1478 17.0341L72.3967 15.4878C72.3459 15.3862 72.2973 15.2979 72.2554 15.2206C72.2134 15.1432 72.1736 15.0527 72.1383 14.9776C72.1294 14.9952 72.1184 15.024 72.0985 15.0659C72.0654 15.1344 72.0322 15.2073 71.9969 15.2824C71.9748 15.3443 71.9439 15.4061 71.9085 15.4613C71.6965 15.912 71.4888 16.3516 71.2834 16.7779L70.6958 17.9906H69.4698L70.6053 15.6513C70.9874 14.8848 71.3784 14.0896 71.776 13.2656H72.5536C73.3532 14.9069 74.0667 16.367 74.6963 17.646C75.4341 19.1658 76.1542 20.6392 76.8544 22.0662" fill="#223368"/>
<path d="M77.6143 13.2578H78.2637L78.6856 13.6532V22.1975H77.6143V13.26V13.2578ZM85.5489 13.2578H86.671V22.2063H86.0326L79.2864 15.5419V13.9978L85.5621 20.2536C85.5533 20.1432 85.5489 20.0327 85.5489 19.9201V13.2578Z" fill="#223368"/>
<path d="M112.174 22.2113H116.422V21.2261H112.174V22.2113ZM111.556 13.2031H110.411V22.198H111.556V13.2031ZM106.892 17.61C106.25 16.3244 105.516 14.8554 104.692 13.2053H103.886C103.475 14.0359 103.073 14.8356 102.678 15.6087L101.507 17.9612H102.77L103.385 16.7375C103.594 16.3089 103.811 15.8671 104.027 15.4143C104.065 15.3591 104.096 15.2994 104.12 15.2354C104.156 15.1581 104.191 15.0852 104.226 15.0167C104.262 14.9482 104.257 14.9438 104.266 14.9261C104.301 15.0034 104.339 15.0852 104.385 15.1691C104.432 15.253 104.478 15.337 104.529 15.4408L105.302 16.9959C105.565 17.5194 105.823 18.0408 106.075 18.5643H101.213C100.915 19.1563 100.626 19.7395 100.345 20.3116L99.4725 22.0655L99.3952 22.2201H100.67C100.88 21.7805 101.092 21.352 101.302 20.9345C101.52 20.4971 101.73 20.0686 101.931 19.6489H106.61L107.241 20.9345L107.884 22.2069H109.201C109.165 22.1472 109.139 22.1009 109.123 22.0655C108.403 20.6341 107.663 19.1519 106.901 17.6189M97.0117 22.2179H98.1825V13.2053H97.0117V22.2179Z" fill="#223368"/>
<path d="M20.5367 9.91797C19.6045 9.91797 18.5398 10.6734 18.1576 11.6056L14.6299 20.2118C14.2478 21.1439 14.694 21.8994 15.6262 21.8994H20.3467C21.2789 21.8994 22.3436 21.1439 22.7258 20.2118L26.2535 11.6056C26.6357 10.6734 26.1895 9.91797 25.2573 9.91797H20.5367Z" fill="#FF3F32"/>
<path d="M39.7529 0.90625H35.0014C34.0692 0.90625 33.0023 1.66172 32.6201 2.5939L22.64 26.8351C21.71 29.0839 19.8545 30.9062 19.8545 30.9062H27.4092C28.3414 30.9062 29.4083 30.1508 29.7904 29.2186L40.7447 2.5939C41.1291 1.66172 40.6829 0.90625 39.7529 0.90625Z" fill="#FF3F32"/>
<path d="M1.1311 30.9062H5.88259C6.81478 30.9062 7.88171 30.1508 8.26386 29.2186L18.244 4.97738C19.1762 2.72865 21.0317 0.90625 21.0317 0.90625H13.477C12.5448 0.90625 11.4779 1.66172 11.0958 2.5939L0.137067 29.2186C-0.247294 30.1508 0.198918 30.9062 1.12889 30.9062" fill="#FF3F32"/>
<path d="M51.4977 28.294C51.4977 29.1334 50.9389 29.679 50.1812 29.679C49.8278 29.679 49.5251 29.5531 49.3219 29.2946V29.6437H48.7432V25.8906H49.3506V27.2712C49.5583 27.0282 49.8499 26.9112 50.1812 26.9112C50.9389 26.9112 51.4977 27.4524 51.4977 28.2918V28.294ZM50.8814 28.294C50.8814 27.7793 50.5523 27.4502 50.1149 27.4502C49.6776 27.4502 49.344 27.7793 49.344 28.294C49.344 28.8087 49.6798 29.1378 50.1149 29.1378C50.5501 29.1378 50.8814 28.8087 50.8814 28.294Z" fill="#999999"/>
<path d="M54.4802 26.9453L53.2675 29.8634C53.029 30.4752 52.6998 30.663 52.2669 30.663C52.0106 30.663 51.7367 30.5724 51.5732 30.4156L51.8162 29.9495C51.9333 30.0666 52.0968 30.1373 52.2624 30.1373C52.4767 30.1373 52.6026 30.0312 52.7197 29.7617L52.7639 29.6557L51.6329 26.9453H52.2647L53.0798 28.9422L53.8993 26.9453H54.4825H54.4802Z" fill="#999999"/>
<path d="M58.5902 26.1016V29.6425H57.9585V28.125H56.2001V29.6425H55.5684V26.1016H56.2001V27.5639H57.9585V26.1016H58.5902Z" fill="#FF3F32"/>
<path d="M61.6651 28.0605V29.6443H61.0929V29.3152C60.9471 29.5472 60.6666 29.6797 60.2778 29.6797C59.6858 29.6797 59.3125 29.3417 59.3125 28.8712C59.3125 28.4007 59.6041 28.0671 60.3905 28.0671H61.0598V28.0274C61.0598 27.6585 60.8455 27.4398 60.4148 27.4398C60.1232 27.4398 59.8228 27.5414 59.6284 27.7071L59.3898 27.2476C59.6659 27.0245 60.0702 26.9141 60.4877 26.9141C61.2343 26.9141 61.6673 27.283 61.6673 28.0627L61.6651 28.0605ZM61.0576 28.8005V28.4868H60.4302C60.0172 28.4868 59.9067 28.6481 59.9067 28.8469C59.9067 29.0744 60.0923 29.2202 60.4015 29.2202C60.7108 29.2202 60.956 29.0789 61.0576 28.8005Z" fill="#FF3F32"/>
<path d="M65.0448 28.0981V29.6466H64.4373V28.1798C64.4373 27.7005 64.2098 27.4663 63.821 27.4663C63.3881 27.4663 63.0987 27.7402 63.0987 28.2814V29.6466H62.4912V26.945H63.07V27.294C63.2688 27.0466 63.5847 26.9141 63.9624 26.9141C64.5831 26.9141 65.0448 27.283 65.0448 28.0981Z" fill="#FF3F32"/>
<path d="M67.4234 29.4976C67.2776 29.6191 67.0589 29.6788 66.8402 29.6788C66.2725 29.6788 65.9478 29.3651 65.9478 28.7687V27.4698H65.5215V26.964H65.9478V26.3477H66.5553V26.964H67.2489V27.4698H66.5553V28.7554C66.5553 29.0183 66.6812 29.1597 66.9153 29.1597C67.0413 29.1597 67.1627 29.1243 67.2555 29.047L67.4256 29.4976H67.4234Z" fill="#FF3F32"/>
<path d="M70.3128 28.494H68.2784C68.3513 28.8894 68.6671 29.1412 69.1178 29.1412C69.4094 29.1412 69.6369 29.044 69.8224 28.8474L70.1472 29.2362C69.9152 29.5256 69.5507 29.6758 69.1023 29.6758C68.2342 29.6758 67.6709 29.0948 67.6709 28.2908C67.6709 27.4867 68.2386 26.9102 69.0117 26.9102C69.7849 26.9102 70.3217 27.4624 70.3217 28.3062C70.3217 28.357 70.3172 28.4321 70.3128 28.494ZM68.2717 28.0743H69.7429C69.6943 27.6855 69.4071 27.416 69.0095 27.416C68.6119 27.416 68.3292 27.6789 68.2717 28.0743Z" fill="#FF3F32"/>
<path d="M70.7393 28.2947C70.7393 27.4862 71.3224 26.9141 72.142 26.9141C72.6478 26.9141 73.0498 27.1305 73.2486 27.5414L72.7826 27.8242C72.6279 27.5657 72.3938 27.4508 72.1375 27.4508C71.6913 27.4508 71.3511 27.7756 71.3511 28.2947C71.3511 28.8138 71.6913 29.1385 72.1375 29.1385C72.396 29.1385 72.6279 29.0214 72.7826 28.7652L73.2486 29.0479C73.0498 29.4522 72.6456 29.6797 72.142 29.6797C71.3224 29.6797 70.7393 29.1032 70.7393 28.2947Z" fill="#FF3F32"/>
<path d="M77.592 27.8329H78.1884V29.2444C77.8349 29.5426 77.3379 29.6951 76.8586 29.6951C75.8049 29.6951 75.0273 28.9308 75.0273 27.8749C75.0273 26.819 75.8049 26.0547 76.8674 26.0547C77.4351 26.0547 77.9123 26.2513 78.2326 26.6312L77.8349 27.0355C77.5677 26.7571 77.2628 26.6312 76.8983 26.6312C76.1738 26.6312 75.6657 27.1415 75.6657 27.8749C75.6657 28.6083 76.176 29.1185 76.8939 29.1185C77.1369 29.1185 77.3755 29.0677 77.5942 28.9374V27.8351L77.592 27.8329Z" fill="#FF3F32"/>
<path d="M80.5099 26.9141V27.5149C80.4569 27.5039 80.4127 27.4994 80.3685 27.4994C79.9069 27.4994 79.6153 27.7822 79.6153 28.3344V29.6443H79.0078V26.9428H79.5866V27.3382C79.7611 27.0554 80.077 26.9141 80.5099 26.9141Z" fill="#FF3F32"/>
<path d="M80.835 28.2947C80.835 27.4862 81.4181 26.9141 82.2134 26.9141C83.0086 26.9141 83.5962 27.4862 83.5962 28.2947C83.5962 29.1032 83.0174 29.6797 82.2134 29.6797C81.4093 29.6797 80.835 29.1032 80.835 28.2947ZM82.9865 28.2947C82.9865 27.78 82.6574 27.4508 82.2156 27.4508C81.7738 27.4508 81.4491 27.78 81.4491 28.2947C81.4491 28.8094 81.7782 29.1385 82.2156 29.1385C82.6529 29.1385 82.9865 28.8094 82.9865 28.2947Z" fill="#FF3F32"/>
<path d="M86.7392 26.9453V29.6469H86.1605V29.3023C85.9661 29.5497 85.6613 29.6822 85.3255 29.6822C84.6606 29.6822 84.21 29.3023 84.21 28.4894V26.9475H84.8174V28.4032C84.8174 28.8936 85.0405 29.1256 85.4249 29.1256C85.8468 29.1256 86.134 28.8517 86.134 28.3105V26.9453H86.7414H86.7392Z" fill="#FF3F32"/>
<path d="M90.3376 28.293C90.3376 29.1324 89.7787 29.678 89.021 29.678C88.6919 29.678 88.4003 29.5609 88.1905 29.3135V30.6234H87.583V26.9411H88.1618V27.2945C88.365 27.0361 88.6676 26.9102 89.021 26.9102C89.7787 26.9102 90.3376 27.4558 90.3376 28.2908V28.293ZM89.7191 28.293C89.7191 27.7783 89.3899 27.4491 88.9526 27.4491C88.5152 27.4491 88.1816 27.7783 88.1816 28.293C88.1816 28.8077 88.5174 29.1368 88.9526 29.1368C89.3877 29.1368 89.7191 28.8077 89.7191 28.293Z" fill="#FF3F32"/>
</g>
<defs>
<clipPath id="clip0_4045_40866">
<rect width="116.421" height="30" fill="white" transform="translate(0 0.90625)"/>
</clipPath>
</defs>
</svg>
