<svg width="25" height="24" viewBox="0 0 25 24" fill="none" xmlns="http://www.w3.org/2000/svg">
<path fill-rule="evenodd" clip-rule="evenodd" d="M12.5 1.25C6.56294 1.25 1.75 6.06294 1.75 12C1.75 17.9371 6.56294 22.75 12.5 22.75C18.4371 22.75 23.25 17.9371 23.25 12C23.25 6.06294 18.4371 1.25 12.5 1.25ZM12.5 8.75C12.9142 8.75 13.25 8.41421 13.25 8C13.25 7.58579 12.9142 7.25 12.5 7.25C12.0858 7.25 11.75 7.58579 11.75 8C11.75 8.41421 12.0858 8.75 12.5 8.75ZM13.25 11C13.25 10.5858 12.9142 10.25 12.5 10.25H11V11.75H11.75V15.25H11C10.5858 15.25 10.25 15.5858 10.25 16C10.25 16.4142 10.5858 16.75 11 16.75H14V15.25H13.25V11Z" fill="#2B2A28"/>
</svg>
