<svg width="20" height="20" viewBox="0 0 20 20" fill="none" xmlns="http://www.w3.org/2000/svg">
<path fill-rule="evenodd" clip-rule="evenodd" d="M10 2.28906C5.74282 2.28906 2.29169 5.7402 2.29169 9.9974C2.29169 14.2546 5.74282 17.7057 10 17.7057C14.2572 17.7057 17.7084 14.2546 17.7084 9.9974C17.7084 5.7402 14.2572 2.28906 10 2.28906ZM1.04169 9.9974C1.04169 5.04984 5.05247 1.03906 10 1.03906C14.9476 1.03906 18.9584 5.04984 18.9584 9.9974C18.9584 14.9449 14.9476 18.9557 10 18.9557C5.05247 18.9557 1.04169 14.9449 1.04169 9.9974ZM8.75002 9.78906V8.53906H10C10.3452 8.53906 10.625 8.81888 10.625 9.16406V12.7057H11.25V13.9557H10H8.75002C8.40484 13.9557 8.12502 13.6759 8.12502 13.3307C8.12502 12.9856 8.40484 12.7057 8.75002 12.7057H9.37502V9.78906H8.75002ZM10 7.28906C10.3452 7.28906 10.625 7.00924 10.625 6.66406C10.625 6.31888 10.3452 6.03906 10 6.03906C9.65484 6.03906 9.37502 6.31888 9.37502 6.66406C9.37502 7.00924 9.65484 7.28906 10 7.28906Z" fill="#686765"/>
</svg>
