<svg width="100" height="72" viewBox="0 0 100 72" fill="none" xmlns="http://www.w3.org/2000/svg">
<path fill-rule="evenodd" clip-rule="evenodd" d="M51.2202 0.0377025C50.2801 1.16977 49.5232 2.08153 48.7685 2.99547C46.1619 6.1561 44.6285 9.87949 43.0972 13.6203C37.3035 27.761 31.4858 41.8923 25.668 56.0237L25.6501 56.0673C24.0334 59.9942 22.4167 63.9212 20.8005 67.8483C19.7688 70.3546 17.3105 71.9949 14.5709 71.997C11.118 71.9992 7.66508 71.9992 4.21216 71.997C1.30456 71.9949 0.279376 70.4789 1.38963 67.7436C2.92161 63.9676 4.47317 60.2008 6.02513 56.433L6.02524 56.4328L6.02723 56.4279C6.48097 55.3263 6.93474 54.2247 7.38806 53.1227C9.15284 48.8341 10.9195 44.5461 12.6861 40.2579L12.6871 40.2555C17.5757 28.3898 22.4646 16.5232 27.3159 4.64013C28.3193 2.18405 30.8168 -0.0909911 34.2457 0.00280252C37.8521 0.101963 41.4628 0.0794906 45.0733 0.0570191C46.6251 0.0473607 48.1769 0.0377025 49.7282 0.0377025H51.2202ZM48.7628 71.9999L48.7683 71.9934H50.2635H65.6391C69.2752 71.9934 71.2929 70.6628 72.6845 67.2862C76.4532 58.1436 80.2165 48.9987 83.9797 39.854C85.5396 36.0632 87.0996 32.2724 88.66 28.4818C89.4147 26.6483 90.1699 24.815 90.9251 22.9817L90.9263 22.9788C93.5056 16.7173 96.0848 10.4561 98.6457 4.18709C99.7036 1.60013 98.6413 0.0449032 95.8733 0.0383595C92.4183 0.0318157 88.9653 0.0318157 85.5124 0.0383595C82.4936 0.0449032 80.4301 1.52379 79.1955 4.21545C78.8692 4.92682 78.5796 5.65503 78.2899 6.38339C78.1497 6.73597 78.0094 7.08858 77.865 7.43933C75.8944 12.2275 73.9226 17.015 71.9508 21.8024L71.9309 21.8509C67.0603 33.6765 62.1899 45.5015 57.3394 57.3354C57.2516 57.5496 57.164 57.764 57.0763 57.9783L57.0751 57.9812C55.4005 62.0768 53.7303 66.1616 50.8001 69.5809C50.3545 70.1008 49.9143 70.6261 49.4136 71.2239L49.4049 71.2343C49.2039 71.4742 48.9931 71.7258 48.7683 71.9934H48.7671L48.7628 71.9999ZM42.4806 50.3861C43.0257 50.3843 43.5708 50.3825 44.1159 50.3825C44.6738 50.3825 45.2313 50.3818 45.7888 50.3811C46.9032 50.3796 48.0169 50.3782 49.1306 50.3825C52.1451 50.3934 54.322 48.9843 55.4715 46.26C58.308 39.5435 61.0536 32.7847 63.7977 26.0295L63.9282 25.7083C64.9119 23.2827 63.7951 21.6969 61.1798 21.6926C60.8857 21.6922 60.5915 21.6918 60.2974 21.6915C57.067 21.6873 53.8381 21.6831 50.6073 21.6991C47.8131 21.7122 45.7235 23.0515 44.6591 25.5512C41.6969 32.4985 38.8657 39.5003 36.0366 46.5043C35.1248 48.764 36.246 50.3433 38.6672 50.376C39.9375 50.3943 41.2089 50.3902 42.4806 50.3861Z" fill="#FF5247"/>
</svg>
