<svg width="117" height="33" viewBox="0 0 117 33" fill="none" xmlns="http://www.w3.org/2000/svg">
<g clip-path="url(#clip0_1671_117011)">
<path d="M48.3633 10.0106H49.4656V1.02895H48.3633V10.0128V10.0106ZM56.0394 1.00244V4.66491H50.0708V5.80916H56.035V9.99736H57.1881V1.00244H56.0394Z" fill="white"/>
<path d="M67.842 9.86041C67.8597 9.89354 67.8862 9.93993 67.9193 10.0018H66.6227L65.9865 8.72941L65.3658 7.44379H60.7534C60.5546 7.8635 60.347 8.29204 60.1327 8.72941C59.9184 9.16679 59.7174 9.57766 59.5098 10.015H58.2617L58.339 9.86041C58.6152 9.29491 58.9001 8.71174 59.1939 8.11311C59.47 7.53878 59.755 6.95561 60.0488 6.36582H64.8444C64.5926 5.8445 64.3386 5.32097 64.0779 4.79745L63.3136 3.24234C63.2628 3.13851 63.2142 3.04795 63.1723 2.97063C63.1303 2.89332 63.0883 2.80275 63.0552 2.72765C63.0463 2.74532 63.0331 2.77624 63.0154 2.81821C62.9801 2.88669 62.9447 2.95959 62.9116 3.0369C62.8873 3.10096 62.8564 3.1606 62.8188 3.21583C62.6023 3.67088 62.3903 4.11267 62.1826 4.54121L61.5862 5.76056H60.3426L61.4957 3.40801C61.8778 2.63487 62.2732 1.8308 62.6797 1.00244H63.4705C64.2834 2.65475 65.0079 4.12592 65.6441 5.40933L67.8376 9.86041" fill="white"/>
<path d="M76.6575 1.00244H77.7973V10.0106H77.1434L70.2934 3.30198V1.74907L76.6663 8.04684C76.6575 7.93418 76.6553 7.82374 76.6553 7.71329V1.00244H76.6575ZM68.5947 1.00244H69.2552L69.6837 1.40006V9.99736H68.5947V1.00244Z" fill="white"/>
<path d="M86.6913 1.95451H83.9301V1.00244H86.6913V1.9523V1.95451ZM78.7324 1.00244H83.3293V10.0106H82.1585V1.95451H78.7324V1.00244Z" fill="white"/>
<path d="M89.6801 6.54253H92.713V5.61698H89.6801V6.54253ZM87.8975 1.00244V10.0106H93.2454V9.05855H89.066V1.95451H93.1106V1.00244H87.8975Z" fill="white"/>
<path d="M95.6354 4.11269C95.5493 4.32475 95.4808 4.54344 95.4278 4.76876C95.3836 5.00953 95.3615 5.25473 95.3637 5.49992C95.3615 5.97264 95.4676 6.43874 95.673 6.86286C95.779 7.07934 95.9094 7.28256 96.0618 7.46812C96.223 7.67134 96.4064 7.85689 96.6074 8.02036C96.8084 8.19708 97.0249 8.3517 97.2568 8.48424C97.4866 8.61236 97.7251 8.72281 97.9681 8.8178C98.2266 8.90395 98.4894 8.96801 98.7589 9.01219C99.0417 9.05637 99.3288 9.07845 99.6138 9.07625C99.9231 9.07625 100.228 9.06299 100.522 9.03648C100.802 9.01219 101.081 8.97463 101.357 8.91941C101.394 8.90836 101.434 8.89953 101.474 8.89511V9.84497C101.447 9.84497 101.421 9.85159 101.396 9.85822C101.374 9.85822 101.352 9.86264 101.332 9.86927H101.279C101.131 9.88694 100.994 9.90903 100.864 9.93332C100.709 9.951 100.566 9.96425 100.436 9.97309C100.305 9.98192 100.157 10.004 100.02 10.0128H99.6182C99.2582 10.0128 98.9003 9.98855 98.5424 9.93553C98.2023 9.88473 97.8687 9.80521 97.544 9.69476C97.2281 9.58652 96.9211 9.45177 96.6295 9.28831C96.3357 9.12263 96.0551 8.93487 95.7945 8.72281C95.5405 8.52179 95.3107 8.29427 95.1075 8.04245C94.9087 7.80388 94.7342 7.54322 94.5884 7.26931C94.4603 6.99761 94.3609 6.71265 94.2924 6.41886C94.2217 6.11623 94.1864 5.80476 94.1886 5.4933C94.1886 5.19067 94.2173 4.89025 94.2791 4.59425C94.3388 4.30929 94.4249 4.02875 94.5376 3.75926C94.6502 3.48755 94.8005 3.2291 94.9794 2.99495C95.1627 2.75197 95.366 2.52444 95.5868 2.31459C95.8166 2.0959 96.0706 1.90152 96.3401 1.73584C96.6074 1.57238 96.8923 1.43763 97.1884 1.33381C97.4799 1.21894 97.7848 1.13942 98.0962 1.09524C98.4232 1.04664 98.7501 1.02235 99.0814 1.02235V0.998047C99.4746 0.998047 99.87 1.01793 100.261 1.06211C100.632 1.09524 101.008 1.14163 101.39 1.20348C101.414 1.21453 101.441 1.21894 101.467 1.21673V2.16659C101.427 2.16659 101.39 2.15996 101.35 2.15334C100.977 2.08486 100.606 2.03405 100.235 1.99871C99.8855 1.95674 99.5365 1.93465 99.1853 1.93465C98.6595 1.92802 98.1382 2.01417 97.6434 2.1931C96.9652 2.45376 96.3777 2.91101 95.958 3.50523C95.832 3.69741 95.7238 3.89842 95.6332 4.11048" fill="white"/>
<path d="M89.4545 16.3107C89.3684 16.5227 89.2999 16.7436 89.2469 16.9667C89.2005 17.2097 89.1784 17.4549 89.1784 17.7023C89.1784 17.9409 89.2049 18.1772 89.2557 18.4092C89.3088 18.6345 89.3861 18.8554 89.4877 19.0652C89.5915 19.2817 89.7218 19.4827 89.8742 19.6683C90.0355 19.8715 90.2188 20.0571 90.4199 20.2205C90.6209 20.395 90.8374 20.5519 91.0693 20.6844C91.299 20.8103 91.5376 20.923 91.7806 21.018C92.039 21.1041 92.3041 21.1682 92.5736 21.2124C92.8564 21.2565 93.1413 21.2764 93.4285 21.2764C93.7377 21.2764 94.0426 21.2632 94.3364 21.2367C94.6169 21.2124 94.8952 21.1726 95.1714 21.1196C95.2089 21.1085 95.2487 21.0997 95.2884 21.0953V22.0451C95.2619 22.0451 95.2354 22.0496 95.2111 22.0562C95.189 22.0562 95.1669 22.0628 95.1471 22.0694H95.0963C94.9483 22.0871 94.8113 22.1092 94.681 22.1335C94.5263 22.1512 94.3828 22.1644 94.2524 22.1733C94.1221 22.1821 93.9741 22.2042 93.8371 22.213H93.4351C93.075 22.213 92.7172 22.1887 92.3593 22.1357C91.69 22.0385 91.0428 21.822 90.453 21.4951C90.1592 21.3294 89.8787 21.1417 89.618 20.9296C89.364 20.7286 89.132 20.5011 88.9288 20.247C88.5224 19.7854 88.2418 19.2287 88.1137 18.6279C88.043 18.323 88.0077 18.0116 88.0121 17.7001C88.0121 17.3975 88.0408 17.0948 88.1027 16.7988C88.1623 16.5117 88.2485 16.2333 88.3611 15.9638C88.4738 15.6899 88.624 15.4337 88.8029 15.1973C88.9862 14.9543 89.1895 14.7268 89.4104 14.517C89.6401 14.2983 89.8919 14.1039 90.1614 13.9382C90.4309 13.7726 90.7181 13.6378 91.0185 13.5362C91.3101 13.4235 91.6149 13.3418 91.9264 13.2976C92.2533 13.2512 92.5802 13.2269 92.9116 13.2269V13.2026C93.3048 13.2026 93.7002 13.2225 94.0912 13.2667C94.4623 13.302 94.8378 13.3484 95.22 13.4081C95.2443 13.4169 95.2708 13.4213 95.2973 13.4191V14.3712C95.2575 14.3712 95.22 14.3668 95.1802 14.3601C94.8069 14.2917 94.4358 14.2409 94.0647 14.2055C93.7156 14.1635 93.3644 14.1437 93.0132 14.1414C92.4875 14.1326 91.9639 14.221 91.4713 14.3999C90.791 14.6583 90.2012 15.1156 89.7793 15.7098C89.6534 15.8998 89.5451 16.103 89.4545 16.3129" fill="white"/>
<path d="M66.616 19.4917V16.545C66.616 16.545 66.7265 14.685 68.8029 13.2646H65.8672" fill="white"/>
<path d="M50.126 17.6514H53.519V16.7148H50.126V17.6514ZM48.3633 13.271V22.2107H49.5119V14.2164H53.9498V13.271H48.3633Z" fill="white"/>
<path d="M56.2604 13.2578H55.125V22.2086H56.2604V13.2578Z" fill="white"/>
<path d="M57.6895 13.2578H58.3389L58.7608 13.6532V22.1975H57.6895V13.26V13.2578ZM65.6241 13.2578H66.7462V22.2063H66.1145L59.3616 15.5419V13.9978L65.6373 20.2536C65.6373 20.1432 65.6241 20.0327 65.6241 19.9201V13.2578Z" fill="white"/>
<path d="M76.8611 22.0605C76.8787 22.0937 76.9052 22.1401 76.9384 22.2019H75.6638L75.0387 20.9384L74.4268 19.6616H69.8829C69.6863 20.0769 69.4831 20.5032 69.271 20.9384C69.0678 21.3537 68.8624 21.78 68.6592 22.2152H67.4199L67.4972 22.0605C67.7689 21.4994 68.0473 20.9207 68.3322 20.3243C68.6039 19.7544 68.8823 19.1756 69.1672 18.588H73.901C73.6536 18.0689 73.4018 17.5498 73.1478 17.0307L72.3967 15.4844C72.3459 15.3828 72.2973 15.2945 72.2554 15.2171C72.2134 15.1398 72.1736 15.0493 72.1383 14.9742C72.1294 14.9918 72.1184 15.0205 72.0985 15.0625C72.0654 15.131 72.0322 15.2039 71.9969 15.279C71.9748 15.3408 71.9439 15.4027 71.9085 15.4579C71.6965 15.9086 71.4888 16.3481 71.2834 16.7745L70.6958 17.9872H69.4698L70.6053 15.6479C70.9874 14.8814 71.3784 14.0862 71.776 13.2622H72.5536C73.3532 14.9035 74.0667 16.3636 74.6963 17.6426C75.4341 19.1624 76.1542 20.6357 76.8544 22.0627" fill="white"/>
<path d="M77.6143 13.2578H78.2637L78.6856 13.6532V22.1975H77.6143V13.26V13.2578ZM85.5489 13.2578H86.671V22.2063H86.0326L79.2864 15.5419V13.9978L85.5621 20.2536C85.5533 20.1432 85.5489 20.0327 85.5489 19.9201V13.2578Z" fill="white"/>
<path d="M112.174 22.2108H116.422V21.2256H112.174V22.2108ZM111.556 13.2026H110.411V22.1976H111.556V13.2026ZM106.892 17.6095C106.25 16.3239 105.516 14.8549 104.692 13.2048H103.886C103.475 14.0354 103.073 14.8351 102.678 15.6082L101.507 17.9608H102.77L103.385 16.737C103.594 16.3084 103.811 15.8667 104.027 15.4138C104.065 15.3586 104.096 15.2989 104.12 15.2349C104.156 15.1576 104.191 15.0847 104.226 15.0162C104.262 14.9477 104.257 14.9433 104.266 14.9256C104.301 15.0029 104.339 15.0847 104.385 15.1686C104.432 15.2526 104.478 15.3365 104.529 15.4403L105.302 16.9954C105.565 17.519 105.823 18.0403 106.075 18.5638H101.213C100.915 19.1558 100.626 19.739 100.345 20.3111L99.4725 22.065L99.3952 22.2196H100.67C100.88 21.7801 101.092 21.3515 101.302 20.934C101.52 20.4967 101.73 20.0681 101.931 19.6484H106.61L107.241 20.934L107.884 22.2064H109.201C109.165 22.1468 109.139 22.1004 109.123 22.065C108.403 20.6336 107.663 19.1514 106.901 17.6184M97.0117 22.2174H98.1825V13.2048H97.0117V22.2174Z" fill="white"/>
<path d="M20.5367 9.91553C19.6045 9.91553 18.5398 10.671 18.1576 11.6032L14.6299 20.2093C14.2478 21.1415 14.694 21.897 15.6262 21.897H20.3467C21.2789 21.897 22.3436 21.1415 22.7258 20.2093L26.2535 11.6032C26.6357 10.671 26.1895 9.91553 25.2573 9.91553H20.5367Z" fill="white"/>
<path d="M39.7529 0.905273H35.0014C34.0692 0.905273 33.0023 1.66074 32.6201 2.59293L22.64 26.8341C21.71 29.0829 19.8545 30.9053 19.8545 30.9053H27.4092C28.3414 30.9053 29.4083 30.1498 29.7904 29.2176L40.7447 2.59293C41.1291 1.66074 40.6829 0.905273 39.7529 0.905273Z" fill="white"/>
<path d="M1.1311 30.9053H5.88259C6.81478 30.9053 7.88171 30.1498 8.26386 29.2176L18.244 4.9764C19.1762 2.72767 21.0317 0.905273 21.0317 0.905273H13.477C12.5448 0.905273 11.4779 1.66074 11.0958 2.59293L0.137067 29.2176C-0.247294 30.1498 0.198918 30.9053 1.12889 30.9053" fill="white"/>
<path d="M51.4977 28.2945C51.4977 29.1339 50.9389 29.6795 50.1812 29.6795C49.8278 29.6795 49.5251 29.5536 49.3219 29.2951V29.6442H48.7432V25.8911H49.3506V27.2717C49.5583 27.0287 49.8499 26.9117 50.1812 26.9117C50.9389 26.9117 51.4977 27.4529 51.4977 28.2923V28.2945ZM50.8814 28.2945C50.8814 27.7798 50.5523 27.4506 50.1149 27.4506C49.6776 27.4506 49.344 27.7798 49.344 28.2945C49.344 28.8092 49.6798 29.1383 50.1149 29.1383C50.5501 29.1383 50.8814 28.8092 50.8814 28.2945Z" fill="white"/>
<path d="M54.4802 26.9448L53.2675 29.8629C53.029 30.4748 52.6998 30.6625 52.2669 30.6625C52.0106 30.6625 51.7367 30.572 51.5732 30.4151L51.8162 29.949C51.9333 30.0661 52.0968 30.1368 52.2624 30.1368C52.4767 30.1368 52.6026 30.0308 52.7197 29.7613L52.7639 29.6552L51.6329 26.9448H52.2647L53.0798 28.9417L53.8993 26.9448H54.4825H54.4802Z" fill="white"/>
<path d="M58.5902 26.1035V29.6445H57.9585V28.1269H56.2001V29.6445H55.5684V26.1035H56.2001V27.5659H57.9585V26.1035H58.5902Z" fill="white"/>
<path d="M61.6651 28.0605V29.6443H61.0929V29.3152C60.9471 29.5472 60.6666 29.6797 60.2778 29.6797C59.6858 29.6797 59.3125 29.3417 59.3125 28.8712C59.3125 28.4007 59.6041 28.0671 60.3905 28.0671H61.0598V28.0274C61.0598 27.6585 60.8455 27.4398 60.4148 27.4398C60.1232 27.4398 59.8228 27.5414 59.6284 27.7071L59.3898 27.2476C59.6659 27.0245 60.0702 26.9141 60.4877 26.9141C61.2343 26.9141 61.6673 27.283 61.6673 28.0627L61.6651 28.0605ZM61.0576 28.8005V28.4868H60.4302C60.0172 28.4868 59.9067 28.6481 59.9067 28.8469C59.9067 29.0744 60.0923 29.2202 60.4015 29.2202C60.7108 29.2202 60.956 29.0789 61.0576 28.8005Z" fill="white"/>
<path d="M65.0448 28.0981V29.6466H64.4373V28.1798C64.4373 27.7005 64.2098 27.4663 63.821 27.4663C63.3881 27.4663 63.0987 27.7402 63.0987 28.2814V29.6466H62.4912V26.945H63.07V27.294C63.2688 27.0466 63.5847 26.9141 63.9624 26.9141C64.5831 26.9141 65.0448 27.283 65.0448 28.0981Z" fill="white"/>
<path d="M67.4234 29.4986C67.2776 29.6201 67.0589 29.6798 66.8402 29.6798C66.2725 29.6798 65.9478 29.3661 65.9478 28.7697V27.4708H65.5215V26.9649H65.9478V26.3486H66.5553V26.9649H67.2489V27.4708H66.5553V28.7564C66.5553 29.0193 66.6812 29.1607 66.9153 29.1607C67.0413 29.1607 67.1627 29.1253 67.2555 29.048L67.4256 29.4986H67.4234Z" fill="white"/>
<path d="M70.3128 28.4955H68.2784C68.3513 28.8909 68.6671 29.1427 69.1178 29.1427C69.4094 29.1427 69.6369 29.0455 69.8224 28.8489L70.1472 29.2377C69.9152 29.527 69.5507 29.6772 69.1023 29.6772C68.2342 29.6772 67.6709 29.0963 67.6709 28.2922C67.6709 27.4882 68.2386 26.9116 69.0117 26.9116C69.7849 26.9116 70.3217 27.4639 70.3217 28.3077C70.3217 28.3585 70.3172 28.4336 70.3128 28.4955ZM68.2717 28.0757H69.7429C69.6943 27.687 69.4071 27.4175 69.0095 27.4175C68.6119 27.4175 68.3292 27.6803 68.2717 28.0757Z" fill="white"/>
<path d="M70.7393 28.2947C70.7393 27.4862 71.3224 26.9141 72.142 26.9141C72.6478 26.9141 73.0498 27.1305 73.2486 27.5414L72.7826 27.8242C72.6279 27.5657 72.3938 27.4508 72.1375 27.4508C71.6913 27.4508 71.3511 27.7756 71.3511 28.2947C71.3511 28.8138 71.6913 29.1385 72.1375 29.1385C72.396 29.1385 72.6279 29.0214 72.7826 28.7652L73.2486 29.0479C73.0498 29.4522 72.6456 29.6797 72.142 29.6797C71.3224 29.6797 70.7393 29.1032 70.7393 28.2947Z" fill="white"/>
<path d="M77.592 27.8329H78.1884V29.2444C77.8349 29.5426 77.3379 29.6951 76.8586 29.6951C75.8049 29.6951 75.0273 28.9308 75.0273 27.8749C75.0273 26.819 75.8049 26.0547 76.8674 26.0547C77.4351 26.0547 77.9123 26.2513 78.2326 26.6312L77.8349 27.0355C77.5677 26.7571 77.2628 26.6312 76.8983 26.6312C76.1738 26.6312 75.6657 27.1415 75.6657 27.8749C75.6657 28.6083 76.176 29.1185 76.8939 29.1185C77.1369 29.1185 77.3755 29.0677 77.5942 28.9374V27.8351L77.592 27.8329Z" fill="white"/>
<path d="M80.5099 26.9141V27.5149C80.4569 27.5039 80.4127 27.4994 80.3685 27.4994C79.9069 27.4994 79.6153 27.7822 79.6153 28.3344V29.6443H79.0078V26.9428H79.5866V27.3382C79.7611 27.0554 80.077 26.9141 80.5099 26.9141Z" fill="white"/>
<path d="M80.835 28.2947C80.835 27.4862 81.4181 26.9141 82.2134 26.9141C83.0086 26.9141 83.5962 27.4862 83.5962 28.2947C83.5962 29.1032 83.0174 29.6797 82.2134 29.6797C81.4093 29.6797 80.835 29.1032 80.835 28.2947ZM82.9865 28.2947C82.9865 27.78 82.6574 27.4508 82.2156 27.4508C81.7738 27.4508 81.4491 27.78 81.4491 28.2947C81.4491 28.8094 81.7782 29.1385 82.2156 29.1385C82.6529 29.1385 82.9865 28.8094 82.9865 28.2947Z" fill="white"/>
<path d="M86.7392 26.9448V29.6464H86.1605V29.3018C85.9661 29.5492 85.6613 29.6817 85.3255 29.6817C84.6606 29.6817 84.21 29.3018 84.21 28.4889V26.947H84.8174V28.4027C84.8174 28.8931 85.0405 29.1251 85.4249 29.1251C85.8468 29.1251 86.134 28.8512 86.134 28.31V26.9448H86.7414H86.7392Z" fill="white"/>
<path d="M90.3376 28.2944C90.3376 29.1338 89.7787 29.6795 89.021 29.6795C88.6919 29.6795 88.4003 29.5624 88.1905 29.315V30.6249H87.583V26.9425H88.1618V27.296C88.365 27.0375 88.6676 26.9116 89.021 26.9116C89.7787 26.9116 90.3376 27.4572 90.3376 28.2922V28.2944ZM89.7191 28.2944C89.7191 27.7797 89.3899 27.4506 88.9526 27.4506C88.5152 27.4506 88.1816 27.7797 88.1816 28.2944C88.1816 28.8091 88.5174 29.1383 88.9526 29.1383C89.3877 29.1383 89.7191 28.8091 89.7191 28.2944Z" fill="white"/>
</g>
<defs>
<clipPath id="clip0_1671_117011">
<rect width="116.421" height="30" fill="white" transform="translate(0 0.905273)"/>
</clipPath>
</defs>
</svg>
