<svg width="17" height="17" viewBox="0 0 17 17" fill="none" xmlns="http://www.w3.org/2000/svg">
<path fill-rule="evenodd" clip-rule="evenodd" d="M9.00098 4V10.9531H8.00098V4H9.00098Z" fill="#2B2A28"/>
<path fill-rule="evenodd" clip-rule="evenodd" d="M8.50008 3.49609L11.5509 6.54695L10.8438 7.25406L8.50008 4.91031L6.15633 7.25406L5.44922 6.54695L8.50008 3.49609Z" fill="#2B2A28"/>
<path fill-rule="evenodd" clip-rule="evenodd" d="M3.1416 9.95312V11.2344C3.1416 11.5162 3.25354 11.7864 3.4528 11.9857C3.65206 12.1849 3.92231 12.2969 4.2041 12.2969H12.7979C13.0796 12.2969 13.3499 12.1849 13.5492 11.9857C13.7484 11.7864 13.8604 11.5162 13.8604 11.2344V9.95312H14.8604V11.2344C14.8604 11.7814 14.6431 12.306 14.2563 12.6928C13.8695 13.0796 13.3449 13.2969 12.7979 13.2969H4.2041C3.65709 13.2969 3.13249 13.0796 2.74569 12.6928C2.3589 12.306 2.1416 11.7814 2.1416 11.2344V9.95312H3.1416Z" fill="#2B2A28"/>
</svg>
