<svg width="16" height="31" viewBox="0 0 16 31" fill="none" xmlns="http://www.w3.org/2000/svg">
<path d="M7.416 30.544V26.512C4.504 26.48 2.008 25.392 0.92 24.624V20.048H2.104C3.16 23.12 5.08 24.4 7.416 24.56V16.176L5.912 15.664C3 14.64 1.176 12.56 1.176 9.68C1.176 6.224 3.736 3.76 7.416 3.248V0.4H9.528V3.12C11.736 3.216 13.688 3.792 15 4.592V8.816H13.784C13.176 6.576 11.48 5.392 9.528 5.136V12.88L11.384 13.52C14.04 14.448 15.896 16.368 15.896 19.344C15.896 22.64 13.528 25.616 9.528 26.352V30.544H7.416ZM4.344 8.528C4.344 10.096 5.304 11.312 7.416 12.144V5.2C5.592 5.584 4.344 6.8 4.344 8.528ZM9.528 24.336C11.384 23.824 12.696 22.48 12.696 20.528C12.696 18.928 11.768 17.68 9.528 16.912V24.336Z" fill="#686765"/>
</svg>
