<svg width="32" height="32" viewBox="0 0 32 32" fill="none" xmlns="http://www.w3.org/2000/svg">
<path d="M7.5625 25.9792V15.918" stroke="#EBEEE2" stroke-linecap="square"/>
<path d="M6.44434 25.9805H13.1518" stroke="#EBEEE2" stroke-linecap="square"/>
<path d="M3.70703 28.2148H28.3012" stroke="#EBEEE2" stroke-linecap="square"/>
<path d="M6.44336 15.918H13.1509" stroke="#EBEEE2" stroke-linecap="square"/>
<path d="M9.79785 25.9792V15.918" stroke="#EBEEE2" stroke-linecap="square"/>
<path d="M12.0332 25.9792V15.918" stroke="#EBEEE2" stroke-linecap="square"/>
<path d="M18.7412 25.9805H25.4487" stroke="#EBEEE2" stroke-linecap="square"/>
<path d="M18.7412 15.918H25.4487" stroke="#EBEEE2" stroke-linecap="square"/>
<path d="M19.8594 25.9792V15.918" stroke="#EBEEE2" stroke-linecap="square"/>
<path d="M22.0947 25.9792V15.918" stroke="#EBEEE2" stroke-linecap="square"/>
<path d="M24.3301 25.9792V15.918" stroke="#EBEEE2" stroke-linecap="square"/>
<path d="M4.93306 12.6822C4.84089 12.7537 4.77341 12.8523 4.74009 12.9641C4.70676 13.0759 4.70925 13.1954 4.74722 13.3057C4.78518 13.416 4.85671 13.5117 4.95179 13.5793C5.04686 13.6469 5.16071 13.6831 5.27738 13.6827H26.7324C26.8468 13.683 26.9585 13.6481 27.0524 13.5829C27.1463 13.5177 27.218 13.4252 27.2577 13.318C27.2975 13.2107 27.3033 13.0939 27.2746 12.9832C27.2458 12.8725 27.1838 12.7733 27.0969 12.699L16.8869 3.91998C16.789 3.83595 16.6651 3.78837 16.5361 3.78531C16.4071 3.78226 16.2811 3.82391 16.1793 3.90321L4.93306 12.6822Z" stroke="#EBEEE2" stroke-linecap="square"/>
</svg>
