<svg width="32" height="32" viewBox="0 0 32 32" fill="none" xmlns="http://www.w3.org/2000/svg">
<path d="M8.0625 25.9792V15.918" stroke="#2B2A28" stroke-linecap="square"/>
<path d="M6.94434 25.9805H13.6518" stroke="#2B2A28" stroke-linecap="square"/>
<path d="M4.20703 28.2148H28.8012" stroke="#2B2A28" stroke-linecap="square"/>
<path d="M6.94336 15.918H13.6509" stroke="#2B2A28" stroke-linecap="square"/>
<path d="M10.2979 25.9792V15.918" stroke="#2B2A28" stroke-linecap="square"/>
<path d="M12.5332 25.9792V15.918" stroke="#2B2A28" stroke-linecap="square"/>
<path d="M19.2412 25.9805H25.9487" stroke="#2B2A28" stroke-linecap="square"/>
<path d="M19.2412 15.918H25.9487" stroke="#2B2A28" stroke-linecap="square"/>
<path d="M20.3594 25.9792V15.918" stroke="#2B2A28" stroke-linecap="square"/>
<path d="M22.5947 25.9792V15.918" stroke="#2B2A28" stroke-linecap="square"/>
<path d="M24.8301 25.9792V15.918" stroke="#2B2A28" stroke-linecap="square"/>
<path d="M5.43306 12.6822C5.34089 12.7537 5.27341 12.8523 5.24009 12.9641C5.20676 13.0759 5.20925 13.1954 5.24722 13.3057C5.28518 13.416 5.35671 13.5117 5.45179 13.5793C5.54686 13.6469 5.66071 13.6831 5.77738 13.6827H27.2324C27.3468 13.683 27.4585 13.6481 27.5524 13.5829C27.6463 13.5177 27.718 13.4252 27.7577 13.318C27.7975 13.2107 27.8033 13.0939 27.7746 12.9832C27.7458 12.8725 27.6838 12.7733 27.5969 12.699L17.3869 3.91998C17.289 3.83595 17.1651 3.78837 17.0361 3.78531C16.9071 3.78226 16.7811 3.82391 16.6793 3.90321L5.43306 12.6822Z" stroke="#2B2A28" stroke-linecap="square"/>
</svg>
