<svg width="20" height="20" viewBox="0 0 20 20" fill="none" xmlns="http://www.w3.org/2000/svg">
<path fill-rule="evenodd" clip-rule="evenodd" d="M12.7083 3.95964V5.0013H13.9583V3.95964H15.8333C16.4086 3.95964 16.875 4.42601 16.875 5.0013V7.70964H3.125V5.0013C3.125 4.42601 3.59137 3.95964 4.16667 3.95964H6.04167V5.0013H7.29167V3.95964H12.7083ZM3.125 8.95964V16.668C3.125 17.2433 3.59137 17.7096 4.16667 17.7096H15.8333C16.4086 17.7096 16.875 17.2433 16.875 16.668V8.95964H3.125ZM4.16667 2.70964H6.04167V1.66797H7.29167V2.70964H12.7083V1.66797H13.9583V2.70964H15.8333C17.099 2.70964 18.125 3.73565 18.125 5.0013V16.668C18.125 17.9336 17.099 18.9596 15.8333 18.9596H4.16667C2.90101 18.9596 1.875 17.9336 1.875 16.668V5.0013C1.875 3.73565 2.90101 2.70964 4.16667 2.70964Z" fill="#2B2A28"/>
</svg>
