<svg width="21" height="20" viewBox="0 0 21 20" fill="none" xmlns="http://www.w3.org/2000/svg">
<path fill-rule="evenodd" clip-rule="evenodd" d="M10.4993 2.28906C6.24215 2.28906 2.79102 5.7402 2.79102 9.9974C2.79102 14.2546 6.24215 17.7057 10.4993 17.7057C14.7565 17.7057 18.2077 14.2546 18.2077 9.9974C18.2077 5.7402 14.7565 2.28906 10.4993 2.28906ZM1.54102 9.9974C1.54102 5.04984 5.5518 1.03906 10.4993 1.03906C15.4469 1.03906 19.4577 5.04984 19.4577 9.9974C19.4577 14.9449 15.4469 18.9557 10.4993 18.9557C5.5518 18.9557 1.54102 14.9449 1.54102 9.9974ZM9.24935 9.78906V8.53906H10.4993C10.8445 8.53906 11.1243 8.81888 11.1243 9.16406V12.7057H11.7493V13.9557H10.4993H9.24935C8.90417 13.9557 8.62435 13.6759 8.62435 13.3307C8.62435 12.9856 8.90417 12.7057 9.24935 12.7057H9.87435V9.78906H9.24935ZM10.4993 7.28906C10.8445 7.28906 11.1243 7.00924 11.1243 6.66406C11.1243 6.31888 10.8445 6.03906 10.4993 6.03906C10.1542 6.03906 9.87435 6.31888 9.87435 6.66406C9.87435 7.00924 10.1542 7.28906 10.4993 7.28906Z" fill="#686765"/>
</svg>
