<svg width="32" height="32" viewBox="0 0 32 32" fill="none" xmlns="http://www.w3.org/2000/svg">
<path fill-rule="evenodd" clip-rule="evenodd" d="M16.1495 9.17641H14.6787C14.4379 9.14903 14.1438 9.14903 13.85 9.12278C13.7701 9.14903 13.7424 9.23032 13.7156 9.33701C13.6891 9.44427 13.7156 9.52443 13.7701 9.60431L14.0907 9.63141C14.491 9.71072 14.7851 9.79116 14.9733 9.87217C15.1599 9.97858 15.2931 10.166 15.3473 10.4068C15.4007 10.6475 15.4272 10.9679 15.4007 11.3695C15.3733 11.9309 15.3473 12.599 15.3205 13.3747C15.2931 14.1512 15.2401 14.953 15.1862 15.7826C15.1334 17.0649 15.0182 20.1892 14.6696 21.1141C14.5889 21.3281 14.4557 21.4621 14.2951 21.5434C14.1074 21.6225 13.8926 21.7029 13.6253 21.7306L13.1963 21.7839C13.1164 21.8367 13.0893 21.918 13.1164 22.0518C13.1164 22.1322 13.1429 22.2118 13.2233 22.2925C13.5711 22.266 13.8926 22.2389 14.2409 22.2118H16.3572C16.7583 22.2389 17.1069 22.266 17.4281 22.2925C17.5088 22.2389 17.5622 22.1587 17.5622 22.0518C17.5622 21.9439 17.5356 21.8641 17.4546 21.7839L16.7053 21.7306C16.4636 21.7029 16.2762 21.6498 16.1427 21.5434C16.0755 21.489 16.0216 21.4144 15.9815 21.3236C15.8235 20.9434 15.8201 20.3001 15.8283 19.9007C15.8455 19.0717 15.8557 18.243 15.8819 17.4137C15.9087 16.5848 15.9355 15.8619 15.9618 15.2472C15.9878 14.6858 16.0428 14.0967 16.0688 13.5085C16.0956 12.9208 16.1218 12.3317 16.1495 11.7435H16.2026C16.4168 12.198 16.631 12.6527 16.8182 13.1607C17.0324 13.6425 17.2461 14.1241 17.4594 14.5791L19.2515 18.4022C19.4129 18.7243 19.5995 19.1253 19.8129 19.6066C20.0542 20.1147 20.2941 20.5956 20.5086 21.0769C20.6218 21.3317 20.7198 21.5705 20.8028 21.7952C20.8242 21.7952 20.9741 22.288 20.9907 22.3453C21.0938 22.4497 21.2625 22.4472 21.3659 22.3453C21.5321 21.9468 21.7057 21.5434 21.899 21.1579C22.4057 20.0209 22.9341 18.9351 23.5307 17.8416L25.2692 14.3916C25.4032 14.0967 25.5365 13.7758 25.7236 13.4286C25.911 13.0543 26.0979 12.7066 26.2587 12.4125C26.3923 12.0913 26.4989 11.8776 26.552 11.7972H26.5791L26.6333 20.0619C26.6593 20.4892 26.6333 20.8087 26.6065 21.0498C26.585 21.2411 26.5311 21.4229 26.3474 21.5163C26.2396 21.6498 26.0256 21.7029 25.6776 21.7306L25.0882 21.7839C25.0346 21.8367 25.0081 21.918 25.0346 22.0518C25.0346 22.1322 25.0617 22.2118 25.1424 22.2925C25.5435 22.266 25.9714 22.2389 26.3733 22.2118H28.6774C29.0785 22.2389 29.4801 22.266 29.8829 22.2925C29.9633 22.2389 29.9896 22.1587 29.9896 22.0518C30.0161 21.9439 29.9896 21.8641 29.9363 21.7839L29.2933 21.7306C28.9986 21.7029 28.7844 21.6225 28.6497 21.4887C28.5174 21.3552 28.4098 21.1943 28.383 20.98C28.3556 20.7396 28.3288 20.444 28.3288 20.1231C28.274 19.1282 28.2368 18.1171 28.2108 17.1199C28.1837 16.0488 28.1301 15.0335 28.1038 14.0716V11.5299C28.1038 11.0751 28.1301 10.7277 28.1837 10.4598C28.2382 10.2196 28.3717 10.006 28.5583 9.87217C28.746 9.76519 29.0663 9.68419 29.4942 9.63141L29.8959 9.60431C29.9498 9.55068 29.976 9.47052 29.9498 9.33701C29.9498 9.25629 29.9227 9.17641 29.8694 9.12278C29.5481 9.14903 29.2269 9.14903 28.9331 9.17641H27.4891C27.2478 9.14903 26.9799 9.14903 26.6333 9.12278C26.6065 9.57665 26.4459 10.0858 26.2051 10.6743C25.911 11.2882 25.5638 12.0385 25.1359 12.9208L23.2632 16.6912C22.7777 17.7177 22.3354 18.6946 21.7404 19.6678H21.6871C21.2137 18.7748 20.7773 17.8481 20.348 16.9325L18.0753 12.3854C17.7815 11.7435 17.5136 11.1291 17.2997 10.5674C17.1123 10.006 17.0324 9.52443 17.0589 9.12278C16.7383 9.14903 16.4436 9.14903 16.1495 9.17641ZM5.17569 19.3427C5.17569 20.0238 5.14887 20.5423 5.0944 20.8973C5.04048 21.5849 4.58662 21.8102 3.94675 21.8542L3.53691 21.9087C3.4051 22.041 3.41526 22.3278 3.56542 22.4269C4.41049 22.3744 5.17456 22.3448 6.02245 22.3448C6.92652 22.3448 7.76933 22.3845 8.67057 22.4269C8.72505 22.3724 8.75327 22.2906 8.78037 22.1816C8.78037 22.0453 8.75327 21.9626 8.69823 21.9087L8.15207 21.8542C7.71514 21.826 7.4151 21.7441 7.25139 21.6075C7.24151 21.6004 7.23163 21.5931 7.22204 21.5855C7.05692 21.4483 6.93865 21.2389 6.88898 20.9143C6.83478 20.5598 6.8074 20.0421 6.83478 19.3619V17.4519C6.23471 17.4795 5.68967 17.4519 5.19855 17.3703L5.17569 19.3427ZM3.42598 9.38246C3.39917 9.49112 3.45393 9.5727 3.53578 9.65511L4.24481 9.73584C4.54428 9.76407 4.76275 9.84535 4.89879 9.98197C5.03484 10.0906 5.11726 10.282 5.14407 10.5815C5.17173 10.8812 5.19855 11.3184 5.19855 11.89V15.9251C5.74387 15.9525 6.2889 15.9525 6.83478 15.9251V10.3633C6.8074 10.1454 6.83478 9.98197 6.88898 9.84535C6.91607 9.76407 7.0253 9.68108 7.16135 9.65511C7.32506 9.62774 7.59828 9.62774 7.95251 9.62774C8.98811 9.65511 9.77899 9.92721 10.3514 10.4999C10.8967 11.0718 11.1691 11.8629 11.1691 12.8452C11.1973 13.7171 10.9789 14.4532 10.5154 15.0524C10.1064 15.5715 9.50661 15.9525 8.68835 16.1433C7.89804 16.3344 6.78031 16.4163 5.2804 16.3883C3.97158 16.3626 2.5541 16.2802 1 16.1168C2.71809 16.471 3.99896 16.716 4.8175 16.7976C6.15257 16.9621 7.46139 16.9339 8.68835 16.744C9.31524 16.6613 9.88794 16.4984 10.4062 16.3076C10.8967 16.0897 11.3878 15.7897 11.9058 15.4346C12.2055 15.217 12.4782 14.8613 12.724 14.3987C12.9151 13.9623 13.0238 13.4444 13.0506 12.8169C13.0238 12.135 12.8601 11.5366 12.5606 11.0178C12.2603 10.4999 11.9058 10.0906 11.442 9.79173C10.9789 9.5185 10.4062 9.29976 9.75189 9.16343C9.12472 9.05476 8.38832 9 7.54353 9C6.72527 9 5.98915 9 5.33516 9.0271C4.68061 9.05476 4.08082 9.08185 3.56231 9.13633C3.48102 9.19137 3.42598 9.27294 3.42598 9.38246Z" fill="#EBEEE2"/>
</svg>
