<svg width="10" height="10" viewBox="0 0 10 10" fill="none" xmlns="http://www.w3.org/2000/svg">
<path fill-rule="evenodd" clip-rule="evenodd" d="M4.24992 0.333374V0.354712V0.376014V0.39728V0.418509V0.439703V0.46086V0.481982V0.503068V0.524118V0.545133V0.566113V0.587058V0.607968V0.628843V0.649683V0.670489V0.691261V0.711998V0.732701V0.753371V0.774006V0.794608V0.815176V0.835711V0.856213V0.876682V0.897118V0.917521V0.937891V0.958229V0.978534V0.998808V1.01905V1.03926V1.05944V1.07958V1.0997V1.11978V1.13983V1.15985V1.17984V1.1998V1.21973V1.23963V1.25949V1.27933V1.29914V1.31892V1.33866V1.35838V1.37807V1.39773V1.41736V1.43696V1.45653V1.47608V1.49559V1.51508V1.53453V1.55396V1.57336V1.59274V1.61208V1.6314V1.65069V1.66996V1.68919V1.7084V1.72758V1.74674V1.76587V1.78497V1.80404V1.82309V1.84212V1.86111V1.88009V1.89903V1.91795V1.93685V1.95572V1.97456V1.99338V2.01218V2.03095V2.0497V2.06842V2.08712V2.10579V2.12444V2.14307V2.16167V2.18025V2.1988V2.21734V2.23585V2.25433V2.2728V2.29124V2.30966V2.32805V2.34643V2.36478V2.38311V2.40142V2.4197V2.43797V2.45621V2.47444V2.49264V2.51082V2.52898V2.54712V2.56524V2.58334V2.60141V2.61947V2.63751V2.65553V2.67353V2.69151V2.70947V2.72741V2.74533V2.76324V2.78112V2.79899V2.81683V2.83466V2.85247V2.87027V2.88804V2.9058V2.92354V2.94126V2.95897V2.97665V2.99432V3.01198V3.02961V3.04723V3.06484V3.08243V3.1V3.11755V3.13509V3.15262V3.17012V3.18762V3.20509V3.22256V3.24V3.25744V3.27485V3.29226V3.30964V3.32702V3.34438V3.36172V3.37906V3.39637V3.41368V3.43097V3.44825V3.46551V3.48276V3.5V3.51723V3.53444V3.55164V3.56883V3.58601V3.60317V3.62033V3.63747V3.6546V3.67171V3.68882V3.70591V3.723V3.74007V3.75714V3.77419V3.79123V3.80826V3.82528V3.84229V3.85929V3.87629V3.89327V3.91024V3.9272V3.94416V3.9611V3.97804V3.99497V4.01188V4.02879V4.0457V4.06259V4.07948V4.09635V4.11322V4.13009V4.14694V4.16379V4.18063V4.19746V4.21429V4.23111V4.24793V4.25004H0.333252V5.75004H4.24992V5.75216V5.76897V5.78579V5.80262V5.81945V5.83629V5.85314V5.86999V5.88686V5.90373V5.92061V5.93749V5.95438V5.97129V5.9882V6.00512V6.02204V6.03898V6.05592V6.07288V6.08984V6.10681V6.1238V6.14079V6.15779V6.1748V6.19182V6.20885V6.22589V6.24295V6.26001V6.27708V6.29417V6.31126V6.32837V6.34549V6.36262V6.37976V6.39691V6.41407V6.43125V6.44844V6.46564V6.48285V6.50008V6.51732V6.53457V6.55183V6.56911V6.5864V6.60371V6.62103V6.63836V6.6557V6.67306V6.69044V6.70783V6.72523V6.74265V6.76008V6.77753V6.79499V6.81247V6.82996V6.84747V6.86499V6.88253V6.90008V6.91766V6.93524V6.95285V6.97047V6.9881V7.00576V7.02343V7.04112V7.05882V7.07654V7.09428V7.11204V7.12982V7.14761V7.16542V7.18325V7.2011V7.21896V7.23685V7.25475V7.27267V7.29061V7.30857V7.32655V7.34455V7.36257V7.38061V7.39867V7.41675V7.43484V7.45296V7.4711V7.48926V7.50744V7.52565V7.54387V7.56211V7.58038V7.59866V7.61697V7.6353V7.65366V7.67203V7.69043V7.70884V7.72729V7.74575V7.76424V7.78275V7.80128V7.81983V7.83841V7.85701V7.87564V7.89429V7.91296V7.93166V7.95038V7.96913V7.9879V8.0067V8.02552V8.04436V8.06323V8.08213V8.10105V8.12V8.13897V8.15796V8.17699V8.19604V8.21511V8.23422V8.25334V8.2725V8.29168V8.31089V8.33013V8.34939V8.36868V8.388V8.40734V8.42672V8.44612V8.46555V8.48501V8.50449V8.52401V8.54355V8.56312V8.58272V8.60235V8.62201V8.6417V8.66142V8.68117V8.70094V8.72075V8.74059V8.76046V8.78035V8.80028V8.82024V8.84023V8.86025V8.8803V8.90039V8.9205V8.94065V8.96082V8.98103V9.00127V9.02155V9.04185V9.06219V9.08256V9.10296V9.1234V9.14387V9.16437V9.18491V9.20547V9.22608V9.24671V9.26738V9.28808V9.30882V9.32959V9.3504V9.37124V9.39211V9.41302V9.43397V9.45495V9.47596V9.49701V9.5181V9.53922V9.56038V9.58157V9.6028V9.62407V9.64537V9.66671H5.74992V9.64537V9.62407V9.6028V9.58157V9.56038V9.53922V9.5181V9.49701V9.47596V9.45495V9.43397V9.41302V9.39211V9.37124V9.3504V9.32959V9.30882V9.28808V9.26738V9.24671V9.22608V9.20547V9.18491V9.16437V9.14387V9.1234V9.10296V9.08256V9.06219V9.04185V9.02155V9.00127V8.98103V8.96082V8.94065V8.9205V8.90039V8.8803V8.86025V8.84023V8.82024V8.80028V8.78035V8.76046V8.74059V8.72075V8.70094V8.68117V8.66142V8.6417V8.62201V8.60235V8.58272V8.56312V8.54355V8.52401V8.50449V8.48501V8.46555V8.44612V8.42672V8.40734V8.388V8.36868V8.34939V8.33013V8.31089V8.29168V8.2725V8.25334V8.23422V8.21511V8.19604V8.17699V8.15796V8.13897V8.12V8.10105V8.08213V8.06323V8.04436V8.02552V8.0067V7.9879V7.96913V7.95038V7.93166V7.91296V7.89429V7.87564V7.85701V7.83841V7.81983V7.80128V7.78275V7.76424V7.74575V7.72729V7.70884V7.69043V7.67203V7.65366V7.6353V7.61697V7.59866V7.58038V7.56211V7.54387V7.52565V7.50744V7.48926V7.4711V7.45296V7.43484V7.41675V7.39867V7.38061V7.36257V7.34455V7.32655V7.30857V7.29061V7.27267V7.25475V7.23685V7.21896V7.2011V7.18325V7.16542V7.14761V7.12982V7.11204V7.09428V7.07654V7.05882V7.04112V7.02343V7.00576V6.9881V6.97047V6.95285V6.93524V6.91766V6.90008V6.88253V6.86499V6.84747V6.82996V6.81247V6.79499V6.77753V6.76008V6.74265V6.72523V6.70783V6.69044V6.67306V6.6557V6.63836V6.62103V6.60371V6.5864V6.56911V6.55183V6.53457V6.51732V6.50008V6.48285V6.46564V6.44844V6.43125V6.41407V6.39691V6.37976V6.36262V6.34549V6.32837V6.31126V6.29417V6.27708V6.26001V6.24295V6.22589V6.20885V6.19182V6.1748V6.15779V6.14079V6.1238V6.10681V6.08984V6.07288V6.05592V6.03898V6.02204V6.00512V5.9882V5.97129V5.95438V5.93749V5.92061V5.90373V5.88686V5.86999V5.85314V5.83629V5.81945V5.80262V5.78579V5.76897V5.75216V5.75004H9.66659V4.25004H5.74992V4.24793V4.23111V4.21429V4.19746V4.18063V4.16379V4.14694V4.13009V4.11322V4.09635V4.07948V4.06259V4.0457V4.02879V4.01188V3.99497V3.97804V3.9611V3.94416V3.9272V3.91024V3.89327V3.87629V3.85929V3.84229V3.82528V3.80826V3.79123V3.77419V3.75714V3.74007V3.723V3.70591V3.68882V3.67171V3.6546V3.63747V3.62033V3.60317V3.58601V3.56883V3.55164V3.53444V3.51723V3.5V3.48276V3.46551V3.44825V3.43097V3.41368V3.39637V3.37906V3.36172V3.34438V3.32702V3.30964V3.29226V3.27485V3.25744V3.24V3.22256V3.20509V3.18762V3.17012V3.15262V3.13509V3.11755V3.1V3.08243V3.06484V3.04723V3.02961V3.01198V2.99432V2.97665V2.95897V2.94126V2.92354V2.9058V2.88804V2.87027V2.85247V2.83466V2.81683V2.79899V2.78112V2.76324V2.74533V2.72741V2.70947V2.69151V2.67353V2.65553V2.63751V2.61947V2.60141V2.58334V2.56524V2.54712V2.52898V2.51082V2.49264V2.47444V2.45621V2.43797V2.4197V2.40142V2.38311V2.36478V2.34643V2.32805V2.30966V2.29124V2.2728V2.25433V2.23585V2.21734V2.1988V2.18025V2.16167V2.14307V2.12444V2.10579V2.08712V2.06842V2.0497V2.03095V2.01218V1.99338V1.97456V1.95572V1.93685V1.91795V1.89903V1.88009V1.86111V1.84212V1.82309V1.80404V1.78497V1.76587V1.74674V1.72758V1.7084V1.68919V1.66996V1.65069V1.6314V1.61208V1.59274V1.57336V1.55396V1.53453V1.51508V1.49559V1.47608V1.45653V1.43696V1.41736V1.39773V1.37807V1.35838V1.33866V1.31892V1.29914V1.27933V1.25949V1.23963V1.21973V1.1998V1.17984V1.15985V1.13983V1.11978V1.0997V1.07958V1.05944V1.03926V1.01905V0.998808V0.978534V0.958229V0.937891V0.917521V0.897118V0.876682V0.856213V0.835711V0.815176V0.794608V0.774006V0.753371V0.732701V0.711998V0.691261V0.670489V0.649683V0.628843V0.607968V0.587058V0.566113V0.545133V0.524118V0.503068V0.481982V0.46086V0.439703V0.418509V0.39728V0.376014V0.354712V0.333374H4.24992Z" fill="white"/>
</svg>
