<svg width="32" height="32" viewBox="0 0 32 32" fill="none" xmlns="http://www.w3.org/2000/svg">
<path fill-rule="evenodd" clip-rule="evenodd" d="M16.6495 9.17641H15.1787C14.9379 9.14903 14.6438 9.14903 14.35 9.12278C14.2701 9.14903 14.2424 9.23032 14.2156 9.33701C14.1891 9.44427 14.2156 9.52443 14.2701 9.60431L14.5907 9.63141C14.991 9.71072 15.2851 9.79116 15.4733 9.87217C15.6599 9.97858 15.7931 10.166 15.8473 10.4068C15.9007 10.6475 15.9272 10.9679 15.9007 11.3695C15.8733 11.9309 15.8473 12.599 15.8205 13.3747C15.7931 14.1512 15.7401 14.953 15.6862 15.7826C15.6334 17.0649 15.5182 20.1892 15.1696 21.1141C15.0889 21.3281 14.9557 21.4621 14.7951 21.5434C14.6074 21.6225 14.3926 21.7029 14.1253 21.7306L13.6963 21.7839C13.6164 21.8367 13.5893 21.918 13.6164 22.0518C13.6164 22.1322 13.6429 22.2118 13.7233 22.2925C14.0711 22.266 14.3926 22.2389 14.7409 22.2118H16.8572C17.2583 22.2389 17.6069 22.266 17.9281 22.2925C18.0088 22.2389 18.0622 22.1587 18.0622 22.0518C18.0622 21.9439 18.0356 21.8641 17.9546 21.7839L17.2053 21.7306C16.9636 21.7029 16.7762 21.6498 16.6427 21.5434C16.5755 21.489 16.5216 21.4144 16.4815 21.3236C16.3235 20.9434 16.3201 20.3001 16.3283 19.9007C16.3455 19.0717 16.3557 18.243 16.3819 17.4137C16.4087 16.5848 16.4355 15.8619 16.4618 15.2472C16.4878 14.6858 16.5428 14.0967 16.5688 13.5085C16.5956 12.9208 16.6218 12.3317 16.6495 11.7435H16.7026C16.9168 12.198 17.131 12.6527 17.3182 13.1607C17.5324 13.6425 17.7461 14.1241 17.9594 14.5791L19.7515 18.4022C19.9129 18.7243 20.0995 19.1253 20.3129 19.6066C20.5542 20.1147 20.7941 20.5956 21.0086 21.0769C21.1218 21.3317 21.2198 21.5705 21.3028 21.7952C21.3242 21.7952 21.4741 22.288 21.4907 22.3453C21.5938 22.4497 21.7625 22.4472 21.8659 22.3453C22.0321 21.9468 22.2057 21.5434 22.399 21.1579C22.9057 20.0209 23.4341 18.9351 24.0307 17.8416L25.7692 14.3916C25.9032 14.0967 26.0365 13.7758 26.2236 13.4286C26.411 13.0543 26.5979 12.7066 26.7587 12.4125C26.8923 12.0913 26.9989 11.8776 27.052 11.7972H27.0791L27.1333 20.0619C27.1593 20.4892 27.1333 20.8087 27.1065 21.0498C27.085 21.2411 27.0311 21.4229 26.8474 21.5163C26.7396 21.6498 26.5256 21.7029 26.1776 21.7306L25.5882 21.7839C25.5346 21.8367 25.5081 21.918 25.5346 22.0518C25.5346 22.1322 25.5617 22.2118 25.6424 22.2925C26.0435 22.266 26.4714 22.2389 26.8733 22.2118H29.1774C29.5785 22.2389 29.9801 22.266 30.3829 22.2925C30.4633 22.2389 30.4896 22.1587 30.4896 22.0518C30.5161 21.9439 30.4896 21.8641 30.4363 21.7839L29.7933 21.7306C29.4986 21.7029 29.2844 21.6225 29.1497 21.4887C29.0174 21.3552 28.9098 21.1943 28.883 20.98C28.8556 20.7396 28.8288 20.444 28.8288 20.1231C28.774 19.1282 28.7368 18.1171 28.7108 17.1199C28.6837 16.0488 28.6301 15.0335 28.6038 14.0716V11.5299C28.6038 11.0751 28.6301 10.7277 28.6837 10.4598C28.7382 10.2196 28.8717 10.006 29.0583 9.87217C29.246 9.76519 29.5663 9.68419 29.9942 9.63141L30.3959 9.60431C30.4498 9.55068 30.476 9.47052 30.4498 9.33701C30.4498 9.25629 30.4227 9.17641 30.3694 9.12278C30.0481 9.14903 29.7269 9.14903 29.4331 9.17641H27.9891C27.7478 9.14903 27.4799 9.14903 27.1333 9.12278C27.1065 9.57665 26.9459 10.0858 26.7051 10.6743C26.411 11.2882 26.0638 12.0385 25.6359 12.9208L23.7632 16.6912C23.2777 17.7177 22.8354 18.6946 22.2404 19.6678H22.1871C21.7137 18.7748 21.2773 17.8481 20.848 16.9325L18.5753 12.3854C18.2815 11.7435 18.0136 11.1291 17.7997 10.5674C17.6123 10.006 17.5324 9.52443 17.5589 9.12278C17.2383 9.14903 16.9436 9.14903 16.6495 9.17641ZM5.67569 19.3427C5.67569 20.0238 5.64887 20.5423 5.5944 20.8973C5.54048 21.5849 5.08662 21.8102 4.44675 21.8542L4.03691 21.9087C3.9051 22.041 3.91526 22.3278 4.06542 22.4269C4.91049 22.3744 5.67456 22.3448 6.52245 22.3448C7.42652 22.3448 8.26933 22.3845 9.17057 22.4269C9.22505 22.3724 9.25327 22.2906 9.28037 22.1816C9.28037 22.0453 9.25327 21.9626 9.19823 21.9087L8.65207 21.8542C8.21514 21.826 7.9151 21.7441 7.75139 21.6075C7.74151 21.6004 7.73163 21.5931 7.72204 21.5855C7.55692 21.4483 7.43865 21.2389 7.38898 20.9143C7.33478 20.5598 7.3074 20.0421 7.33478 19.3619V17.4519C6.73471 17.4795 6.18967 17.4519 5.69855 17.3703L5.67569 19.3427ZM3.92598 9.38246C3.89917 9.49112 3.95393 9.5727 4.03578 9.65511L4.74481 9.73584C5.04428 9.76407 5.26275 9.84535 5.39879 9.98197C5.53484 10.0906 5.61726 10.282 5.64407 10.5815C5.67173 10.8812 5.69855 11.3184 5.69855 11.89V15.9251C6.24387 15.9525 6.7889 15.9525 7.33478 15.9251V10.3633C7.3074 10.1454 7.33478 9.98197 7.38898 9.84535C7.41607 9.76407 7.5253 9.68108 7.66135 9.65511C7.82506 9.62774 8.09828 9.62774 8.45251 9.62774C9.48811 9.65511 10.279 9.92721 10.8514 10.4999C11.3967 11.0718 11.6691 11.8629 11.6691 12.8452C11.6973 13.7171 11.4789 14.4532 11.0154 15.0524C10.6064 15.5715 10.0066 15.9525 9.18835 16.1433C8.39804 16.3344 7.28031 16.4163 5.7804 16.3883C4.47158 16.3626 3.0541 16.2802 1.5 16.1168C3.21809 16.471 4.49896 16.716 5.3175 16.7976C6.65257 16.9621 7.96139 16.9339 9.18835 16.744C9.81524 16.6613 10.3879 16.4984 10.9062 16.3076C11.3967 16.0897 11.8878 15.7897 12.4058 15.4346C12.7055 15.217 12.9782 14.8613 13.224 14.3987C13.4151 13.9623 13.5238 13.4444 13.5506 12.8169C13.5238 12.135 13.3601 11.5366 13.0606 11.0178C12.7603 10.4999 12.4058 10.0906 11.942 9.79173C11.4789 9.5185 10.9062 9.29976 10.2519 9.16343C9.62472 9.05476 8.88832 9 8.04353 9C7.22527 9 6.48915 9 5.83516 9.0271C5.18061 9.05476 4.58082 9.08185 4.06231 9.13633C3.98102 9.19137 3.92598 9.27294 3.92598 9.38246Z" fill="#2B2A28"/>
</svg>
