<svg width="16" height="16" viewBox="0 0 16 16" fill="none" xmlns="http://www.w3.org/2000/svg">
<path fill-rule="evenodd" clip-rule="evenodd" d="M6.36759 4.16167C6.36759 3.31299 7.05558 2.625 7.90426 2.625C8.75292 2.625 9.44093 3.31299 9.44093 4.16167V4.17084H6.36759V4.16167ZM5.36759 4.17084V4.16167C5.36759 2.7607 6.5033 1.625 7.90426 1.625C9.3052 1.625 10.4409 2.7607 10.4409 4.16167V4.17084H12.9867H14.0142V5.17084H12.9867V13.8267H2.8217V5.17084H1.79419V4.17084H2.8217H5.36759ZM3.8217 5.17084H11.9867V12.8267H3.8217V5.17084ZM5.87671 7.21666V10.7808H6.87671V7.21666H5.87671ZM8.93172 10.7808V7.21666H9.93172V10.7808H8.93172Z" fill="#2B2A28"/>
</svg>
