<svg width="32" height="32" viewBox="0 0 32 32" fill="none" xmlns="http://www.w3.org/2000/svg">
<path d="M6.55818 5.85503L6.55794 5.85556L3.20326 13.5463L3.20324 13.5464C2.79407 14.4841 3.01521 15.5967 3.75476 16.3097L3.7548 16.3097L14.7745 26.9346L14.7748 26.9349C15.2585 27.4021 15.8776 27.6339 16.5 27.6339C17.1187 27.6339 17.7389 27.4007 18.2264 26.9338C18.2265 26.9337 18.2265 26.9336 18.2266 26.9335L29.2452 16.3097L29.2452 16.3097C29.9848 15.5967 30.2059 14.4841 29.7968 13.5464L29.7967 13.5462L26.4444 5.85584L6.55818 5.85503ZM6.55818 5.85503C6.95085 4.95192 7.84338 4.36719 8.83274 4.36719M6.55818 5.85503L8.83274 4.36719M8.83274 4.36719H24.1673M8.83274 4.36719H24.1673M24.1673 4.36719C25.1563 4.36719 26.0492 4.95167 26.4442 5.85545L24.1673 4.36719Z" stroke="black"/>
<path d="M16.3467 23.4648V9.46484H22.88" stroke="black"/>
<path d="M16.3468 9.46484C14.1599 9.46484 12.0004 9.46484 9.81348 9.46484" stroke="black"/>
</svg>
