<svg width="32" height="32" viewBox="0 0 32 32" fill="none" xmlns="http://www.w3.org/2000/svg">
<path d="M6.05818 5.85503L6.05794 5.85556L2.70326 13.5463L2.70324 13.5464C2.29407 14.4841 2.51521 15.5967 3.25476 16.3097L3.2548 16.3097L14.2745 26.9346L14.2748 26.9349C14.7585 27.4021 15.3776 27.6339 16 27.6339C16.6187 27.6339 17.2389 27.4007 17.7264 26.9338C17.7265 26.9337 17.7265 26.9336 17.7266 26.9335L28.7452 16.3097L28.7452 16.3097C29.4848 15.5967 29.7059 14.4841 29.2968 13.5464L29.2967 13.5462L25.9444 5.85584L6.05818 5.85503ZM6.05818 5.85503C6.45085 4.95192 7.34338 4.36719 8.33274 4.36719M6.05818 5.85503L8.33274 4.36719M8.33274 4.36719H23.6673M8.33274 4.36719H23.6673M23.6673 4.36719C24.6563 4.36719 25.5492 4.95167 25.9442 5.85545L23.6673 4.36719Z" stroke="#EBEEE2"/>
<path d="M15.8467 23.4648V9.46484H22.38" stroke="#EBEEE2"/>
<path d="M15.8468 9.46484C13.6599 9.46484 11.5004 9.46484 9.31348 9.46484" stroke="#EBEEE2"/>
</svg>
