<svg width="16" height="16" viewBox="0 0 16 16" fill="none" xmlns="http://www.w3.org/2000/svg">
<path fill-rule="evenodd" clip-rule="evenodd" d="M5.89154 4.92633C5.89154 3.81486 6.79257 2.91383 7.90404 2.91383C9.0155 2.91383 9.91654 3.81486 9.91654 4.92633C9.91654 6.0378 9.0155 6.93883 7.90404 6.93883C6.79257 6.93883 5.89154 6.03781 5.89154 4.92633ZM7.90404 1.84717C6.20346 1.84717 4.82487 3.22576 4.82487 4.92633C4.82487 6.62691 6.20346 8.0055 7.90404 8.0055C9.6046 8.0055 10.9832 6.62691 10.9832 4.92633C10.9832 3.22576 9.6046 1.84717 7.90404 1.84717ZM7.904 8.72091C6.04354 8.72091 4.63576 9.11998 3.68422 9.52778C3.20912 9.7314 2.84888 9.93668 2.60348 10.0944C2.48078 10.1733 2.38671 10.2404 2.32128 10.2894C2.28856 10.314 2.26299 10.334 2.24456 10.3488L2.22226 10.367L2.21512 10.373L2.21256 10.3752L2.21152 10.3761L2.21066 10.3768L2.55742 10.7814C2.21343 10.38 2.21047 10.377 2.21065 10.3768L2.02441 10.5364V13.6063H13.7836V10.5364L13.5973 10.3768L13.2502 10.7817C13.5973 10.3768 13.5967 10.3762 13.5965 10.3761L13.5954 10.3752L13.5929 10.373L13.5857 10.367L13.5634 10.3488C13.545 10.334 13.5194 10.314 13.4867 10.2894C13.4213 10.2404 13.3272 10.1733 13.2045 10.0944C12.9591 9.93668 12.5989 9.7314 12.1238 9.52778C11.1722 9.11998 9.76445 8.72091 7.904 8.72091ZM3.18029 10.9917C3.14768 11.0127 3.11794 11.0323 3.09108 11.0506V12.5397H12.7169V11.0506C12.6901 11.0323 12.6603 11.0127 12.6277 10.9917C12.4276 10.863 12.1195 10.6865 11.7036 10.5082C10.873 10.1523 9.60771 9.78757 7.904 9.78757C6.20029 9.78757 4.93495 10.1523 4.1044 10.5082C3.68846 10.6865 3.38041 10.863 3.18029 10.9917Z" fill="#686765"/>
</svg>
