<svg width="17" height="16" viewBox="0 0 17 16" fill="none" xmlns="http://www.w3.org/2000/svg">
<path fill-rule="evenodd" clip-rule="evenodd" d="M8.50065 2.08203C5.23297 2.08203 2.58398 4.73101 2.58398 7.9987C2.58398 11.2664 5.23297 13.9154 8.50065 13.9154C11.7683 13.9154 14.4173 11.2664 14.4173 7.9987C14.4173 4.73101 11.7683 2.08203 8.50065 2.08203ZM1.08398 7.9987C1.08398 3.90259 4.40454 0.582031 8.50065 0.582031C12.5968 0.582031 15.9173 3.90259 15.9173 7.9987C15.9173 12.0948 12.5968 15.4154 8.50065 15.4154C4.40454 15.4154 1.08398 12.0948 1.08398 7.9987ZM7.50065 8.08203V6.58203H8.50065C8.91486 6.58203 9.25065 6.91782 9.25065 7.33203V9.91537H9.50065V11.4154H8.50065H7.50065C7.08644 11.4154 6.75065 11.0796 6.75065 10.6654C6.75065 10.2512 7.08644 9.91537 7.50065 9.91537H7.75065V8.08203H7.50065ZM8.50065 5.83203C8.77679 5.83203 9.00065 5.60817 9.00065 5.33203C9.00065 5.05589 8.77679 4.83203 8.50065 4.83203C8.22451 4.83203 8.00065 5.05589 8.00065 5.33203C8.00065 5.60817 8.22451 5.83203 8.50065 5.83203Z" fill="#2B2A28"/>
</svg>
