<svg width="16" height="16" viewBox="0 0 16 16" fill="none" xmlns="http://www.w3.org/2000/svg">
<path fill-rule="evenodd" clip-rule="evenodd" d="M5.40848 2.71609C6.47861 2.30734 7.64762 2.23315 8.76083 2.50333C9.87405 2.77351 10.879 3.37534 11.6427 4.22917L10.8973 4.89583C10.2687 4.19296 9.44138 3.69753 8.52498 3.47512C7.60857 3.2527 6.64624 3.31378 5.7653 3.65026C4.88437 3.98675 4.12637 4.58278 3.5916 5.3595C3.05684 6.13621 2.77051 7.05699 2.77051 8C2.77051 8.94301 3.05684 9.86379 3.5916 10.6405C4.12637 11.4172 4.88437 12.0133 5.7653 12.3497C6.64624 12.6862 7.60857 12.7473 8.52498 12.5249C9.44138 12.3025 10.2687 11.807 10.8973 11.1042L11.6427 11.7708C10.879 12.6247 9.87405 13.2265 8.76083 13.4967C7.64762 13.7669 6.47861 13.6927 5.40848 13.2839C4.33836 12.8752 3.41756 12.1511 2.76795 11.2076C2.11833 10.2641 1.77051 9.14553 1.77051 8C1.77051 6.85447 2.11833 5.73594 2.76795 4.79241C3.41756 3.84888 4.33836 3.12484 5.40848 2.71609ZM12.5219 8.5L11.0838 9.93811L11.7909 10.6452L14.4361 8L11.7909 5.35478L11.0838 6.06188L12.5219 7.5H5.70817V8.5H12.5219Z" fill="#868583"/>
</svg>
