<?xml version="1.0" encoding="utf-8"?>
<!-- Generator: Adobe Illustrator 28.1.0, SVG Export Plug-In . SVG Version: 6.00 Build 0)  -->
<svg version="1.1" id="Layer_1" xmlns="http://www.w3.org/2000/svg" xmlns:xlink="http://www.w3.org/1999/xlink" x="0px" y="0px"
	 viewBox="0 0 14.3 13.8" style="enable-background:new 0 0 14.3 13.8;" xml:space="preserve">
<style type="text/css">
	.stblack{fill:#23346B;}
</style>
<path class="stblack" d="M7.7,13.5c-0.2,0-0.4-0.1-0.5-0.2c-0.3-0.3-0.3-0.8,0-1.1l5.3-5.3L7.2,1.6c-0.3-0.3-0.3-0.8,0-1.1
	s0.8-0.3,1.1,0l5.8,5.8c0.1,0.1,0.2,0.3,0.2,0.5s-0.1,0.4-0.2,0.5l-5.8,5.8C8.1,13.4,7.9,13.5,7.7,13.5z M1.1,13.5
	c-0.2,0-0.4-0.1-0.5-0.2c-0.3-0.3-0.3-0.8,0-1.1l5.3-5.3L0.5,1.6c-0.3-0.3-0.3-0.8,0-1.1s0.8-0.3,1.1,0l5.8,5.8
	c0.3,0.3,0.3,0.8,0,1.1l-5.8,5.8C1.4,13.4,1.3,13.5,1.1,13.5z"/>
</svg>
