<?xml version="1.0" encoding="utf-8"?>
<!-- Generator: Adobe Illustrator 27.0.0, SVG Export Plug-In . SVG Version: 6.00 Build 0)  -->
<svg version="1.1" id="圖層_1" xmlns="http://www.w3.org/2000/svg" xmlns:xlink="http://www.w3.org/1999/xlink" x="0px" y="0px"
	 viewBox="0 0 74.3 70.1" style="enable-background:new 0 0 74.3 70.1;" xml:space="preserve">
<style type="text/css">
	.stblack{fill:#23346B;}
</style>
<g>
	<defs>
		<rect id="SVGID_1_" x="2.9" y="7.2" width="68.4" height="55.8"/>
	</defs>
	<clipPath id="SVGID_00000148651470431072641670000002061495446782852028_">
		<use xlink:href="#SVGID_1_"  style="overflow:visible;"/>
	</clipPath>
	<g id="Group_153" style="clip-path:url(#SVGID_00000148651470431072641670000002061495446782852028_);">
		<path id="Path_254" class="stblack" d="M63.2,31.9V11.4c0-2.3-1.9-4.2-4.2-4.2H7.1c-2.3,0-4.2,1.9-4.2,4.2v39c0,2.3,1.9,4.2,4.2,4.2
			h33c4.6,8,14.7,10.8,22.8,6.3s10.8-14.7,6.3-22.8C67.7,35.5,65.7,33.4,63.2,31.9 M7.1,10H59c0.8,0,1.4,0.6,1.4,1.4c0,0,0,0,0,0
			v8.4H5.7v-8.4C5.7,10.6,6.3,10,7.1,10L7.1,10 M7.1,51.7c-0.8,0-1.4-0.6-1.4-1.4l0,0V22.6h54.7v8c-8.6-3.2-18.2,1.2-21.4,9.9
			c-1.3,3.6-1.4,7.6-0.1,11.3L7.1,51.7z M54.7,60.2c-7.7,0-13.9-6.2-13.9-13.9S47,32.4,54.7,32.4c7.7,0,13.9,6.2,13.9,13.9v0
			C68.5,54,62.3,60.2,54.7,60.2"/>
		<path id="Path_255" class="stblack" d="M55.6,45.2c-1.4-0.5-2-0.9-2-1.4c0-0.5,0.4-0.9,1.4-0.9c0.8,0,1.7,0.2,2.4,0.6l0.5-1.9
			c-0.8-0.4-1.6-0.5-2.4-0.6v-1.5h-1.6V41c-1.6,0.1-2.8,1.4-2.8,3c0,1.6,1.2,2.5,3,3.1c1.2,0.4,1.8,0.8,1.8,1.5c0,0.7-0.7,1-1.6,1
			c-1,0-1.9-0.3-2.8-0.7l-0.5,2c0.9,0.4,1.9,0.7,2.9,0.7v1.6h1.6v-1.7c1.6-0.1,2.9-1.5,3-3.1C58.4,46.8,57.6,45.9,55.6,45.2"/>
		<path id="Path_256" class="stblack" d="M12.2,16.5h1.4c0.8,0,1.4-0.6,1.4-1.4c0-0.8-0.6-1.4-1.4-1.4h-1.4c-0.8,0-1.4,0.6-1.4,1.4
			C10.8,15.9,11.4,16.5,12.2,16.5L12.2,16.5"/>
		<path id="Path_257" class="stblack" d="M19.5,16.5h1.4c0.8,0,1.4-0.6,1.4-1.4c0-0.8-0.6-1.4-1.4-1.4c0,0,0,0,0,0h-1.4
			c-0.8,0-1.4,0.6-1.4,1.4C18.1,15.9,18.7,16.5,19.5,16.5"/>
		<path id="Path_258" class="stblack" d="M40.3,28.8c-0.6-0.5-1.4-0.5-2,0c0,0,0,0,0,0c-3.5,3.6-7.6,7.7-9.2,8.9
			c-1.2-0.8-3.7-2.6-4.8-3.3l-0.9-0.6l-8.1,7.2c-0.6,0.5-0.6,1.4-0.1,2c0.5,0.6,1.4,0.6,2,0.1l6.5-5.8c1.5,1,4.1,2.8,4.7,3.2
			c1,0.6,1.7,1,12-9.8C40.9,30.2,40.9,29.4,40.3,28.8C40.3,28.8,40.3,28.8,40.3,28.8"/>
	</g>
</g>
</svg>
