<?xml version="1.0" encoding="utf-8"?>
<!-- Generator: Adobe Illustrator 27.0.0, SVG Export Plug-In . SVG Version: 6.00 Build 0)  -->
<svg version="1.1" id="圖層_1" xmlns="http://www.w3.org/2000/svg" xmlns:xlink="http://www.w3.org/1999/xlink" x="0px" y="0px"
	 viewBox="0 0 74.3 70.1" style="enable-background:new 0 0 74.3 70.1;" xml:space="preserve">
<style type="text/css">
	.stblack{fill:#23346B;}
</style>
<g>
	<defs>
		<rect id="SVGID_00000098936999750068555430000012076192432016107686_" x="7.6" y="2.5" width="59" height="66.4"/>
	</defs>
	<clipPath id="SVGID_00000042710282594553231390000016902141767055284355_">
		<use xlink:href="#SVGID_00000098936999750068555430000012076192432016107686_"  style="overflow:visible;"/>
	</clipPath>
	
		<g id="Group_155" transform="translate(0 0)" style="clip-path:url(#SVGID_00000042710282594553231390000016902141767055284355_);">
		<path id="Path_259" class="stblack" d="M55.7,40.9V29.3h0.2c0.7,0,1.3-0.6,1.3-1.3v-3.7c0-0.7-0.6-1.3-1.3-1.3H49
			c-0.7,0-1.3,0.6-1.3,1.3V28c0,0.7,0.6,1.3,1.3,1.3h0.2v11.6c-5.2,1.3-9.3,5.4-10.5,10.6H8.9c-0.7,0-1.3,0.6-1.3,1.3v3.7
			c0,0.7,0.6,1.3,1.3,1.3h29.7c1.7,7.6,9.3,12.4,17,10.6c7.6-1.7,12.4-9.3,10.6-17C65.1,46.3,61,42.2,55.7,40.9 M50.1,25.3h4.8v1.6
			h-4.8V25.3z M51.6,29.3h1.8v11.2c-0.3,0-0.6,0-0.9,0s-0.6,0-0.9,0L51.6,29.3z M10,55.5v-1.6h28.3c0,0.3,0,0.5,0,0.8s0,0.5,0,0.8
			H10z M52.5,66.5c-6.5,0-11.8-5.3-11.8-11.8c0-6.5,5.3-11.8,11.8-11.8c6.5,0,11.8,5.3,11.8,11.8c0,0,0,0,0,0
			C64.3,61.2,59,66.5,52.5,66.5"/>
		<path id="Path_260" class="stblack" d="M53.3,53.8c-1.2-0.5-1.7-0.8-1.7-1.2c0-0.4,0.3-0.8,1.2-0.8c0.7,0,1.4,0.2,2.1,0.5l0.4-1.6
			c-0.6-0.3-1.4-0.5-2.1-0.5v-1.3h-1.4v1.4c-1.3,0.1-2.4,1.2-2.4,2.5c0,1.4,1,2.1,2.6,2.6c1.1,0.4,1.5,0.7,1.5,1.2
			c0,0.6-0.6,0.9-1.4,0.9c-0.8,0-1.6-0.2-2.4-0.6l-0.4,1.7c0.8,0.4,1.6,0.6,2.4,0.6v1.4h1.4v-1.5c1.4-0.1,2.5-1.2,2.5-2.6
			C55.7,55.1,55,54.4,53.3,53.8"/>
		<path id="Path_261" class="stblack" d="M13.9,21.8h41c1.3,0,2.4-1.1,2.4-2.4c0-0.8-0.4-1.5-1-1.9L35.8,2.9c-0.8-0.6-1.9-0.6-2.8,0
			L12.5,17.5c-1.1,0.8-1.3,2.2-0.6,3.3C12.4,21.4,13.2,21.8,13.9,21.8 M34.4,4.8L34.4,4.8l20.5,14.6h-41L34.4,4.8z"/>
		<path id="Path_262" class="stblack" d="M19.8,29.3c0.7,0,1.3-0.6,1.3-1.3v-3.7c0-0.7-0.6-1.3-1.3-1.3h-6.9c-0.7,0-1.3,0.6-1.3,1.3
			c0,0,0,0,0,0V28c0,0.7,0.6,1.3,1.3,1.3H13v14.6h-0.2c-0.7,0-1.3,0.6-1.3,1.3c0,0,0,0,0,0V49c0,0.7,0.6,1.3,1.3,1.3h6.9
			c0.7,0,1.3-0.6,1.3-1.3v-3.7c0-0.7-0.6-1.3-1.3-1.3h-0.2V29.3H19.8z M13.9,25.3h4.8v1.6h-4.8V25.3z M18.7,47.9h-4.8v-1.6h4.8V47.9
			z M17.2,43.9h-1.8V29.3h1.8V43.9z"/>
		<path id="Path_263" class="stblack" d="M37.8,29.3c0.7,0,1.3-0.6,1.3-1.3v-3.7c0-0.7-0.6-1.3-1.3-1.3h-6.9c-0.7,0-1.3,0.6-1.3,1.3V28
			c0,0.7,0.6,1.3,1.3,1.3h0.2v14.6h-0.2c-0.7,0-1.3,0.6-1.3,1.3V49c0,0.7,0.6,1.3,1.3,1.3h6.9c0.7,0,1.3-0.6,1.3-1.3v-3.7
			c0-0.7-0.6-1.3-1.3-1.3h-0.2V29.3H37.8z M32,25.3h4.8v1.6H32L32,25.3z M36.8,47.9H32v-1.6h4.8L36.8,47.9z M35.3,43.9h-1.8V29.3
			h1.8V43.9z"/>
	</g>
</g>
</svg>
