<?xml version="1.0" encoding="utf-8"?>
<!-- Generator: Adobe Illustrator 27.0.0, SVG Export Plug-In . SVG Version: 6.00 Build 0)  -->
<svg version="1.1" id="圖層_1" xmlns="http://www.w3.org/2000/svg" xmlns:xlink="http://www.w3.org/1999/xlink" x="0px" y="0px"
	 viewBox="0 0 74.3 70.1" style="enable-background:new 0 0 74.3 70.1;" xml:space="preserve">
<style type="text/css">
	.stblack{fill:#23346B;}
	.stblackstroke{fill:#23346B;stroke:#23346B;}
</style>
<g id="Group_164" transform="translate(0 0)">
	<g>
		<defs>
			<rect id="SVGID_00000176750855475339734060000004646162441879839910_" x="8.7" y="8" width="56.9" height="54.1"/>
		</defs>
		<clipPath id="SVGID_00000080893077717970226910000006705158443028727732_">
			<use xlink:href="#SVGID_00000176750855475339734060000004646162441879839910_"  style="overflow:visible;"/>
		</clipPath>
		
			<g id="Group_163" transform="translate(0 0)" style="clip-path:url(#SVGID_00000080893077717970226910000006705158443028727732_);">
			<path id="Path_278" class="stblackstroke" d="M62.6,24.9h-4.8v-3.8c0-1.7-1.4-3-3-3h-9.1L35.6,8L25.5,18.1H13c-1.2,0-2.3,0.5-3.1,1.3
				c-0.6,0.7-1,1.5-1.1,2.5c0,0.1,0,0.1,0,0.2v35.8c0,2.4,1.9,4.3,4.3,4.3h49.6c1.7,0,3-1.4,3-3V27.9C65.6,26.2,64.2,24.9,62.6,24.9
				 M54.7,19.8c0.7,0,1.3,0.6,1.3,1.3v3.8h-3.6l-5.1-5.1H54.7z M44.7,19.5L44.7,19.5l5.3,5.3h-4.1l-6.4-6.4L39,19.1
				c-1.9,1.9-4.9,1.9-6.8,0c0,0,0,0,0,0l-0.6-0.6l-6.4,6.4h-4.1l5.3-5.3l0,0l9.1-9.1L44.7,19.5z M43.5,24.9H27.7l4-4
				c2.3,1.8,5.6,1.8,7.9,0L43.5,24.9z M11.1,20.6c0.5-0.5,1.1-0.8,1.8-0.8h10.8l-5.1,5.1h-5.6c-1.4,0-2.6-1-2.7-2.4
				C10.4,21.8,10.6,21.1,11.1,20.6 M63.9,45H43.6c-1.9,0-3.4-1.5-3.4-3.4v-2.9c0-1.9,1.5-3.4,3.4-3.4h20.3L63.9,45z M43.6,33.5
				c-2.9,0-5.2,2.3-5.2,5.2v2.9c0,2.9,2.3,5.2,5.2,5.2h20.3v12.4c0,0.7-0.6,1.3-1.3,1.3H13c-1.4,0-2.5-1.1-2.5-2.5V25.7
				c0.8,0.6,1.7,0.9,2.7,0.9h49.4c0.7,0,1.3,0.6,1.3,1.3v5.6L43.6,33.5z"/>
			<path id="Path_279" class="stblackstroke" d="M43.2,40.5c0,0.5,0.4,0.9,0.9,0.9h8.8c0.5,0,0.9-0.4,0.9-0.9c0-0.5-0.4-0.9-0.9-0.9
				c0,0,0,0,0,0H44C43.6,39.6,43.2,40,43.2,40.5"/>
		</g>
	</g>
	<g>
		<path class="stblack" d="M32.1,44.7H22c0.4,1.9,1.9,3.1,4.2,3.1c1.4,0,2.6-0.5,3.5-1.4l1.6,1.8c-1.2,1.4-3,2.1-5.2,2.1
			c-4.3,0-7.1-2.8-7.1-6.6s2.8-6.6,6.6-6.6c3.7,0,6.5,2.6,6.5,6.6C32.1,44,32.1,44.4,32.1,44.7z M22,42.7h7.3
			c-0.2-1.8-1.7-3.1-3.6-3.1C23.7,39.6,22.3,40.8,22,42.7z"/>
	</g>
</g>
</svg>
