<?xml version="1.0" encoding="utf-8"?>
<!-- Generator: Adobe Illustrator 27.0.0, SVG Export Plug-In . SVG Version: 6.00 Build 0)  -->
<svg version="1.1" id="圖層_1" xmlns="http://www.w3.org/2000/svg" xmlns:xlink="http://www.w3.org/1999/xlink" x="0px" y="0px"
	 viewBox="0 0 74.3 70.1" style="enable-background:new 0 0 74.3 70.1;" xml:space="preserve">
<style type="text/css">
	.stblack{fill:#23346B;}
</style>
<g id="Group_158" transform="translate(0 0)">
	<g>
		<defs>
			<rect id="SVGID_00000098179541188822091810000007338121136659065491_" x="14.6" y="3.5" width="45.1" height="63.1"/>
		</defs>
		<clipPath id="SVGID_00000091715891384479765310000011322821616808271775_">
			<use xlink:href="#SVGID_00000098179541188822091810000007338121136659065491_"  style="overflow:visible;"/>
		</clipPath>
		
			<g id="Group_157" transform="translate(0 0)" style="clip-path:url(#SVGID_00000091715891384479765310000011322821616808271775_);">
			<path id="Path_264" class="stblack" d="M39.5,34c-2.2-0.8-3.2-1.4-3.2-2.3c0-0.7,0.6-1.5,2.3-1.5c1.3,0,2.6,0.3,3.8,0.9l0.8-3
				c-1.2-0.6-2.5-0.9-3.8-0.9v-2.3h-2.6v2.5c-2.8,0.6-4.5,2.4-4.5,4.7c0,2.6,1.9,3.9,4.8,4.8c2,0.7,2.8,1.3,2.8,2.3
				c0,1.1-1,1.6-2.5,1.6c-1.5,0-3-0.4-4.4-1.2l-0.8,3.1c1.4,0.7,2.9,1.1,4.5,1.1v2.5h2.6v-2.7c3-0.5,4.7-2.5,4.7-4.9
				C43.9,36.6,42.6,35.1,39.5,34"/>
			<path id="Path_265" class="stblack" d="M48.2,17.6H27.8c-2.1,0-3.8,1.7-3.8,3.8V50c0,2.1,1.7,3.8,3.8,3.8h20.3c2.1,0,3.8-1.7,3.8-3.8
				V21.4C52,19.3,50.3,17.6,48.2,17.6 M49.4,50c0,0.7-0.6,1.3-1.3,1.3c0,0,0,0,0,0H27.8c-0.7,0-1.3-0.6-1.3-1.3l0,0V21.4
				c0-0.7,0.6-1.3,1.3-1.3c0,0,0,0,0,0h20.3c0.7,0,1.3,0.6,1.3,1.3V50z"/>
			<path id="Path_266" class="stblack" d="M15.9,53.9c0.7,0,1.3-0.6,1.3-1.3l0,0V17.8c0-4,3.3-7.3,7.3-7.3h25v3l0.1,0.8l0.6,0.4
				c0.2,0.1,0.5,0.2,0.7,0.2c0.2,0,0.5-0.1,0.7-0.2l7.5-4.3c0.7-0.4,0.9-1.2,0.5-1.9C59.3,8.3,59.2,8.1,59,8l-7.5-4.3
				c-0.4-0.2-1-0.2-1.4,0l-0.7,0.5V8h-25c-5.4,0-9.8,4.4-9.8,9.8v34.8C14.6,53.3,15.2,53.9,15.9,53.9C15.9,53.9,15.9,53.9,15.9,53.9
				 M52,6.9l4,2.3l-4,2.3V6.9z"/>
			<path id="Path_267" class="stblack" d="M58.4,16.3c-0.7,0-1.3,0.6-1.3,1.3l0,0v34.8c0,4-3.3,7.3-7.3,7.3h-25v-3l-0.1-0.8l-0.6-0.4
				c-0.4-0.3-1-0.3-1.4,0l-7.5,4.3c-0.7,0.4-0.9,1.3-0.5,1.9c0.1,0.2,0.3,0.4,0.5,0.5l7.5,4.3c0.4,0.2,1,0.2,1.4,0l0.7-0.5v-3.8h25
				c5.4,0,9.8-4.4,9.8-9.8V17.6C59.7,16.9,59.1,16.3,58.4,16.3C58.4,16.3,58.4,16.3,58.4,16.3 M22.3,63.2l-4-2.3l4-2.3V63.2z"/>
		</g>
	</g>
</g>
</svg>
