<?xml version="1.0" encoding="utf-8"?>
<!-- Generator: Adobe Illustrator 27.0.0, SVG Export Plug-In . SVG Version: 6.00 Build 0)  -->
<svg version="1.1" id="圖層_1" xmlns="http://www.w3.org/2000/svg" xmlns:xlink="http://www.w3.org/1999/xlink" x="0px" y="0px"
	 viewBox="0 0 74.3 70.1" style="enable-background:new 0 0 74.3 70.1;" xml:space="preserve">
<style type="text/css">
	.stblack{fill:#23346B;}
</style>
<g>
	<defs>
		<rect id="SVGID_00000137115114128298279320000006448408063281578126_" x="11.6" y="4.9" width="51" height="60.2"/>
	</defs>
	<clipPath id="SVGID_00000129884405330888676910000012736086869810771344_">
		<use xlink:href="#SVGID_00000137115114128298279320000006448408063281578126_"  style="overflow:visible;"/>
	</clipPath>
	
		<g id="Group_159" transform="translate(0 0)" style="clip-path:url(#SVGID_00000129884405330888676910000012736086869810771344_);">
		<path id="Path_268" class="stblack" d="M58.9,17H47.5V8.7c0-2.1-1.7-3.8-3.8-3.8H15.4c-2.1,0-3.8,1.7-3.8,3.8v52.7
			c0,2.1,1.7,3.8,3.8,3.8h28.3c2.1,0,3.8-1.7,3.8-3.8v-17h11.3c2.1,0,3.8-1.7,3.8-3.8V20.8C62.6,18.7,61,17,58.9,17 M45,61.4
			c0,0.7-0.6,1.3-1.3,1.3H15.4c-0.7,0-1.3-0.6-1.3-1.3V8.7c0-0.7,0.6-1.3,1.3-1.3h28.3C44.4,7.5,45,8,45,8.7V17h-1.3V8.7H15.4v49.1
			h28.3V44.4H45L45,61.4z M26.9,17c-2.1,0-3.8,1.7-3.8,3.8v19.8c0,1.5,0.9,2.9,2.3,3.5c-1,5.1-0.9,6.8,0.5,7.4
			c0.2,0.1,0.4,0.1,0.6,0.1c1.2,0,2.6-1.5,5.8-7.2h8.9v10.9H17.9V11.2h23.3V17H26.9z M60.1,40.6c0,0.7-0.6,1.3-1.3,1.3h-28l-0.4,0.7
			c-0.9,1.8-2,3.5-3.1,5.2c0.1-0.9,0.3-2.3,0.8-4.3l0.3-1.5h-1.6c-0.7,0-1.3-0.6-1.3-1.3V20.8c0-0.7,0.6-1.3,1.3-1.3h32
			c0.7,0,1.3,0.6,1.3,1.3L60.1,40.6z"/>
		<path id="Path_269" class="stblack" d="M43.9,29.7c-1.5-0.6-2.2-1-2.2-1.5c0-0.5,0.4-1,1.5-1c0.9,0,1.8,0.2,2.6,0.6l0.5-2
			c-0.8-0.4-1.7-0.6-2.6-0.6v-1.6H42v1.7c-1.9,0.4-3,1.6-3,3.2c0,1.7,1.3,2.6,3.2,3.3c1.3,0.5,1.9,0.9,1.9,1.6
			c0,0.7-0.7,1.1-1.7,1.1c-1,0-2.1-0.3-3-0.8l-0.5,2.1c0.9,0.5,2,0.7,3.1,0.8v1.7h1.8v-1.8c2.1-0.4,3.2-1.7,3.2-3.3
			C46.9,31.4,46,30.4,43.9,29.7"/>
		<path id="Path_270" class="stblack" d="M29.6,58.4c-0.9,0-1.6,0.7-1.6,1.6c0,0.9,0.7,1.6,1.6,1.6c0.9,0,1.6-0.7,1.6-1.6
			C31.2,59.1,30.5,58.4,29.6,58.4"/>
	</g>
</g>
</svg>
